<svg width="36" height="35" viewBox="0 0 36 35" fill="none" xmlns="http://www.w3.org/2000/svg">
<path fill-rule="evenodd" clip-rule="evenodd" d="M8.98955 0.218724C4.82689 1.24859 2.98881 6.48092 5.57079 9.95056C6.01434 10.5466 17.7298 22.4944 17.9213 22.546C18.1651 22.6116 17.9599 22.8109 24.2524 16.3984C30.5761 9.95406 30.7511 9.75805 31.2042 8.61461C33.2303 3.50177 28.3324 -1.49625 23.2558 0.503616C22.3798 0.84873 21.9071 1.22622 20.1746 2.96436C17.8984 5.24788 18.1297 5.24715 15.8799 2.97723C13.1812 0.254464 11.5251 -0.408577 8.98955 0.218724ZM16.6966 8.35815C16.8626 8.49891 17.0186 8.83102 17.4002 9.85642C17.9857 11.4298 17.9257 11.4063 18.2652 10.1936C18.7929 8.30874 19.5656 8.19458 20.416 9.87586L20.8507 10.7353H22.6379C24.6484 10.7353 24.7608 10.7642 24.7608 11.2824C24.7608 11.8724 24.5786 11.917 22.2813 11.89C20.1079 11.8645 20.1809 11.8883 19.7457 11.0614C19.3875 10.381 19.3961 10.3748 19.0713 11.5482C18.4364 13.8417 17.6072 13.7179 16.6726 11.1904C16.401 10.4558 16.1545 9.88025 16.1249 9.91138C16.0952 9.94244 15.9508 10.272 15.8039 10.6437C15.3106 11.8918 15.2847 11.9047 13.2664 11.9047C11.4505 11.9047 11.2737 11.8478 11.2737 11.2639C11.2737 10.7828 11.4337 10.7353 13.0553 10.7353H14.5217L14.9332 9.69863C15.1595 9.12855 15.391 8.59539 15.4476 8.5139C15.71 8.13633 16.3421 8.05754 16.6966 8.35815ZM7.02848 20.1967C6.87643 20.35 6.85047 20.4445 6.85047 20.8459V21.3158L7.55745 21.3462C8.18388 21.3732 8.3223 21.4054 8.77202 21.6288C9.05118 21.7675 9.3041 21.8919 9.33398 21.9053C9.36385 21.9188 9.38836 21.5802 9.38836 21.1529C9.38836 20.048 9.35406 20.0173 8.11941 20.0173C7.24674 20.0173 7.19859 20.0252 7.02848 20.1967ZM26.8241 20.1967C26.672 20.35 26.646 20.4445 26.646 20.8459V21.3158L27.3588 21.3447C27.9969 21.3705 28.1239 21.4001 28.5733 21.6272C28.8493 21.7668 29.0996 21.8919 29.1296 21.9053C29.1595 21.9188 29.1839 21.5802 29.1839 21.1529C29.1839 20.048 29.1496 20.0173 27.915 20.0173C27.0423 20.0173 26.9942 20.0252 26.8241 20.1967ZM6.85047 28.5628V34.6412L7.02848 34.8206C7.19859 34.9921 7.24674 35 8.11941 35C8.99209 35 9.04023 34.9921 9.21035 34.8206L9.38836 34.6412V29.35C9.38836 23.6915 9.39648 23.8231 9.01196 23.253C8.67819 22.7581 8.25291 22.5519 7.49002 22.5151L6.85047 22.4843V28.5628ZM26.646 28.5628V34.6412L26.8241 34.8206C26.9942 34.9921 27.0423 35 27.915 35C28.7877 35 28.8358 34.9921 29.0059 34.8206L29.1839 34.6412V29.3483C29.1839 23.6003 29.1923 23.7281 28.7812 23.1849C28.4496 22.7467 28.0106 22.5501 27.2856 22.5151L26.646 22.4843V28.5628ZM3.33041 23.9241C3.17842 24.0772 3.15239 24.172 3.15239 24.5719V25.0403L3.85002 25.0771C4.48544 25.1106 4.59856 25.1401 5.11897 25.4081L5.69029 25.7023V24.9372C5.69029 23.8232 5.60443 23.7447 4.38733 23.7447C3.55077 23.7447 3.49979 23.7533 3.33041 23.9241ZM30.5561 23.9583C30.3683 24.1475 30.3441 24.2227 30.3441 24.6161V25.0602H30.8803C31.4973 25.0602 32.1999 25.2535 32.6101 25.536L32.882 25.7233V24.9134C32.882 23.776 32.849 23.7447 31.6471 23.7447C30.7722 23.7447 30.767 23.7457 30.5561 23.9583ZM0.246357 26.4433C-0.082119 26.7743 -0.082119 28.2429 0.246357 28.574L0.458308 28.7876H1.5153H2.5723V27.5086V26.2296H1.5153H0.458308L0.246357 26.4433ZM3.15239 28.5625V30.9138L3.33041 31.0932C3.5003 31.2645 3.54932 31.2726 4.41162 31.2726H5.31482L5.50255 31.0477L5.69029 30.8229V29.38C5.69029 26.9874 5.28306 26.3292 3.75061 26.2444L3.15239 26.2113V28.5625ZM10.5485 27.5086V28.7876H18.0172H25.4859V27.5086V26.2296H18.0172H10.5485V27.5086ZM30.3441 28.5262V30.8229L30.5319 31.0477L30.7196 31.2726H31.6228C32.4851 31.2726 32.5341 31.2645 32.704 31.0932L32.882 30.9138V29.2804C32.882 26.8661 32.4557 26.2296 30.8388 26.2296H30.3441V28.5262ZM34.0422 27.5086V28.7876H34.8091C35.9165 28.7876 36 28.698 36 27.5086C36 26.3193 35.9165 26.2296 34.8091 26.2296H34.0422V27.5086Z" fill="#D1174F"/>
</svg>
