<svg width="33" height="30" viewBox="0 0 33 30" fill="none" xmlns="http://www.w3.org/2000/svg">
<path fill-rule="evenodd" clip-rule="evenodd" d="M25.9047 0.146937C25.7525 0.196141 25.3525 0.379481 25.0159 0.55445C24.2144 0.970879 23.9946 0.974349 23.1434 0.583918C21.273 -0.273983 19.4692 0.719211 19.4703 2.60644C19.4712 4.34518 21.4837 5.64367 22.7287 4.70893C23.2137 4.34484 23.3517 4.40092 23.6712 5.09188C24.0328 5.87404 24.739 6.40725 25.7043 6.627C26.2985 6.76229 26.4529 6.88431 26.3858 7.16599C26.1545 8.13686 26.3468 8.44107 27.06 8.23316C28.2053 7.89928 28.4897 8.15905 28.7097 9.73915C28.8039 10.416 28.7483 10.3669 29.2316 10.1998C31.0516 9.57065 31.4388 7.53567 30.016 6.0782C29.3364 5.38207 29.2102 4.93318 29.4678 4.12815C30.2589 1.65633 28.2344 -0.605751 25.9047 0.146937ZM14.1926 2.95155C12.4645 3.40922 11.0914 5.13156 10.9999 6.95625C10.9688 7.57677 10.9351 7.77842 10.8555 7.81986C10.7984 7.8496 10.5182 7.98129 10.2328 8.1125C8.9859 8.68579 8.0195 10.4002 8.94328 10.4002C10.2445 10.4002 11.6357 11.5338 12.2825 13.1211C12.3975 13.4034 12.4927 13.5255 12.6661 13.6125C13.078 13.8195 13.0933 13.8038 13.3035 12.9557L13.4968 12.1765L13.1476 11.7521C12.1651 10.5576 11.7069 8.6172 12.2539 7.9672C12.5338 7.63469 12.8065 8.00504 12.7061 8.58133C12.5664 9.38356 12.8408 10.3769 13.4127 11.1394C13.6798 11.4956 13.7003 11.4788 13.8984 10.7404C14.4947 8.51736 15.264 6.19607 15.4207 6.14721C15.9051 5.99599 15.9153 6.21594 15.4865 7.56282C14.9959 9.10358 14.3067 11.5035 14.3443 11.5405C14.5279 11.721 16.0731 10.5221 16.4071 9.93991C16.7584 9.32789 17.2675 9.53778 16.9569 10.1665C16.5954 10.8982 15.951 11.4448 14.8188 11.98C14.0259 12.3548 14.1196 12.2195 13.8275 13.4123L13.6648 14.0766L14.1644 14.525C15.417 15.6495 16.0783 17.1492 16.1642 19.0602C16.2097 20.0732 16.1764 20.0491 16.7581 19.4908C18.335 17.9775 19.0446 15.8143 18.5169 14.1289L18.3952 13.7404L18.7444 13.1421C19.6876 11.5265 19.6308 10.1455 18.5738 8.98912L18.2532 8.63836L18.3953 8.21254C19.3095 5.4738 16.753 2.27359 14.1926 2.95155ZM20.6803 5.64605C20.6792 6.51647 20.3392 7.8935 19.8817 8.88077L19.648 9.38526L19.8294 9.92671C19.9291 10.2246 20.031 10.4682 20.0557 10.4682C20.1166 10.4682 20.6347 9.4902 20.7846 9.09202C20.9487 8.65639 21.3185 8.56486 21.4133 8.93637C21.4972 9.26494 20.6741 10.8136 20.168 11.2797C20.0659 11.3737 19.9884 11.5201 19.9879 11.62C19.9865 11.8955 19.6142 12.878 19.3393 13.3319C19.0869 13.7487 19.0574 13.846 19.1284 14.0282C19.1581 14.1041 19.3055 14.0262 19.7345 13.708C20.0463 13.4767 20.5747 13.1507 20.9088 12.9837C21.3444 12.766 21.5064 12.6512 21.4815 12.5779C21.4624 12.5218 21.3644 12.2462 21.2638 11.9654C20.8046 10.6853 21.2172 9.87165 21.9131 10.685C22.3866 11.2386 22.9545 11.3856 23.2934 11.0423C23.9156 10.4121 24.7823 9.89649 25.591 9.67538C25.9287 9.58303 26.0042 9.53805 25.9655 9.4525C25.9388 9.39357 25.9029 9.22826 25.8858 9.08521L25.8546 8.8251L25.1532 8.88091C23.9725 8.97489 23.877 8.96428 23.6485 8.71274C23.2972 8.32599 23.4459 7.9444 24.2357 7.20526C24.5311 6.92875 24.2655 6.38492 23.835 6.38492C23.8215 6.38492 23.5099 6.74936 23.1427 7.19478C22.455 8.02872 22.2934 8.14258 21.9693 8.02137C21.6015 7.88383 21.5563 7.70553 21.6097 6.60216L21.6582 5.59909L21.2906 5.52682C21.0884 5.48701 20.8684 5.43086 20.8018 5.40201C20.697 5.35654 20.6807 5.38914 20.6803 5.64605ZM27.0186 8.87301C26.7559 8.96325 26.5314 9.04655 26.5197 9.05806C26.508 9.06956 26.5663 9.27672 26.6492 9.51838C26.9183 10.3028 26.8437 13.5713 26.5488 13.9207C26.238 14.2891 26.0009 13.9159 26.096 13.2078C26.1841 12.5516 26.1573 12.5008 25.5746 12.2202C25.064 11.9743 24.4495 11.8793 23.7278 11.9349C23.0208 11.9893 22.5704 11.8883 22.0389 11.5561L21.7017 11.3454L21.7469 11.5363C22.0079 12.6388 23.0181 13.5684 24.3126 13.8974C25.1876 14.1197 25.1429 14.5935 24.2095 14.9911C23.0137 15.5005 22.4106 15.9929 22.4106 16.4599C22.4106 16.5738 22.4384 16.5966 22.5316 16.5593C22.9253 16.402 23.1749 16.3668 24.1749 16.3276C25.3995 16.2795 25.627 16.2153 26.0514 15.7978C26.4173 15.4379 26.7683 15.5333 26.7703 15.9932C26.7723 16.4593 27.2688 17.092 27.9113 17.4473C28.1016 17.5525 28.4992 17.8802 28.795 18.1754L29.3328 18.7124L29.439 18.4624C29.6044 18.0728 29.3802 17.3934 28.7485 16.3697C28.216 15.5069 28.4536 15.1838 29.3912 15.4959C30.577 15.8908 32.1508 15.6625 32.7792 15.0044L32.9393 14.8369L32.5925 14.8342C31.9441 14.8293 31.7072 14.7221 30.6098 13.9374C30.2137 13.6541 29.7187 13.5081 29.1568 13.5088C28.4475 13.5095 28.4169 13.5282 28.2281 14.0734C28.017 14.6835 27.8809 14.8186 27.6363 14.661C27.4179 14.5203 27.4148 14.5642 27.7045 13.7127C28.2078 12.2333 28.305 10.1956 27.9316 8.954C27.838 8.64312 27.7185 8.63251 27.0186 8.87301ZM2.82928 8.99082C-0.149495 9.66511 -0.404675 13.9245 2.41019 15.985L2.64848 16.1593L2.5229 16.6838C2.14601 18.2581 2.74424 19.537 4.14254 20.1462C5.05207 20.5425 5.03255 20.5257 5.31264 21.1529C5.56969 21.7285 6.12149 22.6503 6.20861 22.6497C6.23372 22.6496 6.50336 22.5532 6.80781 22.4356C7.70903 22.0872 8.28713 22.0932 10.8465 22.4773C13.3202 22.8486 13.1224 22.8955 12.3739 22.1149L11.763 21.4775L11.1535 21.5876C9.73282 21.844 8.2764 21.5395 7.48243 20.8199C7.12028 20.4916 7.37075 20.0172 7.75954 20.2949C8.67792 20.9509 8.97406 21.0444 10.1429 21.048C11.2852 21.0515 11.3288 21.0208 10.8791 20.5306C10.2993 19.8987 9.38811 18.8394 8.57517 17.8522L7.79061 16.8994L6.98784 16.8893C5.5162 16.8708 3.59039 15.9422 3.59039 15.2511C3.59039 14.8946 3.99184 14.8621 4.252 15.1976C4.70126 15.7769 5.64213 16.196 6.69724 16.2869C7.41697 16.3489 7.47157 16.4956 6.09977 14.6809C4.1936 12.1592 3.9551 11.7928 4.11002 11.6244C4.34818 11.3655 4.4804 11.4746 5.30787 12.612C6.69862 14.5236 7.72688 15.8555 7.76515 15.7946C8.00206 15.4175 7.98414 13.842 7.73636 13.2682C7.55722 12.8534 7.60144 12.6941 7.90554 12.6584C8.47803 12.5912 8.74926 14.5101 8.3694 15.94L8.22645 16.478L9.1514 17.6074C9.6601 18.2287 10.4299 19.1345 10.862 19.6204L11.6478 20.5039L11.7044 20.1989C11.8246 19.5517 11.7311 18.3014 11.5257 17.8099C11.3251 17.3295 11.3343 17.1701 11.5671 17.0975C12.1463 16.9166 12.5634 18.8614 12.2835 20.4383L12.1747 21.0508L13.0374 21.9024C13.5118 22.3708 13.9 22.7913 13.9 22.8369C13.9 22.9317 14.0001 22.9576 14.7649 23.0604C15.0693 23.1013 15.3651 23.1476 15.4222 23.1634C15.5835 23.2079 15.615 19.039 15.46 18.1561C15.1105 16.1639 13.9851 14.7236 12.2996 14.1113C11.9899 13.9987 11.9722 13.9769 11.76 13.4437C11.1054 11.7989 10.1562 11.0668 8.62264 11.024L7.80825 11.0012L7.48789 10.5816C6.50489 9.2938 4.50614 8.61127 2.82928 8.99082ZM25.628 10.2913C25.2155 10.4196 24.6342 10.7156 24.2441 10.9957L23.8982 11.2442L24.5606 11.3265C25.0158 11.383 25.3705 11.4746 25.6945 11.619C25.9539 11.7347 26.1773 11.8293 26.1911 11.8293C26.2341 11.8293 26.2184 10.4171 26.1741 10.3037C26.1246 10.1769 26.0042 10.1742 25.628 10.2913ZM21.4571 13.3615C20.982 13.5738 20.0425 14.1821 19.6256 14.5474L19.2969 14.8353V15.3768C19.2969 16.799 18.7291 18.1747 17.6065 19.4724L17.2057 19.9358L17.2522 20.4592C17.3555 21.6194 17.7816 23.3788 17.9901 23.5055C18.0297 23.5296 20.3936 23.8968 23.2431 24.3214C26.1239 24.7506 28.5098 25.1375 28.6174 25.1927C28.8903 25.3329 29.1655 25.635 29.2924 25.9337C29.4285 26.2542 29.4201 26.2551 29.9935 25.8579C32.7704 23.9344 33.7976 20.1533 32.3365 17.2331C31.8444 16.2494 31.8256 16.2335 31.2477 16.3139C30.7871 16.3781 30.0758 16.3231 29.607 16.187C29.474 16.1484 29.3591 16.1168 29.3517 16.1168C29.3443 16.1168 29.4904 16.4307 29.6763 16.8144C30.2439 17.9853 30.2602 18.5717 29.7394 19.0956C29.3294 19.508 29.0687 19.4162 28.4362 18.6364C28.3063 18.4762 27.9469 18.1846 27.6376 17.9883C27.0169 17.5945 26.4763 17.0523 26.3432 16.6901C26.2957 16.5608 26.2398 16.4646 26.2192 16.4763C25.5576 16.8503 25.3656 16.8944 24.2095 16.9381C23.3495 16.9705 22.9889 17.0117 22.7475 17.1051C21.9427 17.4164 21.5186 16.5947 22.0359 15.7264C22.2214 15.4151 22.7158 15.0507 23.4396 14.6917C23.9148 14.4561 23.9161 14.4273 23.4592 14.2535C23.0671 14.1043 22.5135 13.7535 22.176 13.4403C21.8618 13.1486 21.9194 13.1549 21.4571 13.3615ZM16.3118 20.6757L16.105 20.8791L16.1268 22.0394C16.1516 23.3552 16.1211 23.2907 16.7526 23.361C17.2744 23.419 17.2569 23.4539 17.053 22.7619C16.8553 22.0909 16.6682 21.1025 16.6678 20.7275C16.6676 20.4192 16.5849 20.4071 16.3118 20.6757ZM7.18836 22.9411C6.55526 23.1541 6.12931 23.4179 5.65826 23.8884C5.18941 24.3568 5.19689 24.3278 5.42356 24.7992C5.91157 25.8138 5.92056 26.856 5.4502 27.8827C5.18782 28.4554 5.18436 28.44 5.68344 28.9294C6.14516 29.3822 6.71274 29.7154 7.32204 29.8915C7.92055 30.0644 7.88028 30.1394 7.88028 28.8506C7.88028 27.5298 7.95335 27.3008 8.32193 27.466L8.50301 27.5471V28.7736C8.50301 29.9451 8.50903 30 8.63828 30C8.71266 30 10.7131 29.7244 13.0838 29.3876C15.4545 29.0508 17.4175 28.7751 17.446 28.7751C17.4746 28.7751 17.4979 28.4136 17.4979 27.972C17.4979 27.1472 17.5398 27.0056 17.7836 27.0056C18.0551 27.0056 18.1207 27.1851 18.1207 27.9292C18.1207 28.4501 18.1437 28.6396 18.2072 28.6417C18.2548 28.6433 19.7648 28.4365 21.563 28.1823L24.8323 27.7202V27.4605C24.8323 27.1215 24.9378 26.9375 25.1322 26.9375C25.3579 26.9375 25.455 27.0644 25.455 27.3595C25.455 27.5017 25.4825 27.6181 25.516 27.6181C25.7574 27.6181 28.3078 27.2061 28.4146 27.1499C28.8208 26.9361 28.9121 26.244 28.5775 25.9149C28.331 25.6725 28.6122 25.7289 25.0398 25.2044C23.3844 24.9613 21.9443 24.7472 21.8397 24.7287L21.6494 24.6951V25.3351C21.6494 25.9875 21.576 26.1889 21.3381 26.1889C21.0968 26.1889 21.0267 25.989 21.0267 25.3007C21.0267 24.657 21.0196 24.6247 20.871 24.5912C20.7313 24.5598 12.4788 23.3306 12.4074 23.3306C12.391 23.3306 12.3777 23.8145 12.3777 24.4059C12.3777 25.5427 12.3512 25.6445 12.055 25.6445C11.7994 25.6445 11.755 25.4459 11.755 24.3031V23.2249L10.2155 23.003C8.39791 22.741 7.81808 22.7291 7.18836 22.9411ZM1.37625 23.9431C0.890457 24.4209 2.40596 25.3723 3.65308 25.3723H4.12199L4.20751 25.0917C4.31441 24.7406 4.39205 24.795 3.01935 24.2594C1.76573 23.7702 1.58708 23.7357 1.37625 23.9431ZM14.9497 25.621C15.2136 25.8559 15.1137 27.6733 14.8309 27.78C14.4543 27.9221 14.2059 25.793 14.5746 25.5819C14.7431 25.4853 14.8044 25.4917 14.9497 25.621ZM0.1728 26.0734C-0.041487 26.2841 -0.0552562 26.4562 0.124712 26.6748L0.257006 26.8354L2.56372 26.8131C5.37415 26.7857 5.1818 26.8197 5.1818 26.3517V25.9848L3.84986 25.9846C3.11726 25.9844 2.03088 25.9644 1.43555 25.9402L0.353114 25.896L0.1728 26.0734ZM2.31034 27.76C1.25558 28.1848 1.00386 28.4768 1.37625 28.8431C1.58542 29.0488 1.73287 29.0186 3.03284 28.5044C4.44429 27.946 4.31199 28.0374 4.20696 27.6927L4.12199 27.4139L3.63135 27.4197C3.20997 27.4247 3.02329 27.4727 2.31034 27.76Z" fill="#D1174F"/>
</svg>
