<svg width="35" height="35" viewBox="0 0 35 35" fill="none" xmlns="http://www.w3.org/2000/svg">
<path fill-rule="evenodd" clip-rule="evenodd" d="M27.4369 0.113496C27.3166 0.168097 26.4807 0.954091 25.5792 1.86022L23.9402 3.50773L19.9315 3.50803C16.06 3.50824 15.9147 3.5132 15.6854 3.65317C14.9601 4.09552 14.9693 5.24032 15.7018 5.69324C15.9442 5.84305 15.9998 5.84465 20.3439 5.82446L24.7406 5.80405L25.0685 5.63208C25.4269 5.44422 28.8682 2.07943 29.0455 1.74358C29.5732 0.743924 28.4827 -0.361148 27.4369 0.113496ZM22.9005 6.98851C22.2492 7.00061 21.7171 7.01788 21.7181 7.02692C21.7192 7.03596 23.4677 12.5381 25.6039 19.2539L29.4878 31.4644L31.003 31.4842C32.2045 31.4998 32.5111 31.4847 32.4833 31.4113C32.4539 31.3335 25.4617 9.35465 24.8876 7.53539L24.6978 6.93398L24.3912 6.95023C24.2227 6.9592 23.5519 6.9764 22.9005 6.98851ZM1.56678 8.31176C0.221463 8.93621 0.254547 10.99 1.6191 11.5593C2.03937 11.7347 9.75602 11.729 10.0536 11.5531C10.5584 11.2549 10.6633 10.4685 10.257 10.029L10.0201 9.7728L6.5643 8.97303C2.75447 8.09132 2.19983 8.01791 1.56678 8.31176ZM18.9828 13.5737C17.5002 15.2734 16.1927 16.7722 16.0771 16.9043C15.8082 17.2119 15.7232 17.1691 17.2788 17.5095C18.016 17.6708 18.6733 17.8189 18.7395 17.8384C18.8886 17.8826 22.6379 13.6076 22.6071 13.4285C22.5961 13.3648 22.3826 12.6761 22.1326 11.898L21.6782 10.4833L18.9828 13.5737ZM4.37241 12.9188C4.37241 12.9832 5.46406 16.465 5.50829 16.5417C5.51514 16.5536 5.7952 16.4497 6.13078 16.3111C6.72193 16.0667 7.67089 15.8276 8.04947 15.8276C8.29367 15.8276 8.30183 15.876 7.78377 14.2522L7.3329 12.8388H5.85262C4.8262 12.8388 4.37241 12.8633 4.37241 12.9188ZM28.4936 15.2706C28.4936 15.3534 32.5832 28.1806 32.6218 28.2184C32.6952 28.2907 33.4978 27.3676 33.8422 26.8149C36.4462 22.6355 34.4659 17.0823 29.8215 15.5395C29.1904 15.3298 28.4936 15.1887 28.4936 15.2706ZM22.8823 16.6181C21.929 17.3242 21.0764 18.3311 21.3702 18.4039C21.7499 18.4981 24.27 19.0352 24.3319 19.0352C24.3691 19.0352 24.2875 18.6826 24.1507 18.2515C24.0138 17.8205 23.818 17.1972 23.7156 16.8664C23.4976 16.1624 23.4975 16.1624 22.8823 16.6181ZM7.38675 17.0272C0.720719 18.5178 1.80457 28.5133 8.63552 28.5434L9.80149 28.5485L17.9958 26.7422C22.5026 25.7487 26.2059 24.92 26.2254 24.9005C26.2781 24.8478 24.8517 20.3968 24.7527 20.3048C24.706 20.2615 21.3064 19.4906 17.1982 18.5917C8.94829 16.7868 8.66445 16.7416 7.38675 17.0272ZM9.95132 20.1636C11.3401 20.8423 11.9848 22.5907 11.3479 23.9512L11.1454 24.3838L11.4909 24.7348L11.8365 25.0858H12.5885C13.4627 25.0858 13.8153 25.1933 13.8877 25.4819C14.1478 26.5185 11.8666 26.6271 10.8539 25.6262L10.376 25.1539L9.94301 25.3567C8.58472 25.9931 6.84807 25.3683 6.17538 24.0015C5.00889 21.6312 7.58876 19.009 9.95132 20.1636ZM7.97965 21.1419C5.98336 22.0685 7.3133 25.2097 9.37059 24.4273L9.56859 24.352L8.90165 23.6717C8.17466 22.9302 8.07774 22.6913 8.38046 22.3885C8.68318 22.0857 8.92191 22.1826 9.66318 22.9099L10.3432 23.5771L10.4185 23.379C10.9675 21.9344 9.39005 20.4873 7.97965 21.1419ZM23.838 26.5494C20.8818 27.2063 21.1257 27.1137 21.4097 27.4724C22.8077 29.2382 25.0328 30.3307 27.2365 30.3335C27.6473 30.334 27.9834 30.3224 27.9834 30.3077C27.9834 30.0906 26.5937 25.9945 26.5174 25.9867C26.4621 25.981 25.2562 26.2343 23.838 26.5494ZM4.49805 30.1896C3.90792 30.8652 3.42506 31.4366 3.42506 31.4594C3.42506 31.4822 4.22637 31.5009 5.20579 31.5009H6.98653L7.71993 30.6608C8.54778 29.7125 8.56322 29.6784 8.16657 29.6784C7.63882 29.6784 6.62814 29.4162 5.82799 29.0717L5.57104 28.9611L4.49805 30.1896ZM0.145747 32.813C0.0161779 32.9426 0 33.056 0 33.8336C0 34.6112 0.0161779 34.7246 0.145747 34.8542C0.290693 34.9992 0.388634 35 17.4897 35C34.5907 35 34.6886 34.9992 34.8336 34.8542C35.0532 34.6345 35.0532 33.0328 34.8336 32.813C34.6033 32.5827 0.375955 32.5827 0.145747 32.813Z" fill="#D1174F"/>
</svg>
