<svg width="36" height="24" viewBox="0 0 36 24" fill="none" xmlns="http://www.w3.org/2000/svg">
<path fill-rule="evenodd" clip-rule="evenodd" d="M32.858 0.0895784C32.2442 0.307807 31.7629 0.969218 31.7629 1.59459V1.94192L30.8194 2.50835C29.989 3.00695 29.8394 3.07014 29.5709 3.03586C29.3522 3.00799 29.1352 3.05556 28.8034 3.20403C28.2222 3.46415 27.5731 3.6135 26.3224 3.77479C21.3499 4.41618 18.9542 7.17939 20.6286 10.3421C22.372 13.6349 26.1195 12.7962 29.2122 8.42109C29.6345 7.82366 30.2461 7.08737 30.6473 6.69336C31.0657 6.28253 31.3576 5.92864 31.3741 5.81244C31.404 5.60126 31.5338 5.49907 32.5715 4.8701L33.2596 4.45302L33.5724 4.58332C35.3451 5.32209 36.8475 2.9428 35.4508 1.60837C35.3215 1.48488 35.2158 1.32551 35.2158 1.25432C35.2158 0.437543 33.8194 -0.252219 32.858 0.0895784ZM13.0132 3.78352C8.26873 4.46615 4.98314 6.70922 3.02602 10.6018C2.3711 11.9043 1.7312 14.129 1.7312 15.1034C1.7312 15.1605 2.31457 15.1882 3.51817 15.1882H5.30506L5.30482 14.486C5.30394 12.4386 7.64111 10.5733 12.1589 9.01587C13.2171 8.65109 13.518 8.6257 13.7527 8.88157C14.4976 9.6941 14.364 10.8724 13.3953 12.0325L12.9877 12.5207L13.4117 12.6541C14.2139 12.9063 15.0194 13.9121 15.1804 14.8629L15.2355 15.1882H23.6286H32.0217L31.9657 14.8878C31.7237 13.5896 31.1941 12.861 29.6192 11.6598C28.7725 11.014 28.5831 10.9271 28.499 11.1459C28.32 11.611 26.4235 12.8926 25.4229 13.2248C20.814 14.7547 16.9901 9.4814 19.8594 5.55281C20.1944 5.09417 20.2016 5.10418 19.2765 4.74853C17.3084 3.99198 14.5345 3.56457 13.0132 3.78352ZM12.0094 10.3075C8.14964 11.7605 6.21878 13.3607 6.51902 14.8578L6.5692 15.1081H10.2946H14.02L13.967 14.8878C13.698 13.7692 12.6808 13.4425 11.1574 13.9856C10.1649 14.3395 10.1479 14.3417 9.89984 14.1471C9.36127 13.7246 9.57888 13.4096 11.0635 12.4628C12.3789 11.6239 12.9665 10.94 12.9713 10.243C12.9734 9.92602 13.0339 9.92194 12.0094 10.3075ZM0.125229 16.5496C-0.59746 17.2703 1.93597 20.0669 4.43189 21.3036C5.51231 21.839 7.21344 22.3156 8.04349 22.3156H8.3157V22.9215C8.3157 24.1012 7.39002 23.9974 17.9133 23.9974C28.5998 23.9974 27.6231 24.1074 27.6231 22.9031V22.3156H27.8937C28.6951 22.3156 30.5108 21.7859 31.6078 21.2319C33.9332 20.0577 36.4258 17.2686 35.7511 16.5957L35.5443 16.3894H17.915C0.392864 16.3894 0.284863 16.3904 0.125229 16.5496Z" fill="#D1174F"/>
</svg>
