<svg width="30" height="30" viewBox="0 0 30 30" fill="none" xmlns="http://www.w3.org/2000/svg">
<path fill-rule="evenodd" clip-rule="evenodd" d="M26.4186 0.199349C25.6587 2.38473 24.3231 4.0734 21.2026 6.79445C17.1867 10.2963 16.2859 12.1363 16.3608 16.6858L16.3795 17.8176L16.7609 17.1966C17.6364 15.7711 18.8359 14.3609 20.3246 13.0071C22.9284 10.639 23.558 9.9269 24.6269 8.14136C25.1582 7.25375 26.0989 5.42532 26.2979 4.89311C26.6226 4.02485 27.1555 4.4739 27.0113 5.4943C26.5945 8.44446 25.2471 10.823 22.1228 14.1242C20.349 15.9984 19.6978 16.812 18.9154 18.1311C18.5389 18.7659 18.4887 18.8975 18.6459 18.8371C18.8231 18.7692 19.481 18.6316 20.6667 18.4146C25.8035 17.475 28.0025 15.8239 29.2952 11.9365C30.7331 7.61207 29.9508 3.47638 27.1313 0.497207C26.5736 -0.0920745 26.5267 -0.111674 26.4186 0.199349ZM13.2236 2.4505C10.8481 2.8003 8.74327 3.72289 6.92673 5.21068C6.42786 5.61929 6.41667 5.58098 7.09048 5.77048C7.40166 5.85793 7.86093 6.02413 8.11114 6.13982C8.67414 6.40003 8.59232 6.40742 9.13507 6.04784C12.5671 3.77447 17.3022 3.75011 20.7156 5.98827L21.1813 6.29363L21.9065 5.64699C22.7755 4.87208 22.7634 4.98008 22.0362 4.48606C19.5526 2.79875 16.1681 2.017 13.2236 2.4505ZM26.045 6.36441C24.6004 9.24076 23.6075 10.5641 21.3835 12.5766C17.6605 15.9458 16.1023 18.3532 15.0678 22.3349L14.9001 22.9802L14.6692 22.186C13.4579 18.0225 11.3517 14.2936 8.42506 11.1308C7.40124 10.0244 6.37064 9.15908 7.07351 9.996C11.1285 14.8244 13.9971 22.4038 14.1879 28.7937L14.2239 30H14.9802H15.7365L15.7724 28.6447C15.8951 24.0147 16.953 20.2968 19.0311 17.1921C19.8483 15.9713 20.6055 15.093 22.4208 13.2604C24.5122 11.1491 25.8096 8.84925 26.4991 6.03122C26.7357 5.06444 26.6758 5.10834 26.045 6.36441ZM2.17803 5.81742C1.54959 5.89373 0.132658 6.16973 0.0304198 6.23579C-0.0371042 6.27946 0.00106412 6.33629 0.213044 6.50809C2.00284 7.9583 2.78741 9.38724 3.27841 12.0909C3.80521 14.992 4.63497 16.3121 6.59513 17.3678C7.73309 17.9806 9.99133 18.5608 11.2437 18.562C11.5921 18.5623 11.5939 18.6002 11.2051 17.7153C9.98323 14.9344 8.49711 12.4135 6.91405 10.4364C6.60174 10.0463 6.34617 9.67599 6.34617 9.61338C6.34617 7.96694 10.2566 12.0397 12.4789 16.0007C12.6535 16.312 12.8382 16.6336 12.8894 16.7156L12.9824 16.8645L13.0232 16.5964C13.7016 12.1353 11.1157 7.49829 7.24351 6.23234C5.99295 5.8235 3.68529 5.63448 2.17803 5.81742ZM2.63325 12.1705C1.06412 19.5267 6.08792 26.7226 13.3575 27.5315L13.7296 27.5729L13.6954 27.2823C13.4745 25.4007 13.5612 25.5943 12.8791 25.4574C8.50961 24.5805 5.07268 20.9674 4.4212 16.5658C4.35463 16.1163 4.30723 15.9806 4.13003 15.7318C3.58781 14.9708 3.23102 14.0201 2.97432 12.6518C2.77973 11.615 2.75823 11.5847 2.63325 12.1705ZM27.1028 16.2144C26.8765 16.4274 26.4478 16.7611 26.1501 16.956C25.8525 17.1508 25.5545 17.3475 25.4881 17.3931C25.4171 17.4416 25.3342 17.608 25.2875 17.7956C24.3584 21.5258 21.026 24.6524 17.1316 25.4477C16.3111 25.6153 16.423 25.4626 16.3102 26.5689C16.1979 27.6715 16.1569 27.5992 16.8388 27.5026C22.3523 26.722 26.787 22.2274 27.5133 16.6842C27.6497 15.6435 27.6767 15.6744 27.1028 16.2144Z" fill="#D1174F"/>
</svg>
