<svg width="27" height="27" viewBox="0 0 27 27" fill="none" xmlns="http://www.w3.org/2000/svg">
<path fill-rule="evenodd" clip-rule="evenodd" d="M6.69477 0.115162C6.37494 0.325811 6.3453 0.431689 6.34494 1.36552L6.34457 2.21544L6.06771 2.30473C4.39061 2.8456 3.05938 5.09221 4.05263 5.7054C4.31709 5.86865 14.1728 5.86865 14.4373 5.7054C15.4305 5.09221 14.0993 2.8456 12.4222 2.30473L12.1453 2.21544L12.145 1.36552C12.1446 0.431689 12.115 0.325811 11.7951 0.115162C11.5619 -0.0383873 6.92796 -0.0383873 6.69477 0.115162ZM0.617106 3.69968C0.406169 3.75004 0.237156 3.86956 0.114707 4.05513C-0.0394346 4.28864 -0.0376416 26.4016 0.116553 26.6352C0.367832 27.0159 -0.337963 26.9843 7.91858 26.9847L15.3197 26.9851L14.8384 26.477C12.4297 23.9348 11.0814 20.3724 11.6577 18.0738C12.216 15.8474 13.9654 14.0411 16.0345 13.5547C16.3004 13.4922 16.3113 13.4826 16.3113 13.3131C16.3113 12.2637 17.1522 11.246 18.2059 11.0203L18.4734 10.9629V7.58913C18.4734 3.81356 18.4942 4.02189 18.0947 3.78148C17.8332 3.62404 15.9579 3.58374 16.0178 3.73681C16.7254 5.54464 15.976 7.09767 14.2811 7.33582C13.7806 7.40614 4.69868 7.40503 4.20883 7.33461C2.51179 7.09061 1.76371 5.54485 2.47013 3.74198C2.50905 3.64263 1.00054 3.60823 0.617106 3.69968ZM10.6579 8.56437C11.1535 8.83459 11.1698 9.55335 10.6877 9.87088C10.5439 9.96554 10.3791 9.97017 7.13558 9.97017C3.89206 9.97017 3.72721 9.96554 3.58346 9.87088C3.03423 9.50916 3.12699 8.74125 3.74693 8.51775C4.08923 8.39438 10.4246 8.43705 10.6579 8.56437ZM14.8766 8.56611C15.2334 8.75706 15.3749 9.29024 15.1566 9.62104C14.81 10.1461 13.1721 10.1461 12.8255 9.62104C12.2893 8.80862 13.8399 8.01112 14.8766 8.56611ZM23.6242 11.4466C21.5329 11.7019 20.4734 15.0272 22.4833 15.0276C23.996 15.0279 25.0625 13.9593 25.0646 12.4412C25.0658 11.5858 24.6779 11.318 23.6242 11.4466ZM10.6579 11.7249C11.1535 11.9951 11.1698 12.7139 10.6877 13.0314C10.5439 13.1261 10.3791 13.1307 7.13558 13.1307C3.89206 13.1307 3.72721 13.1261 3.58346 13.0314C3.03423 12.6697 3.12699 11.9018 3.74693 11.6783C4.08923 11.5549 10.4246 11.5976 10.6579 11.7249ZM14.8766 11.7266C15.2334 11.9176 15.3749 12.4508 15.1566 12.7816C14.81 13.3066 13.1721 13.3066 12.8255 12.7816C12.2893 11.9692 13.8399 11.1716 14.8766 11.7266ZM18.2784 12.6088C17.6755 12.9069 17.7069 13.6441 18.3403 14.0632C18.7206 14.3148 18.9896 14.5999 19.087 14.8548C19.1988 15.1471 19.2064 15.1438 18.7105 15.0165C15.3917 14.1649 12.3308 17.2174 13.1941 20.5177C13.7831 22.7693 15.1473 24.9071 16.9544 26.41C17.8087 27.1206 18.9534 27.1966 19.7874 26.5981L20.0355 26.4201L20.1641 26.5259C21.5861 27.6951 23.5689 26.6614 25.4497 23.7705C27.4736 20.6598 27.5172 17.9392 25.5726 16.0942C25.0975 15.6434 25.1503 15.6521 24.6769 15.9464C22.3513 17.392 19.9122 16.3347 19.955 13.8997L19.9672 13.2107L19.6973 12.9989C19.0873 12.5201 18.6827 12.4089 18.2784 12.6088ZM10.6579 14.8854C11.1535 15.1557 11.1698 15.8744 10.6877 16.1919C10.4533 16.3463 3.81781 16.3463 3.58346 16.1919C3.03423 15.8302 3.12699 15.0623 3.74693 14.8388C4.08923 14.7154 10.4246 14.7581 10.6579 14.8854ZM10.6579 18.046C11.1535 18.3162 11.1698 19.0349 10.6877 19.3525C10.4533 19.5068 3.81781 19.5068 3.58346 19.3525C3.03423 18.9907 3.12699 18.2228 3.74693 17.9993C4.08923 17.876 10.4246 17.9186 10.6579 18.046ZM10.6579 21.2065C11.1535 21.4767 11.1698 22.1955 10.6877 22.513C10.4533 22.6673 3.81781 22.6673 3.58346 22.513C3.03423 22.1513 3.12699 21.3834 3.74693 21.1599C4.08923 21.0365 10.4246 21.0792 10.6579 21.2065Z" fill="#D1174F"/>
</svg>
