<svg width="21" height="34" viewBox="0 0 21 34" fill="none" xmlns="http://www.w3.org/2000/svg">
<path fill-rule="evenodd" clip-rule="evenodd" d="M3.88182 0.0456211C2.52395 0.280367 1.11173 1.39652 0.494709 2.72266C0.00649105 3.77201 0 3.82918 0 7.09312V9.96094H1.90909C2.95909 9.96094 3.81818 9.9373 3.81818 9.90848C3.81818 9.87959 3.61792 8.81357 3.37317 7.5395C3.12843 6.26543 2.93516 5.21628 2.94363 5.20811C3.00726 5.14668 4.67046 4.84852 4.7075 4.89188C4.73353 4.92236 4.8636 5.52998 4.99654 6.24219C5.12947 6.95439 5.25713 7.59302 5.28023 7.66136C5.31395 7.7613 5.65664 7.39719 7.03004 5.80198C7.96937 4.71099 8.82585 3.72034 8.93334 3.60055C9.07397 3.4437 9.11133 3.3579 9.06665 3.29428C9.03248 3.24567 8.86696 3.02992 8.69884 2.81489C8.33496 2.34952 7.84655 1.34665 7.60257 0.563988L7.42674 0L5.73383 0.00903125C4.8027 0.0140117 3.96932 0.0304805 3.88182 0.0456211ZM10.1105 5.07729L5.74382 10.1477L6.09598 11.9857L6.44808 13.8237L12.6746 7.32687C18.3229 1.43338 18.8907 0.821644 18.7892 0.7395C18.1567 0.22784 17.1947 -0.000796875 15.6921 0.00345313L14.4773 0.00690625L10.1105 5.07729ZM19.2347 3.20324L18.2649 4.217L17.9143 6.03965C17.7214 7.04212 17.5636 7.88627 17.5636 7.91556C17.5636 7.94478 18.3368 7.96875 19.2818 7.96875H21V6.12C21 4.07927 20.9444 3.66197 20.5603 2.82227C20.2249 2.08888 20.3296 2.05873 19.2347 3.20324ZM13.1858 9.51562L10.5 12.319V21.1341V29.9492H7.15909H3.81818V31.9746V34H10.0272H16.2361L16.2099 29.1689C16.1884 25.2111 16.1645 24.1711 16.078 23.4154C15.7695 20.7213 15.4335 18.9879 14.7282 16.4506L14.3252 15.0011L15.1165 10.8756C15.5517 8.60645 15.8997 6.7415 15.8897 6.73114C15.8798 6.72078 14.6631 7.9738 13.1858 9.51562ZM17.1511 10.0439C17.1365 10.0896 16.9212 11.1946 16.6727 12.4995L16.2209 14.8721L16.4189 15.5417C16.7047 16.5078 17.1416 18.345 17.3463 19.4404C17.5528 20.5456 17.513 20.5158 17.9783 19.9148C19.9328 17.3905 21 14.2451 21 11.0086V9.96094H19.0889C17.6167 9.96094 17.1717 9.98 17.1511 10.0439ZM5.87548 17.1494L3.19245 19.9551L2.99975 20.5918C2.38286 22.6304 2.00353 24.8671 1.92805 26.9111L1.88943 27.957H5.2402H8.59091V21.1504C8.59091 17.4067 8.58365 14.3438 8.57475 14.3438C8.56584 14.3438 7.35114 15.6063 5.87548 17.1494Z" fill="#D1174F"/>
</svg>
