<svg width="28" height="32" viewBox="0 0 28 32" fill="none" xmlns="http://www.w3.org/2000/svg">
<path fill-rule="evenodd" clip-rule="evenodd" d="M8.92405 1.19043C7.48587 2.71676 7.45322 2.85486 8.42134 3.31997C9.15353 3.67167 9.15714 3.62514 8.33167 4.4796C7.70174 5.13176 7.61341 5.25047 7.61638 5.44084C7.62109 5.73843 13.8493 16.2214 14.0371 16.2478C14.2091 16.272 20.387 5.74574 20.387 5.4285C20.387 5.25563 20.2748 5.10742 19.6683 4.4796C18.8429 3.62514 18.8465 3.67167 19.5787 3.31997C20.6404 2.80989 20.6605 2.85277 18.0976 0.153299L17.9521 0L16.9599 0.153299C15.5362 0.373164 12.4332 0.375383 11.0645 0.15741C10.5678 0.0783136 10.1323 0.0137049 10.0968 0.0139007C10.0613 0.0140964 9.53359 0.543496 8.92405 1.19043ZM5.45092 2.31834C3.12933 3.34249 2.95397 3.46388 2.71404 4.21294C2.65269 4.40442 -0.000322548 30.0455 2.94141e-08 30.4439C6.45449e-05 30.5505 0.0659995 30.693 0.158515 30.7865L0.316836 30.9467H1.86456C3.969 30.9467 3.55855 31.7647 4.71518 25.2656C5.87117 18.7699 5.89336 20.4751 4.54847 12.4703C3.23507 4.6532 3.25836 4.89721 3.85848 5.23794C4.09577 5.37264 4.00835 4.92442 5.25898 12.4183C6.53749 20.0794 6.47226 19.3834 6.10568 21.4512C5.77272 23.3294 5.73395 23.1354 6.53665 23.6083C7.62283 24.2481 8.00367 24.2203 9.40172 23.3991C10.2051 22.9272 10.3974 22.9065 10.4906 23.2822C10.5489 23.5175 10.4428 23.6098 9.48391 24.1582C8.12534 24.9349 7.47064 24.9702 6.38271 24.3252C5.95891 24.074 5.79975 24.0431 5.68008 24.189C5.59034 24.2984 4.24402 31.7842 4.2908 31.9136C4.35048 32.0786 9.90823 31.9868 10.5175 31.8108C11.6616 31.4803 12.6995 30.8306 13.3332 30.0483L13.5665 29.7603L13.3477 29.0981L13.129 28.4357V23.214V17.9924L13.3387 17.6488C13.4541 17.4598 13.5484 17.2435 13.5484 17.1683C13.5484 17.0931 12.0688 14.5283 10.2604 11.4689C6.39394 4.92762 6.57194 5.36925 7.42045 4.42211C7.88483 3.90374 7.88147 3.94518 7.49045 3.55583C6.97497 3.04255 6.91961 2.59003 7.30103 2.00757C7.73993 1.33727 7.63496 1.35489 5.45092 2.31834ZM20.4846 1.57776C20.4632 1.61287 20.565 1.8405 20.711 2.08353C21.0752 2.6902 21.0034 3.1638 20.4834 3.58343C20.1652 3.8403 20.1881 3.99791 20.6107 4.45963C21.3588 5.27703 21.3326 5.38948 19.7713 8.05808C19.0809 9.23807 18.5161 10.216 18.5161 10.2312C18.5161 10.2464 19.1345 10.2589 19.8903 10.2589C21.3641 10.2589 21.4193 10.2708 21.4193 10.5903C21.4193 10.9231 21.3341 10.9415 19.6266 10.9768L18.0469 11.0094L15.9255 14.6314L13.804 18.2534L13.8214 23.3438L13.8387 28.4342L13.9963 28.8851C14.5064 30.3446 16.2277 31.6298 18.0645 31.923C18.7048 32.0252 23.6733 32.0132 23.7108 31.9093C23.7565 31.7827 22.4077 24.296 22.3199 24.189C22.2039 24.0476 22.0857 24.0711 21.6366 24.3251C20.4685 24.9859 19.8449 24.9356 18.3547 24.0602C17.5693 23.5988 17.4144 23.4337 17.5416 23.1933C17.6887 22.9153 17.8358 22.9506 18.7589 23.4853L19.6411 23.9964H20.2237H20.8064L21.4622 23.6174C22.277 23.1465 22.236 23.3473 21.9001 21.4735C21.7434 20.5998 21.6147 19.7258 21.6141 19.5313C21.6132 19.2649 23.733 6.29387 23.9053 5.51197C23.9987 5.08758 24.5805 5.1281 24.5805 5.55896C24.5805 5.66436 24.0725 8.77445 23.4515 12.4703C22.8306 16.1662 22.3224 19.3318 22.3222 19.5049C22.3219 19.8439 24.1564 30.3443 24.2655 30.6283C24.3774 30.9194 24.5403 30.9467 26.1672 30.9467H27.6832L27.8415 30.7865C27.934 30.693 27.9999 30.5505 28 30.4439C28.0005 29.8667 25.3414 4.38269 25.2566 4.15173C24.994 3.4362 24.813 3.31404 22.5296 2.31103C20.7165 1.51458 20.5579 1.45774 20.4846 1.57776ZM13.2925 3.25354C13.9432 3.27899 14.8074 3.2632 15.5087 3.21301C16.4729 3.14403 16.6721 3.14514 16.7438 3.21967C16.8589 3.33929 14.2041 14.3377 14.0601 14.3377C13.9497 14.3377 11.1848 3.41304 11.251 3.2384C11.2878 3.14155 11.3552 3.13235 11.7596 3.16929C12.016 3.19265 12.7058 3.23057 13.2925 3.25354ZM15.2701 18.689C15.4614 18.8708 15.4654 19.1743 15.2791 19.375C15.0488 19.6229 14.7032 19.5677 14.5446 19.2576C14.2928 18.7649 14.8721 18.3108 15.2701 18.689ZM15.3064 24.7598C15.7 25.2202 15.0715 25.8408 14.6468 25.4112C14.4271 25.189 14.4041 25.0404 14.5553 24.822C14.7558 24.5324 15.0885 24.5048 15.3064 24.7598Z" fill="#D1174F"/>
</svg>
