<svg width="31" height="31" viewBox="0 0 31 31" fill="none" xmlns="http://www.w3.org/2000/svg">
<path fill-rule="evenodd" clip-rule="evenodd" d="M20.3623 0.119151C16.5384 1.34237 17.3667 6.87357 21.3738 6.87357C25.3323 6.87357 26.2078 1.40947 22.4522 0.144079C21.9139 -0.0372888 20.8895 -0.0494716 20.3623 0.119151ZM11.8315 6.7543C11.4239 6.83327 7.14572 9.25716 6.79341 9.60871C5.65493 10.7448 6.42119 12.6997 8.04252 12.7955C8.70232 12.8344 8.74866 12.815 10.8959 11.6038L12.7769 10.5427L13.4098 10.598L14.0427 10.6534L12.5564 12.9511C10.4636 16.1866 10.3175 16.5892 10.747 17.9363C11.1797 19.2937 11.7187 19.6825 14.6412 20.7459C15.7886 21.1634 16.7607 21.5234 16.8015 21.5458C16.8502 21.5727 16.403 22.3526 15.4985 23.8183C14.0088 26.2324 13.9466 26.3676 13.9896 27.1015C14.0983 28.9575 16.4883 29.8295 17.7496 28.4734C17.951 28.2568 21.8336 22.053 22.2355 21.3055C22.4294 20.9447 22.4036 19.9414 22.1888 19.4937C21.8275 18.7408 21.5676 18.5855 19.3023 17.7687C18.1282 17.3454 17.7764 17.1944 17.8032 17.1255C17.8224 17.0759 18.5932 15.8711 19.516 14.4482C21.3585 11.6072 21.4967 11.3382 21.5456 10.4972C21.6346 8.96433 20.7036 7.60266 19.2797 7.18364C18.0019 6.80753 13.0344 6.5212 11.8315 6.7543ZM28.4359 7.5315C28.3042 7.5793 27.0721 8.29846 25.6979 9.1297L23.1992 10.641L22.9007 10.3504C22.5195 9.97932 22.5355 9.97045 22.4951 10.5753C22.4412 11.3822 22.2188 11.9583 21.5647 12.9862C20.8864 14.0518 20.9047 13.8984 21.4012 14.3575C22.0755 14.9809 22.9819 15.1764 23.6496 14.8425C24.4924 14.421 30.1673 10.9233 30.4471 10.6529C31.8709 9.2769 30.3086 6.8522 28.4359 7.5315ZM4.58062 18.367C4.25019 18.5027 4.1467 18.9199 4.37302 19.2042L4.504 19.3688H6.16769C8.08557 19.3688 8.12698 19.3584 8.12698 18.876C8.12698 18.3547 8.07722 18.3399 6.27908 18.3247C5.41945 18.3174 4.65516 18.3365 4.58062 18.367ZM10.1205 19.0408C10.1202 19.0666 9.98202 19.7343 9.81361 20.5246L9.50732 21.9615L7.62895 24.8866C5.57313 28.0878 5.55505 28.1219 5.55353 28.8027C5.54905 30.7197 7.92607 31.7297 9.27709 30.3848C9.52528 30.1377 13.4662 24.0448 13.6331 23.6501C13.7189 23.447 14.1045 21.7661 14.1033 21.6001C14.103 21.5584 13.6757 21.3732 13.1538 21.1886C11.7622 20.6964 11.0694 20.2349 10.4643 19.397C10.1815 19.0052 10.1219 18.9435 10.1205 19.0408ZM2.05194 21.3675C1.7222 21.499 1.61789 21.9186 1.84433 22.203L1.97532 22.3676H4.02943C5.24845 22.3676 6.13058 22.3428 6.19923 22.3065C6.52954 22.1318 6.46588 21.5435 6.10036 21.3925C5.85868 21.2927 2.29463 21.2707 2.05194 21.3675ZM0.328258 24.3725C-0.0166542 24.5088 -0.113693 24.9833 0.152705 25.2307C0.296776 25.3644 0.331103 25.3665 2.3543 25.3665H4.40956L4.54705 25.2219C4.80719 24.9482 4.70693 24.4929 4.36031 24.3734C4.10871 24.2868 0.547306 24.2859 0.328258 24.3725Z" fill="#D1174F"/>
</svg>
