<svg width="34" height="34" viewBox="0 0 34 34" fill="none" xmlns="http://www.w3.org/2000/svg">
<path fill-rule="evenodd" clip-rule="evenodd" d="M16.7057 0.176498C16.2126 0.421288 16.1942 0.498861 16.1721 2.42734L16.1522 4.15281L15.8392 4.36427C14.108 5.53358 14.0961 5.3492 16.2476 10.7338C18.131 15.4477 18.119 15.4213 18.4527 15.5807C18.8298 15.7609 25.0278 15.7386 25.3253 15.5559C25.6483 15.3575 25.6324 15.3928 27.4803 10.7837C29.6471 5.37917 29.6476 5.37106 27.8617 4.33243L27.6152 4.18895L27.5955 2.46697C27.5769 0.841473 27.568 0.734399 27.4365 0.555852C26.9668 -0.0819696 26.11 -0.0959155 25.6964 0.527491C25.5511 0.746601 25.5453 0.810162 25.5453 2.18691V3.61851H25.1565C24.1367 3.61851 22.5994 4.32954 22.0227 5.06794L21.8863 5.24253L21.4209 4.8086C20.6434 4.08361 19.5453 3.61851 18.6111 3.61851H18.2223L18.2212 2.22727C18.2197 0.278276 17.7583 -0.346002 16.7057 0.176498ZM8.91501 14.7521C6.34591 15.0951 4.7489 17.0124 4.74344 19.7602L4.74137 20.7826L2.7442 20.7841C-0.638019 20.7866 -0.470655 20.1276 0.985219 27.7115C2.29949 34.5576 2.03121 33.9452 3.7308 33.9785L4.80795 33.9996L4.78638 29.2516C4.77446 26.6403 4.78538 23.6816 4.81054 22.6767L4.85641 20.8497H5.82251H6.78861L6.73922 24.2691L6.68975 27.6885H9.42702H12.1642V24.2691V20.8497H13.1295H14.0948V27.4248V34L15.1766 33.9787C16.8991 33.9448 16.611 34.6065 17.9566 27.5942C19.3861 20.145 19.5593 20.8282 16.2333 20.7958L14.1443 20.7754L14.178 20.2595C14.3999 16.8556 11.9965 14.3406 8.91501 14.7521ZM16.4964 16.7692C16.4236 16.8931 16.1241 17.4018 15.8308 17.8996L15.2976 18.8047L16.9431 18.8433C18.2083 18.873 18.6514 18.9064 18.8612 18.9876C20.4887 19.6179 21.2229 20.9951 20.8545 22.7263C20.7384 23.272 20.6591 23.2304 21.8061 23.2267C23.9367 23.2199 26.8817 22.543 29.3066 21.5026C29.9554 21.2243 30.059 21.553 28.4673 18.8425L27.1255 16.5578L26.8471 16.8162C25.9719 17.6288 25.9025 17.6396 21.7092 17.6169L18.189 17.5979L17.7415 17.3843C17.4953 17.2669 17.1442 17.0298 16.9612 16.8575L16.6286 16.5441L16.4964 16.7692ZM10.6014 17.071C11.6286 17.5608 12.0543 18.3418 12.0858 19.7937L12.1072 20.7826H9.47881H6.85039L6.80186 20.196C6.59821 17.7344 8.57795 16.1061 10.6014 17.071ZM30.3052 23.1716C27.5381 24.4161 24.2897 25.1687 21.6808 25.1699L20.3793 25.1706L20.1692 26.2761C19.9228 27.5724 19.8623 27.4233 20.6667 27.5024C23.6236 27.793 28.4655 26.4811 31.4577 24.5788L31.7332 24.4036L31.3854 23.8103C31.194 23.4841 30.9926 23.153 30.9377 23.0746L30.8378 22.9321L30.3052 23.1716ZM32.3043 26.3211C28.7407 28.4852 23.8534 29.7564 20.3626 29.427C19.947 29.3878 19.5986 29.3653 19.5882 29.377C19.4949 29.4825 18.7608 33.685 18.8283 33.7271C19.5341 34.1663 24.0449 34.0036 26.2443 33.4594C29.8686 32.5628 34 29.9956 34 28.6402C34 28.334 32.8641 26.0768 32.7114 26.0796C32.7062 26.0796 32.523 26.1884 32.3043 26.3211ZM6.72776 31.1917C6.75186 32.0491 6.77157 33.0297 6.7717 33.3708L6.77184 33.9909H9.46802H12.1642V31.8119V29.6329H9.42409H6.68403L6.72776 31.1917Z" fill="#D1174F"/>
</svg>
