<svg width="32" height="33" viewBox="0 0 32 33" fill="none" xmlns="http://www.w3.org/2000/svg">
<path fill-rule="evenodd" clip-rule="evenodd" d="M15.2787 0.0370413C15.1693 0.0524902 14.8449 0.0967334 14.5578 0.135323C13.6308 0.259835 11.9313 0.771293 11.9313 0.925782C11.9313 0.955365 12.6173 1.72768 13.4557 2.64206L14.9801 4.30456L14.9803 5.23906L14.9804 6.17362L15.4879 6.99761C16.0993 7.99061 15.9783 7.98982 16.5923 7.00458L17.1015 6.18743L17.1016 5.24603L17.1018 4.30456L18.6262 2.64206C20.3792 0.730205 20.2785 0.91316 19.6982 0.693259C18.3882 0.19679 16.3199 -0.110282 15.2787 0.0370413ZM11.4322 1.52704C11.4153 1.57227 11.2871 1.94942 11.1473 2.36523L10.8933 3.12124L11.4647 4.92909C12.1818 7.19818 12.1157 7.02048 12.2734 7.10417C12.5807 7.26727 12.6895 7.1515 13.4954 5.80449C14.1675 4.68106 14.2583 4.49521 14.1892 4.38542C14.0986 4.24152 11.5317 1.44487 11.4902 1.44487C11.4753 1.44487 11.4492 1.48188 11.4322 1.52704ZM19.2709 2.84934C18.5567 3.62468 17.9362 4.3164 17.892 4.38654C17.7963 4.53853 19.2697 7.06276 19.4957 7.13389C19.8877 7.25728 19.8968 7.23973 20.6071 4.97636L21.1892 3.12124L20.9265 2.33236C20.7821 1.89847 20.6426 1.52007 20.6167 1.49154C20.5907 1.46294 19.9851 2.07393 19.2709 2.84934ZM8.31624 4.16756C5.51113 5.08562 4.57936 5.69082 3.61684 7.22001C3.19811 7.88523 0 14.8802 0 15.1308C0 15.5875 0.172208 15.6954 2.1874 16.5009C4.70537 17.5075 4.49796 17.5725 5.47142 15.4731C6.12698 14.0592 6.28818 13.8201 6.52482 13.9101C6.75344 13.9971 6.76106 14.265 6.76106 22.1934C6.76106 29.0191 6.77445 30.1398 6.8581 30.3003C7.45394 31.4429 12.4915 32.994 15.6267 33C15.6927 33.0001 15.7095 30.509 15.7095 20.7632V8.52633L15.0467 7.46009C14.4054 6.42863 14.3838 6.38136 14.3838 6.00993C14.3838 5.53285 14.3807 5.53568 13.7283 6.61414C13.1445 7.57928 12.9485 7.75592 12.4616 7.75592C11.7481 7.75592 11.6032 7.52294 10.8973 5.24143C10.5109 3.99256 10.3475 3.55013 10.2742 3.55401C10.2195 3.5569 9.33842 3.83301 8.31624 4.16756ZM21.1847 5.24175C20.4791 7.52248 20.3338 7.75592 19.6203 7.75592C19.1334 7.75592 18.9374 7.57928 18.3536 6.61414C17.7007 5.53496 17.6981 5.53252 17.6981 6.01262C17.6981 6.3876 17.6781 6.43132 17.0352 7.46324L16.3724 8.52725V20.7637C16.3724 27.4937 16.3947 33 16.4221 32.9999C19.6282 32.9826 24.6241 31.4503 25.2238 30.3003C25.3074 30.1398 25.3208 29.0106 25.3208 22.1234C25.3208 14.2203 25.3223 14.1313 25.4534 14.0012C25.7429 13.7141 25.8751 13.8825 26.6141 15.4804C27.5798 17.5682 27.3606 17.4997 29.8859 16.5016C32.6476 15.41 32.5973 15.9849 30.3533 11.1707C27.7134 5.50734 27.6173 5.40689 23.5963 4.11378C22.6296 3.8029 21.8093 3.54875 21.7735 3.54895C21.7376 3.54914 21.4727 4.31087 21.1847 5.24175ZM18.5266 9.59664C19.4976 10.0629 19.0433 11.5379 17.9892 11.3418C17.0402 11.1652 16.9511 9.80635 17.8707 9.5334C18.1608 9.44735 18.2294 9.45392 18.5266 9.59664ZM18.6328 13.3616C18.934 13.5611 19.1054 13.8997 19.0663 14.2174C18.9488 15.1729 17.6827 15.3668 17.2913 14.4893C16.9253 13.6687 17.8822 12.8643 18.6328 13.3616ZM18.586 17.0428C19.2684 17.4308 19.2277 18.3322 18.5122 18.6757C18.1493 18.85 17.8497 18.8048 17.5319 18.528C16.6987 17.8025 17.6256 16.4967 18.586 17.0428ZM18.5572 20.7383C19.1476 21.0411 19.2498 21.8317 18.7523 22.2468C18.0011 22.8737 16.8993 22.0837 17.2931 21.2008C17.5144 20.7046 18.0847 20.496 18.5572 20.7383ZM18.6833 24.5007C19.5944 25.1627 18.717 26.5871 17.7148 26.0732C17.0557 25.7351 17.0428 24.8423 17.6914 24.4589C17.9795 24.2886 18.4169 24.3071 18.6833 24.5007Z" fill="#D1174F"/>
</svg>
