<svg width="35" height="19" viewBox="0 0 35 19" fill="none" xmlns="http://www.w3.org/2000/svg">
<path fill-rule="evenodd" clip-rule="evenodd" d="M12.4691 0.0320782C12.321 0.0686786 8.15927 1.77101 7.99816 1.86084C7.92826 1.89981 8.02549 1.9799 8.33733 2.14022C8.81979 2.38828 9.5418 3.05028 9.74132 3.42749C9.89765 3.72308 9.84237 3.7237 10.5926 3.41789C10.9327 3.27928 11.2229 3.1779 11.2374 3.19265C11.2848 3.24094 10.798 6.82583 10.7385 6.86625C10.5153 7.0178 7.58368 9.54705 7.58368 9.58797C7.58368 9.61636 7.92962 9.78475 8.35236 9.96218C9.01302 10.2395 9.07786 10.28 8.81357 10.2506C8.64446 10.2317 7.69847 10.1618 6.71128 10.0951C4.57148 9.95056 4.73929 10.0227 4.91475 9.32265C4.99224 9.01378 5.05558 8.74581 5.05558 8.7271C5.05558 8.70845 4.92493 8.61451 4.76519 8.51835C4.19131 8.17301 3.41887 7.2214 3.31269 6.72904C3.22263 6.31154 3.15041 6.5006 2.66645 8.42086C1.9212 11.3778 1.92407 11.3472 2.35235 11.8568C2.68688 12.2548 2.77365 12.2687 6.18297 12.4712C9.84135 12.6884 9.90442 12.6984 9.03563 12.9188C8.26477 13.1144 8.16228 12.8457 9.77015 14.8449C10.5218 15.7793 11.1367 16.5562 11.1367 16.5712C11.1367 16.5862 8.82293 16.6095 5.99507 16.623L0.853453 16.6475L0.580144 16.8086C-0.18799 17.2612 -0.194823 18.4704 0.568461 18.8908C0.826532 19.0329 33.586 19.038 34.1282 18.896C35.1497 18.6284 35.3219 17.1722 34.3864 16.7113C34.1412 16.5905 33.7811 16.5854 26.9278 16.6051L19.7268 16.6259L20.2252 16.0103C20.4994 15.6716 21.156 14.8534 21.6843 14.1919C22.2126 13.5304 22.7075 12.9745 22.784 12.9565C22.8605 12.9386 24.9633 12.5004 27.4567 11.9828C32.8237 10.8687 32.6246 10.9339 32.9756 10.1759C33.5408 8.95547 32.5724 7.69888 31.2356 7.91813C30.8478 7.98173 24.1272 9.37254 22.1374 9.80103C20.8211 10.0844 20.9724 9.95342 18.7447 12.7391C17.6686 14.0849 16.7587 15.2172 16.7229 15.2555C16.6871 15.2937 17.0419 14.5411 17.5116 13.5828L18.3654 11.8407L18.4084 10.9039C18.432 10.3887 18.468 9.77515 18.4883 9.54038L18.5252 9.11349L19.0152 9.30519L19.5052 9.49682L19.7611 9.20074C20.1071 8.80044 20.3204 8.7264 22.3625 8.29826C23.3338 8.09459 24.1424 7.91375 24.1594 7.89642C24.229 7.82552 17.517 5.24832 17.1831 5.21771C16.5015 5.15529 15.9319 5.4657 15.6329 6.06258C15.4823 6.3631 15.426 6.92686 15.3213 9.18279L15.2705 10.2771L14.2114 9.02289C12.9362 7.51267 13.0369 8.19716 13.528 4.37854C13.9886 0.796649 13.9885 0.803538 13.5608 0.367952C13.257 0.0585192 12.8582 -0.0641542 12.4691 0.0320782ZM6.01216 2.73779C3.61011 3.39228 3.25515 6.76445 5.4721 7.86901C7.81101 9.03437 10.2647 6.56608 9.12514 4.19415C8.55707 3.01174 7.25031 2.40045 6.01216 2.73779Z" fill="#D1174F"/>
</svg>
