<svg width="26" height="28" viewBox="0 0 26 28" fill="none" xmlns="http://www.w3.org/2000/svg">
<path fill-rule="evenodd" clip-rule="evenodd" d="M11.6369 0.124098C5.79118 1.18322 3.51649 8.47957 7.70568 12.7343C11.5973 16.6869 18.3926 15.0877 20.0735 9.82377C21.8016 4.41187 17.1961 -0.883166 11.6369 0.124098ZM5.5292 14.178C1.85434 16.0484 0 19.3539 0 24.0341C0 26.2965 0.20919 26.8774 1.26744 27.5537C1.95331 27.9921 1.5474 27.9681 8.26485 27.9681H13.4646C13.761 27.9681 13.9087 27.6092 13.6982 27.4006C10.9094 24.6373 10.3692 20.2831 12.4178 17.079C12.6343 16.7403 12.6334 16.7349 12.3622 16.7349C10.6968 16.7349 8.35703 15.7262 6.77645 14.3268C6.43734 14.0266 5.94909 13.9643 5.54545 14.1697L5.5292 14.178ZM18.1576 15.0417C11.2758 16.5688 11.2981 26.4091 18.1866 27.8568C23.1919 28.9088 27.358 23.9806 25.5836 19.107C24.5178 16.1796 21.2044 14.3657 18.1576 15.0417ZM19.9588 18.8449C20.2822 19.0636 20.3768 19.2934 20.4076 19.9352C20.423 20.2563 20.6799 20.5151 21.0011 20.5306C22.7065 20.613 22.7065 22.2857 21.0011 22.3681C20.6799 22.3836 20.423 22.6423 20.4076 22.9635C20.3255 24.6745 18.6583 24.6745 18.5762 22.9635C18.5608 22.6423 18.3039 22.3836 17.9827 22.3681C16.2773 22.2857 16.2773 20.613 17.9827 20.5306C18.3039 20.5151 18.5608 20.2563 18.5762 19.9352C18.6168 19.0889 18.898 18.7138 19.4919 18.7138C19.679 18.7138 19.8258 18.755 19.9588 18.8449Z" fill="#DEDEDE"/>
</svg>
