<svg width="28" height="28" viewBox="0 0 28 28" fill="none" xmlns="http://www.w3.org/2000/svg">
<path fill-rule="evenodd" clip-rule="evenodd" d="M8.20323 0.222816C1.74102 1.68263 -1.53837 7.8623 0.703857 14.3543C1.35971 16.2528 1.37864 18.1455 0.759861 19.9402C0.369803 21.0713 0.308658 20.9922 1.60943 21.037C2.86252 21.0801 3.57296 20.8668 4.49812 20.1694C5.2651 19.5911 5.4166 19.5683 6.22504 19.9085C15.0766 23.6329 23.8549 14.3878 19.6201 5.80106C17.5742 1.65267 12.6102 -0.772701 8.20323 0.222816ZM22.3012 8.14551C22.3012 8.20456 22.354 8.73851 22.4187 9.33217C23.1687 16.2249 17.544 22.3779 10.4608 22.4131C9.45325 22.4181 8.62872 22.4385 8.62861 22.4584C8.6273 22.6578 9.62618 23.9245 10.372 24.6692C13.3628 27.6554 17.8595 28.5443 21.7323 26.9148C22.6128 26.5443 22.6942 26.5526 23.398 27.0852C24.4461 27.8784 24.8161 27.999 26.2023 27.999C27.6974 27.999 27.6288 28.0777 27.2133 26.8387C26.6045 25.0228 26.6383 23.4073 27.3308 21.2193C28.672 16.9822 27.9867 13.1722 25.3698 10.3172C24.4285 9.29029 22.3012 7.78477 22.3012 8.14551ZM5.6078 9.25519C6.4833 9.94365 6.37895 11.235 5.41069 11.6943C3.83832 12.4402 2.58184 10.1464 4.06704 9.24119C4.53629 8.95503 5.23426 8.96148 5.6078 9.25519ZM11.0304 9.20576C11.6852 9.59231 11.9263 10.6212 11.4992 11.2063C10.5162 12.5531 8.42155 11.4848 9.01233 9.93808C9.32658 9.11577 10.2875 8.76705 11.0304 9.20576ZM16.6245 9.27651C16.8575 9.43299 17.0535 9.69051 17.1498 9.96695C17.6865 11.5059 15.4801 12.5584 14.632 11.1679C13.8412 9.87181 15.3618 8.4284 16.6245 9.27651Z" fill="#DEDEDE"/>
</svg>
