<svg width="28" height="28" viewBox="0 0 28 28" fill="none" xmlns="http://www.w3.org/2000/svg">
<path fill-rule="evenodd" clip-rule="evenodd" d="M12.1366 0.113365C3.44406 1.31862 -2.02617 10.0669 0.708691 18.3895C2.40622 23.5555 7.01938 27.3051 12.4411 27.9258L13.0892 28L14.4088 27.969L14.8495 27.9587C15.4343 27.945 16.017 27.8829 16.5916 27.7731C22.5485 26.6348 27.1045 21.821 27.9119 15.812L28 15.1565V14.0016V12.8467L27.9119 12.1913C27.2838 7.51751 24.4089 3.52157 20.1632 1.42112L20.1186 1.39905C19.6076 1.14628 19.0793 0.930243 18.5376 0.752577L18.4142 0.712092C16.442 0.065235 14.0969 -0.158437 12.1366 0.113365ZM20.4899 7.17523C20.5808 7.24302 20.7131 7.37612 20.784 7.47094C20.8675 7.58279 20.9121 7.71896 20.9108 7.85857L20.9101 7.93526C20.9083 8.12849 20.8736 8.31999 20.8074 8.50152L19.2598 12.7433L17.6949 17.0325C17.6404 17.182 17.5538 17.3177 17.4412 17.4302C17.3286 17.5427 17.1928 17.6292 17.0432 17.6836L12.7538 19.2425C10.2697 20.1453 8.13274 20.8979 8.00493 20.915C7.85341 20.9354 7.69926 20.9107 7.56165 20.8441L7.49104 20.8099C7.31015 20.7224 7.16174 20.5753 7.07416 20.3945L7.02979 20.3029C6.97077 20.181 6.95241 20.0434 6.9774 19.9104C6.99851 19.7976 7.76157 17.6566 8.67299 15.1524L10.2635 10.7826C10.3074 10.662 10.3773 10.5524 10.4682 10.4617C10.5591 10.371 10.6687 10.3011 10.7893 10.257L15.1348 8.66821L19.3525 7.12606C19.5576 7.05106 19.776 7.01908 19.994 7.03209L20.1186 7.03952C20.2529 7.04754 20.382 7.09472 20.4899 7.17523ZM13.4453 13.1435C13.3304 13.2209 13.1825 13.3765 13.1166 13.4893C13.038 13.6237 12.9966 13.7765 12.9966 13.9322V14.0016V14.0711C12.9966 14.2267 13.038 14.3796 13.1166 14.514C13.1825 14.6268 13.3304 14.7824 13.4453 14.8598C13.5814 14.9515 13.7419 15.0004 13.906 15.0003L14.0041 15.0002L14.1156 15.0001C14.2716 15 14.4245 14.9571 14.5576 14.8759C14.6696 14.8077 14.817 14.6603 14.8853 14.5484C14.9665 14.4154 15.0095 14.2625 15.0095 14.1066V14.0016V13.8966C15.0095 13.7408 14.9665 13.5879 14.8853 13.4548C14.817 13.3429 14.6696 13.1956 14.5576 13.1273C14.4245 13.0462 14.2716 13.0032 14.1156 13.0031L14.0041 13.0031L13.906 13.003C13.7419 13.0029 13.5814 13.0518 13.4453 13.1435Z" fill="#DEDEDE"/>
</svg>
