<svg width="28" height="28" viewBox="0 0 28 28" fill="none" xmlns="http://www.w3.org/2000/svg">
<path fill-rule="evenodd" clip-rule="evenodd" d="M21.6228 1.21564C21.0951 1.88424 20.6413 2.46894 20.6142 2.51499L20.5649 2.59875L21.2432 3.77789L21.9216 4.95702L22.0165 4.93276C22.0687 4.91942 22.7795 4.75087 23.596 4.55824L25.0806 4.20798L24.7938 3.82888C24.636 3.62044 24.4451 3.29142 24.3695 3.09783L24.2321 2.74582L24.2425 1.96492L24.2529 1.18408L24.1276 0.925251C23.9305 0.517904 23.1448 0.00633652 22.7088 0.00144835L22.5821 0L21.6228 1.21564ZM4.05511 2.05997L3.73626 2.18253L3.44196 2.47691L3.14766 2.77135L3.02175 3.10785L2.8959 3.44434V3.86225V4.28016L3.02175 4.61666L3.14766 4.95316L3.44178 5.24735L3.7359 5.54155L4.0723 5.66749L4.40871 5.79338H4.8265H5.2443L5.58071 5.66749L5.91711 5.54155L6.21123 5.24735L6.50534 4.95316L6.63126 4.61666L6.75711 4.28016V3.86225V3.44434L6.63126 3.10785L6.50534 2.77135L6.21123 2.47715L5.91711 2.18296L5.58071 2.05701L5.2443 1.93113L4.80913 1.93426L4.37402 1.9374L4.05511 2.05997ZM17.8279 2.19599C17.3857 2.38923 5.01649 9.5712 4.83628 9.73933C4.58283 9.97577 4.42735 10.2747 4.37456 10.6269L4.33342 10.9013L4.4031 11.1604C4.44147 11.3029 4.83996 12.0546 5.2887 12.8308L6.1045 14.2421L6.35144 14.4535C6.63397 14.6954 6.89949 14.7849 7.33025 14.7835L7.63191 14.7825L7.87324 14.6721C8.21145 14.5174 20.5608 7.38185 20.793 7.20702C20.8974 7.12839 21.0535 6.92218 21.1399 6.7488L21.2969 6.43349V6.12245C21.2969 5.35242 19.6568 2.54915 19.0345 2.25562L18.7329 2.11338L18.3709 2.11513C18.1718 2.11609 17.9274 2.15248 17.8279 2.19599ZM24.8091 9.78447L24.4902 9.90704L24.1959 10.2014L23.9016 10.4958L23.7757 10.8323L23.6499 11.1688V11.5868V12.0047L23.7757 12.3412L23.9016 12.6777L24.1957 12.9719L24.4899 13.266L24.8263 13.392L25.1627 13.5179H25.5805H25.9983L26.3347 13.392L26.6711 13.266L26.9652 12.9719L27.2593 12.6777L27.3852 12.3412L27.5111 12.0047V11.5868V11.1688L27.3852 10.8323L27.2593 10.4958L26.9652 10.2017L26.6711 9.90746L26.3347 9.78151L25.9983 9.65563L25.5631 9.65877L25.128 9.66191L24.8091 9.78447ZM15.2902 12.3163C14.8746 12.9163 14.3052 13.2685 13.4483 13.4555C12.4532 13.6728 12.0643 14.1656 12.0672 15.2057L12.0681 15.5395L13.3458 16.0777C14.0486 16.3737 14.6324 16.5895 14.6431 16.5574C14.7304 16.2955 15.1838 15.6702 15.5089 15.3634L15.9048 14.9897L16.3684 14.7517C16.6233 14.6207 16.8252 14.4967 16.817 14.476C16.7461 14.2958 15.5266 12.0715 15.4983 12.0707C15.4779 12.07 15.3843 12.1806 15.2902 12.3163ZM2.47358 12.4037C1.72698 12.5139 1.00162 12.6211 0.861591 12.6419L0.607114 12.6798L0.545214 12.9028C0.511187 13.0253 0.483797 13.3429 0.48434 13.6084L0.485305 14.0912L0.598064 14.3396C0.728319 14.6264 0.957518 14.814 1.50828 15.0843C2.20505 15.4263 2.59038 15.8335 2.87135 16.5251C2.94779 16.7132 3.03213 16.8672 3.05874 16.8672C3.11279 16.8672 5.24882 14.6308 5.24882 14.5741C5.24882 14.5111 3.89505 12.1899 3.86235 12.1969C3.84516 12.2005 3.22018 12.2936 2.47358 12.4037ZM17.5866 15.2474C16.6707 15.4429 15.9227 16.0105 15.5313 16.8068C15.3404 17.1953 15.1485 17.8884 15.2139 17.9537C15.229 17.9689 16.4027 17.5941 17.822 17.1207L20.4026 16.26L20.1037 15.9802C19.4673 15.3849 18.3992 15.0739 17.5866 15.2474ZM18.205 17.935L15.3242 18.8989V18.9763C15.3242 19.0188 15.418 19.2406 15.5326 19.4691L15.741 19.8846L16.1597 20.299L16.5784 20.7136L19.6164 19.7031C21.2873 19.1474 22.6743 18.6749 22.6986 18.653C22.7228 18.6313 22.3699 18.2439 21.9143 17.7923L21.0858 16.9712L18.205 17.935ZM20.3811 20.3872C18.7326 20.9405 17.3693 21.4082 17.3515 21.4263C17.3338 21.4445 17.692 21.8315 18.1475 22.2862L18.9756 23.113L21.8369 22.1588C23.4106 21.6339 24.709 21.1719 24.7223 21.1321C24.7356 21.0923 24.6628 20.8808 24.5605 20.6621L24.3745 20.2646L23.9416 19.8181C23.4181 19.2781 23.9285 19.1965 20.3811 20.3872ZM6.90793 19.7588C5.46638 20.0928 4.38904 21.0567 3.94 22.4145L3.77873 22.9019V23.6563V24.4106L3.94 24.8981C4.22386 25.7563 4.76479 26.4622 5.53202 26.9755L5.97708 27.2732L6.47264 27.4371L6.96827 27.601H7.72241H8.47655L8.9639 27.4397C9.82188 27.1558 10.5276 26.6147 11.0407 25.8473L11.3384 25.4021L11.5022 24.9064L11.6661 24.4106V23.6563V22.9019L11.5048 22.4145C11.221 21.5563 10.68 20.8504 9.9128 20.3371L9.46773 20.0394L8.97217 19.8809L8.47655 19.7225L7.87324 19.6987L7.26992 19.6749L6.90793 19.7588ZM0.69206 22.2801L0.691879 22.9019L0.56271 23.1433C0.49164 23.2761 0.335985 23.5461 0.21677 23.7433L0 24.1018L0.000543029 24.4373L0.00114624 24.7727L0.175142 25.0745C0.270827 25.2404 0.419845 25.442 0.5063 25.5224L0.663524 25.6687L1.78351 25.2238C3.09825 24.7016 2.95883 24.8343 2.87762 24.1826L2.81162 23.6529L2.88172 23.1266C2.92028 22.8371 2.96818 22.5444 2.98815 22.4764L3.02441 22.3525L1.94961 22.0306C1.35848 21.8536 0.833718 21.6974 0.783583 21.6835L0.692302 21.6582L0.69206 22.2801ZM13.6047 22.1095L12.5187 22.5485L12.5304 22.6951C12.5368 22.7757 12.5605 23.0724 12.5831 23.3546L12.6242 23.8675L12.5565 24.2899C12.5192 24.5223 12.4734 24.7681 12.4546 24.8362L12.4204 24.9601L13.4952 25.2819C14.0863 25.4589 14.6111 25.6152 14.6612 25.6291L14.7525 25.6543L14.7528 25.0325L14.7529 24.4106L14.8821 24.1692C14.9532 24.0365 15.1088 23.7665 15.228 23.5693L15.4448 23.2108V22.888V22.5652L15.3238 22.3279C14.9367 21.569 14.9404 21.5695 13.6047 22.1095ZM22.2924 22.9487C19.3376 23.9338 19.6515 23.7837 19.9367 24.0759C20.9862 25.151 22.9042 25.1197 24.0195 24.0092L24.3621 23.6681L24.5438 23.285C24.707 22.9411 24.9088 22.1748 24.8496 22.1238C24.8368 22.1128 23.6861 22.484 22.2924 22.9487ZM25.2309 23.8839C24.8246 24.5679 24.0234 25.2737 23.4313 25.4692C23.3158 25.5073 23.2295 25.5573 23.2395 25.5802C23.3541 25.8428 24.535 27.999 24.5648 28C24.5868 28.0007 24.7074 27.8617 24.8325 27.6911C24.9578 27.5205 25.2206 27.2627 25.4166 27.1184L25.773 26.856L26.1443 26.7426C26.3485 26.6802 26.6378 26.6112 26.7871 26.5892C27.3614 26.5049 27.7297 26.1633 27.9079 25.5499L28 25.2332L27.9818 24.8852L27.9636 24.537L26.7295 24.0061C26.0509 23.7142 25.4906 23.4752 25.4845 23.4752C25.4785 23.4752 25.3643 23.6591 25.2309 23.8839Z" fill="#D1174F"/>
</svg>
