<svg width="25" height="32" viewBox="0 0 25 32" fill="none" xmlns="http://www.w3.org/2000/svg">
<path fill-rule="evenodd" clip-rule="evenodd" d="M11.6169 0.0744887C8.15905 0.473987 6.09902 2.5776 5.399 6.4239L5.22889 7.35856L5.22784 10.0882L5.22678 12.8178L5.43691 13.7833C5.70447 15.0124 6.15034 16.3769 6.67325 17.5666C6.8992 18.0808 7.10224 18.5435 7.12448 18.5949L7.1648 18.6884L6.08274 18.6897L5.00068 18.691L4.49677 18.797C3.04472 19.1023 1.83084 19.909 0.819629 21.2406L0.365535 21.8385V22.1446V22.4508L0.657361 22.7262C1.93576 23.9329 4.53679 24.9186 7.18635 25.2005L8.0154 25.2886L9.37203 25.2444C10.7847 25.1984 11.9689 25.0528 12.6129 24.8461C15.8116 23.8191 19.2136 19.0006 20.3157 13.9361L20.5265 12.9674L20.5252 10.1256L20.5237 7.28377L20.3916 6.53593C19.999 4.31431 19.3063 2.90081 18.0309 1.71892L17.4481 1.1789L16.6885 0.813209C15.2357 0.113676 13.485 -0.141264 11.6169 0.0744887ZM14.1956 6.02658C15.393 6.25586 17.1272 6.99391 17.3846 7.38361L17.5097 7.57312L17.5383 8.87661C17.6205 12.6142 16.8482 15.3975 15.3389 16.8032L14.9139 17.199L14.3664 17.4563L13.8188 17.7136L13.2499 17.7916L12.6811 17.8695L12.1194 17.7913L11.5577 17.7131L11.0079 17.455L10.4581 17.1969L10.0048 16.7679C8.51381 15.3567 7.75659 12.5891 7.83874 8.85118L7.86678 7.57312L7.99189 7.38361C8.1378 7.1627 9.05262 6.6763 9.86193 6.38928C11.3635 5.85681 12.7175 5.74352 14.1956 6.02658ZM20.3381 17.8044C20.3381 17.8529 20.1207 18.3324 19.855 18.87C18.4228 21.7679 16.1684 24.3895 14.2251 25.4173L13.7979 25.6432L13.7472 25.9113C13.5694 26.8514 14.1122 27.1075 15.3101 26.6488C18.1452 25.5634 19.8105 23.8322 20.4244 21.3325L20.587 20.6702L20.5945 19.6232C20.6023 18.5152 20.5242 17.7162 20.408 17.7162C20.3696 17.7162 20.3381 17.7559 20.3381 17.8044ZM21.6631 21.3245C21.6482 21.376 21.5626 21.6872 21.4727 22.0163C20.7519 24.6546 18.5546 26.7792 15.4015 27.8865L14.7232 28.1247L14.2676 28.0904C13.3502 28.0214 12.68 27.381 12.5419 26.4414L12.4888 26.0802L12.3632 26.128C12.0098 26.2626 10.6428 26.4049 9.33435 26.4432L7.86467 26.4864L7.0733 26.396C5.08743 26.1691 3.45458 25.7052 1.8989 24.9256C1.37343 24.6622 0.919643 24.4468 0.89055 24.4468C0.674018 24.4468 0.163097 26.7585 0.0690373 28.1636L0 29.1956L0.0664744 30.2052C0.103028 30.7604 0.134381 31.2931 0.13619 31.3888C0.137999 31.4845 0.23854 31.6612 0.359732 31.7814L0.580033 32H2.58309H4.58615V29.5363V27.0726L4.76266 26.869L4.9391 26.6654H5.1891H5.43909L5.61553 26.869L5.79204 27.0726V29.5363V32H12.2737H18.7554V29.6032V27.2064L18.8649 26.9963C18.9251 26.8807 19.0743 26.7451 19.1963 26.6949L19.4182 26.6037L19.6429 26.719C19.9659 26.8848 19.9613 26.8437 19.9613 29.5382V32H22.1044H24.2474L24.4368 31.9286C24.541 31.8892 24.6772 31.7799 24.7395 31.6855L24.8527 31.5139L24.9264 30.3515L25 29.189L24.9311 28.162C24.7462 25.4048 23.9696 23.4518 22.4206 21.848C21.8213 21.2275 21.7127 21.1525 21.6631 21.3245Z" fill="#D1174F"/>
</svg>
