<svg width="29" height="30" viewBox="0 0 29 30" fill="none" xmlns="http://www.w3.org/2000/svg">
<path fill-rule="evenodd" clip-rule="evenodd" d="M26.221 0.30041C21.5089 2.67158 17.869 7.81354 14.3227 17.1088C13.6773 18.8004 13.0798 20.3034 12.9949 20.4487C12.2627 21.7016 10.7931 22.8052 8.87916 23.5394C8.18361 23.8062 8.07188 23.8394 5.08605 24.6664C2.18676 25.4694 2.17749 25.4725 1.63597 25.8248L1.23684 26.0845L0.967729 26.4127C0.344442 27.1726 0.000825841 28.275 0.000235942 29.5166L0 30H6.49078H12.9815L13.3452 29.8783C14.0621 29.6384 14.6511 29.1162 14.9593 28.4473L15.0942 28.1543L15.8127 24.6973C17.0802 18.5977 17.7743 16.9643 20.1588 14.4694C21.91 12.637 23.052 11.9862 26.971 10.5875L27.485 10.404L27.779 9.87486C29.5419 6.70207 29.4068 4.0524 27.3022 0.521191L26.9915 0L26.9012 0.00175781C26.8515 0.00275391 26.5454 0.137109 26.221 0.30041ZM26.044 12.7202C24.9092 13.1373 24.0476 13.5435 23.3779 13.9771L22.8811 14.2987L22.9157 14.5468C22.9347 14.6833 23.1354 16.4923 23.3616 18.5668L23.7729 22.3387V24.0307V25.7227H24.9822H26.1915V23.9359V22.1491L26.6339 17.3594C27.11 12.2048 27.0976 12.3609 27.0321 12.3683C27.0078 12.3711 26.5631 12.5295 26.044 12.7202ZM23.7729 28.7109V30H24.9822H26.1915V28.7109V27.4219H24.9822H23.7729V28.7109Z" fill="#D1174F"/>
</svg>
