<svg width="38" height="28" viewBox="0 0 38 28" fill="none" xmlns="http://www.w3.org/2000/svg">
<path fill-rule="evenodd" clip-rule="evenodd" d="M4.98527 0.0575993C2.74804 0.381121 0.799377 2.13692 0.176114 4.39051C-0.0587048 5.23969 -0.0587048 22.8006 0.176114 23.6498C0.724136 25.6314 2.34273 27.285 4.28247 27.8449C4.79444 27.9927 5.49138 28 19 28C32.5086 28 33.2056 27.9927 33.7175 27.8449C35.6573 27.285 37.2759 25.6314 37.8239 23.6498C38.0587 22.8006 38.0587 5.23969 37.8239 4.39051C37.2818 2.43046 35.697 0.795786 33.7589 0.19782C33.2911 0.0535444 5.93546 -0.0798341 4.98527 0.0575993ZM13.416 6.54729C16.3119 7.31783 17.3728 10.9538 15.3587 13.2052C13.1745 15.6467 9.23723 14.5702 8.5336 11.339C7.8991 8.42566 10.5816 5.79306 13.416 6.54729ZM26.3174 7.35517C27.6584 7.72692 27.6219 9.57835 26.2677 9.87501C25.732 9.99242 22.8514 9.99242 22.3157 9.87501C20.9882 9.58418 20.9213 7.7363 22.2246 7.36108C22.6256 7.24561 25.9053 7.24088 26.3174 7.35517ZM31.0445 12.8574C31.4771 13.0992 31.6918 13.4849 31.6918 14.0201C31.6918 14.5553 31.4771 14.9411 31.0445 15.1829C30.7197 15.3644 23.137 15.4544 22.3438 15.2862C20.9904 14.9992 20.9032 13.1542 22.2246 12.7653C22.7824 12.6011 30.7345 12.6842 31.0445 12.8574ZM8.41661 14.8072C10.7136 17.0148 14.1455 17.0094 16.4501 14.7945L16.934 14.3294C17.0252 14.2418 17.1728 14.2549 17.2471 14.3573C20.2743 18.5307 18.2396 21.5791 12.4267 21.5791C6.76576 21.5791 4.56194 18.4718 7.44641 14.5571C7.7759 14.11 7.66006 14.0802 8.41661 14.8072ZM31.0445 18.2635C31.4771 18.5053 31.6918 18.891 31.6918 19.4262C31.6918 19.9615 31.4771 20.3472 31.0445 20.589C30.7197 20.7705 23.137 20.8606 22.3438 20.6923C20.9904 20.4053 20.9032 18.5603 22.2246 18.1714C22.7824 18.0072 30.7345 18.0903 31.0445 18.2635Z" fill="#DEDEDE"/>
</svg>
