<svg width="30" height="28" viewBox="0 0 30 28" fill="none" xmlns="http://www.w3.org/2000/svg">
<path fill-rule="evenodd" clip-rule="evenodd" d="M21.9232 0.180618L21.8249 0.361145L21.8496 3.28917L21.8744 6.21711H22.3428H22.8112L22.8359 3.28917L22.8606 0.361145L22.7624 0.180618L22.6641 0H22.3428H22.0214L21.9232 0.180618ZM24.4693 0.110526L24.3569 0.221053V3.24211V6.26316H24.8253H25.2937V3.24211V0.221053L25.1813 0.110526C25.0363 -0.0319608 24.6142 -0.0319608 24.4693 0.110526ZM26.8882 0.180618L26.7899 0.361145L26.8147 3.28917L26.8394 6.21711H27.3078H27.7762L27.8009 3.28917L27.8257 0.361145L27.7274 0.180618L27.6291 0H27.3078H26.9865L26.8882 0.180618ZM6.60446 0.742C4.68458 0.937355 2.01085 1.65458 1.01868 2.24046L0.523392 2.53289L0.261649 3.02695L0 3.521V4.04315V4.56529L0.359545 5.62146L0.71909 6.67763L0.887715 6.70987C0.980458 6.72755 1.58798 6.49167 2.23784 6.18561C3.6303 5.52982 4.94482 5.12943 6.39621 4.91897L7.44759 4.76654L8.89963 4.81876L10.3517 4.87108L11.2603 5.06146C12.4603 5.31291 13.594 5.71237 14.8233 6.31685C16.0507 6.92033 16.0119 6.93414 16.4458 5.73714C16.853 4.61328 16.9345 4.03596 16.7683 3.45238L16.6502 3.03763L16.289 2.63412L15.9278 2.2307L15.0911 1.90142C12.6507 0.941131 9.23416 0.474342 6.60446 0.742ZM7.35391 5.26603C5.51121 5.3772 3.78609 5.85172 2.09863 6.71189L1.07967 7.23128L1.04931 7.38647C1.03254 7.47186 1.21681 8.1037 1.4586 8.79053L1.89834 10.0395H2.10172C2.21357 10.0395 2.47147 9.92112 2.67485 9.77642C2.87823 9.63172 3.24228 9.44051 3.48388 9.35154L3.92305 9.1898L4.60804 9.22517L5.29294 9.26054L5.76134 9.48445C6.01896 9.60759 6.42675 9.90675 6.6676 10.1492L7.10547 10.59L7.29994 11.1011L7.49443 11.6122V12.2039V12.7957L7.30397 13.2963C7.19914 13.5716 6.94499 13.985 6.73918 14.215L6.36483 14.633L5.80097 14.9101L5.23711 15.1871L4.57797 15.251L3.91884 15.3148L3.87106 15.4372C3.82703 15.5499 4.97414 19.0736 5.1305 19.3062C5.16834 19.3625 5.49435 19.429 5.85502 19.4541L6.51078 19.4998L7.00354 19.7091L7.49639 19.9182L8.0017 20.4548L8.50692 20.9914L8.67189 21.4793C9.08652 22.7052 8.68651 24.0466 7.67504 24.8224C7.16495 25.2136 7.16486 25.2378 7.67233 26.6659L8.12995 27.9539H8.39769H8.66543L9.05823 26.8487C9.27435 26.2408 9.77779 24.806 10.1771 23.6603L10.903 21.577L10.6912 20.8604L10.4794 20.1436L10.6029 20.0667C10.6708 20.0243 10.8437 19.9891 10.9869 19.9882L11.2475 19.9868L11.2991 19.8547C11.3275 19.782 11.2773 19.4257 11.1876 19.0629L11.0246 18.4033L11.1282 17.8552C11.3282 16.7978 12.1699 15.5367 12.9353 15.1475L13.1795 15.0234L13.3436 14.6009C13.5224 14.1406 13.4917 13.9302 13.2345 13.8554C12.2925 13.5815 11.4719 12.8485 11.1429 11.9872L10.9442 11.4671L10.9773 10.7763L11.0103 10.0855L11.2382 9.62739C11.529 9.04271 12.1022 8.47939 12.6961 8.19451L13.1621 7.97107L13.8376 7.93616L14.5131 7.90125L14.9149 8.03158C15.4513 8.20547 15.6134 8.15491 15.7414 7.77359L15.8489 7.45343L15.7357 7.31924C14.7397 6.13937 10.42 5.08126 7.35391 5.26603ZM10.3985 6.699C10.3985 6.83476 9.01579 9.57895 8.94741 9.57895C8.77541 9.57895 7.49443 8.86983 7.49443 8.7745C7.49443 8.61875 8.69054 6.26371 8.87237 6.06136L9.01242 5.90551L9.70547 6.24271C10.0867 6.42812 10.3985 6.63351 10.3985 6.699ZM8.52585 7.55088L7.9632 8.6543L8.33399 8.84036C8.53793 8.94259 8.72726 9.02632 8.75461 9.02632C8.78206 9.02632 9.05767 8.52978 9.3671 7.9228L9.92974 6.81938L9.55895 6.63333C9.35501 6.53109 9.16568 6.44737 9.13833 6.44737C9.11088 6.44737 8.83527 6.94391 8.52585 7.55088ZM22.0469 6.86654L21.9912 7.0094L22.2038 7.23192C22.3208 7.35433 22.6144 7.51911 22.8563 7.59813C23.0982 7.67716 23.4189 7.86763 23.5689 8.02154L23.8416 8.30136L23.8885 12.0487L23.9353 15.7961L24.1017 16.0954L24.268 16.3947L24.5233 16.3956C24.6636 16.3959 24.9985 16.4224 25.2675 16.4541L25.7565 16.5118L25.7827 12.4067L25.8089 8.30145L26.0855 8.01767C26.2376 7.86155 26.5238 7.69107 26.7216 7.63875C26.9192 7.58643 27.2128 7.42774 27.374 7.28617L27.667 7.02874L27.6074 6.87621L27.5479 6.72368H24.8253H22.1027L22.0469 6.86654ZM13.2831 8.41354C12.3444 8.67272 11.6351 9.42025 11.4165 10.3807L11.3009 10.8885L11.409 11.3954C11.6167 12.3689 12.2717 13.1176 13.139 13.3731L13.5074 13.4816L13.6545 13.3904L13.8016 13.2992L14.5798 11.0712C15.5074 8.41603 15.513 8.45655 14.1985 8.33543L13.7242 8.29178L13.2831 8.41354ZM3.85392 9.67538C3.12583 9.82091 2.24833 10.4977 2.24833 10.9137C2.24833 10.9929 2.5274 11.8645 2.86859 12.8506L3.48884 14.6436L3.87565 14.7461L4.26245 14.8487L4.77629 14.7894L5.29013 14.7301L5.75993 14.4707C6.349 14.1456 6.79238 13.5861 6.98958 12.9193L7.14209 12.4034L7.08851 11.9584C6.89824 10.3795 5.44929 9.3567 3.85392 9.67538ZM19.3663 14.7325C18.2223 15.092 17.9603 15.4789 18.5941 15.8727L19.014 16.1334L19.5337 15.8835L20.0533 15.6336L20.6827 15.678L21.3123 15.7224L21.687 15.9124C21.8931 16.0168 22.2031 16.247 22.3758 16.4238L22.6899 16.7455L23.1721 16.5845L23.6543 16.4234L23.6833 16.2773C23.8813 15.2814 20.9536 14.2337 19.3663 14.7325ZM14.0788 15.0547C13.1188 15.3496 12.2601 16.0976 11.8187 17.0234L11.5695 17.5461L11.5772 18.3289L11.585 19.1118L11.7847 19.5493L11.9844 19.9868H12.503H13.0216L13.0374 19.8717C13.0461 19.8084 13.0571 19.3421 13.0618 18.8355L13.0705 17.9145L13.3163 17.3968C13.7526 16.4781 14.477 15.8496 15.491 15.5099L15.9257 15.3643V15.238C15.9257 14.919 14.8635 14.8136 14.0788 15.0547ZM8.99003 15.6674C9.73891 15.8753 10.3891 16.0799 10.435 16.1223L10.5181 16.1992L10.3426 16.8647C10.2461 17.2307 10.1157 17.5807 10.053 17.6423L9.93892 17.7545L8.45905 17.3407C7.64516 17.1132 6.94115 16.8921 6.89468 16.8495L6.81009 16.7719L7.02471 16.0307L7.23943 15.2895H7.43381C7.5408 15.2895 8.24106 15.4595 8.99003 15.6674ZM7.42707 16.1406C7.2976 16.6175 7.16505 16.5238 8.50552 16.9032C9.8963 17.2969 9.79343 17.3021 9.91456 16.8328C10.0403 16.3458 10.0939 16.3842 8.80595 16.0388C7.46932 15.6803 7.55373 15.674 7.42707 16.1406ZM15.6714 15.8782C14.7696 16.1676 14.1545 16.6688 13.7541 17.4405L13.5587 17.8169L13.5099 18.4149L13.4611 19.0127L13.9566 18.5866C15.4 17.3452 17.5844 17.0106 19.1427 17.7923C19.5994 18.0214 19.6446 17.9713 19.4449 17.457C19.2394 16.9282 18.6307 16.3106 18.0359 16.0274L17.5728 15.8071L16.8195 15.7793L16.0662 15.7516L15.6714 15.8782ZM19.6494 16.2632C19.3375 16.4296 19.3385 16.4096 19.6186 16.8849C19.7434 17.0966 19.9163 17.5184 20.003 17.8224C20.0897 18.1263 20.2355 18.4518 20.3271 18.5457L20.4937 18.7163L20.782 18.3044C21.0769 17.883 21.9683 17.0395 22.1187 17.0395C22.4609 17.0395 21.9681 16.4816 21.4311 16.261L21.0841 16.1184L20.4956 16.1221L19.9071 16.1258L19.6494 16.2632ZM23.3843 16.9577C22.4798 17.1665 21.4133 17.9571 21.0044 18.7219L20.819 19.0688L21.0656 19.5271L21.3123 19.9853L21.8744 19.9857L22.4364 19.9862L22.7443 19.4008C22.9136 19.0789 23.2719 18.6001 23.5406 18.3369L24.029 17.8584L24.6145 17.5744L25.2 17.2905V17.0729V16.8553L24.474 16.8645C24.0747 16.8696 23.5843 16.9115 23.3843 16.9577ZM25.3405 17.721C24.3096 18.0415 23.2711 18.9572 23.0059 19.7796L22.939 19.9868H23.5688H24.1984L24.5197 19.6178C24.6964 19.4148 25.0378 19.1351 25.2781 18.9961L25.7152 18.7434H26.371H27.0268L27.4562 18.9916C28.0217 19.3184 28.5066 19.8573 28.7125 20.3874L28.8791 20.8162L28.8318 21.3958C28.78 22.0305 28.6024 22.4432 28.1717 22.9291L27.8905 23.2463L28.2549 23.5494C28.838 24.0344 29.1671 23.8502 29.6832 22.75L29.9208 22.2434L29.9605 21.444L30 20.6447L29.8036 20.0164L29.6072 19.3882L29.2538 18.9354C28.3766 17.8113 26.7115 17.2946 25.3405 17.721ZM16.1476 17.9138C15.1685 18.1231 14.255 18.6987 13.7779 19.4069C13.3909 19.9811 13.3946 19.9868 14.1498 19.9868H14.8095L15.2973 19.6291C16.0016 19.1127 16.3548 18.9597 16.9691 18.905L17.5137 18.8564L17.9141 18.9667C18.8576 19.2267 19.7244 20.1794 20.0062 21.2659L20.1587 21.8542L20.0954 22.2791C19.9221 23.4427 18.5804 24.7759 17.5822 24.7762L17.4119 24.7763L17.4591 24.9375C17.4851 25.0261 17.5591 25.279 17.6236 25.4993L17.7409 25.9001L18.0483 25.851C18.8316 25.726 19.8615 25.0253 20.4842 24.1937L20.8922 23.6489L21.0897 23.0094L21.2873 22.37L21.2484 21.5238L21.2096 20.6776L20.8878 20.0381L20.5661 19.3986L20.0961 18.9266L19.626 18.4546L19.1108 18.2161C18.1878 17.789 17.2017 17.6884 16.1476 17.9138ZM25.3334 19.4572C25.086 19.6219 24.867 19.8084 24.8466 19.8717L24.8096 19.9868H26.4264H28.0431L27.8159 19.7444C27.6911 19.6111 27.4202 19.4255 27.2141 19.332L26.8394 19.1619L26.3113 19.1599L25.7833 19.1579L25.3334 19.4572ZM16.7439 19.3483C16.3392 19.4442 15.6853 19.7556 15.5986 19.8934L15.5399 19.9868L17.2082 19.9848L18.8766 19.9828L18.6424 19.7946C18.1291 19.3824 17.3611 19.2018 16.7439 19.3483ZM5.47084 20.0239L5.4106 20.1782L6.1384 22.27C7.06659 24.9376 7.07099 24.9427 7.76797 24.1642L8.15103 23.7363L8.29118 23.2724C8.36818 23.0174 8.43123 22.6579 8.43123 22.4737C8.43123 22.2895 8.36818 21.93 8.29118 21.6749L8.15103 21.2111L7.76451 20.7793C7.28093 20.2392 6.77281 19.9802 6.07461 19.9179L5.53107 19.8695L5.47084 20.0239ZM11.098 20.7007C11.1333 20.8399 11.6266 22.4253 12.1944 24.2237L13.2268 27.4934L13.5004 27.7467L13.774 28H20.1759H26.5779L26.8127 27.786C26.9419 27.6683 27.114 27.3678 27.1953 27.1183C28.2394 23.9104 28.2105 24.1071 27.7099 23.6055L27.3157 23.2105L27.6997 22.8191C27.9109 22.6038 28.1588 22.2826 28.2506 22.1053L28.4176 21.7829L28.419 21.2264C28.4197 20.9203 28.3888 20.6198 28.3503 20.5586L28.2804 20.4474H24.9025H21.5246L21.5898 20.6546C21.6256 20.7686 21.6779 21.1795 21.706 21.5677L21.757 22.2736L21.5483 22.9493C21.0016 24.7189 19.1633 26.3421 17.706 26.3421H17.4325L17.2421 25.7137C17.1374 25.3681 17.026 24.9589 16.9946 24.8044L16.9375 24.5235L17.5842 24.3304C19.391 23.7908 20.0949 22.4553 19.4316 20.8254L19.2778 20.4474H15.1559H11.0339L11.098 20.7007Z" fill="#D1174F"/>
</svg>
