<svg width="28" height="29" viewBox="0 0 28 29" fill="none" xmlns="http://www.w3.org/2000/svg">
<path fill-rule="evenodd" clip-rule="evenodd" d="M4.31407 0.167826C2.94781 0.865809 1.9764 2.13841 1.65361 3.65332L1.55706 4.10645L1.55684 4.78613L1.55656 5.46582L1.67686 6.04061C1.83065 6.77547 2.11227 7.59171 2.53869 8.53863L2.87665 9.28918L2.84351 9.42239L2.81037 9.55561L2.31279 9.9824C2.03914 10.2171 1.72039 10.5259 1.60447 10.6685L1.39373 10.9278L1.45663 11.9068C1.5246 12.9644 1.61452 13.5017 1.791 13.904L1.90339 14.1602H2.05908H2.21478L2.61261 13.7495C3.08491 13.262 3.59148 12.5045 4.18567 11.3971C4.42438 10.9522 4.66978 10.5612 4.73094 10.5282L4.84221 10.4682L5.0443 10.5064C5.36305 10.5667 5.61557 10.7249 6.02481 11.1207C6.81272 11.8827 7.90685 12.4043 8.71756 12.4043H8.93594L8.76238 12.1499C8.51104 11.7815 8.16168 11.0175 8.0499 10.5918L7.9533 10.2236L7.95397 9.71387L7.95465 9.2041L8.04575 8.89258C8.09579 8.72124 8.15325 8.52668 8.17342 8.46018L8.21004 8.33937L7.73408 8.26795L7.25806 8.19652L6.61995 8.22858C5.94022 8.26268 5.52273 8.35432 4.9742 8.58966C4.14052 8.94746 4.0224 8.85956 3.63086 7.58984C3.3298 6.61359 3.16198 5.85794 3.0852 5.13374L3.01628 4.48294L3.08637 4.03984C3.28492 2.78496 3.88209 1.99075 5.12321 1.33083L5.62596 1.06354L5.73493 0.885746L5.84389 0.708008L5.82856 0.481445L5.81328 0.254883L5.56266 0.127441L5.31205 0L4.97291 0.00226562L4.63377 0.00453125L4.31407 0.167826ZM15.2493 2.4727C12.7461 2.77284 11.1687 3.72429 10.2697 5.47619C10.0006 6.00051 10.0013 6.01948 10.2918 6.15106C10.4226 6.2103 10.7448 6.39484 11.0078 6.56114L11.486 6.86348L11.551 6.81602C12.2899 6.27691 12.6864 6.09329 13.3018 6.00532L13.6767 5.95174L14.0577 6.00617C14.7202 6.10087 14.9629 6.25862 14.9629 6.59472V6.77852L14.4827 7.35915C14.2186 7.67849 13.9174 8.10029 13.8135 8.29644L13.6245 8.6531L13.8321 8.90028C13.9463 9.03622 14.1776 9.30039 14.3462 9.4873L14.6528 9.82715L16.1306 9.81163L17.6083 9.79605L18.1419 9.85915C18.7778 9.93437 19.6901 10.1648 20.5009 10.455L21.0907 10.6661L21.6804 10.6714L22.2702 10.6768L22.6794 10.4563L23.0886 10.2358L23.5638 9.79078L24.039 9.3457H24.2046H24.3702L24.5256 9.48045L24.6809 9.61526L24.7017 10.0044C24.713 10.2184 24.6833 10.6533 24.6356 10.9708L24.5489 11.548L24.3786 11.9903L24.2083 12.4326L23.9288 12.8069C23.4376 13.4647 22.7516 13.894 21.7972 14.1408L21.2592 14.28L20.5376 14.3139L19.816 14.3477L18.9142 14.2722L18.0124 14.1969L17.8151 14.3059C17.7066 14.3659 17.5942 14.4538 17.5653 14.5011L17.5129 14.5873L17.7918 15.2658C17.9453 15.639 18.086 15.989 18.1046 16.0435L18.1384 16.1426H18.4523C19.0433 16.1426 20.0223 15.8924 21.2823 15.4193L21.5861 15.3052L21.7465 15.3616C22.6972 15.6958 21.1526 18.7492 19.6424 19.5209L19.3719 19.6591L19.5521 19.8884C19.8147 20.2228 20.3233 20.2026 21.4839 19.8115C23.9476 18.9812 25.2019 17.4482 25.5824 14.8022L25.6706 14.1885L25.7254 12.0645C25.8256 8.18667 26.3496 6.35831 27.8571 4.62686C28.0948 4.3538 28.0652 4.33346 27.5441 4.41162C26.4073 4.58211 25.6512 5.05755 24.7864 6.14551C23.7239 7.48228 22.7968 8.08545 21.6457 8.18876L21.2592 8.22348L20.8589 8.13773C19.8891 7.92997 19.2435 7.3238 19.0072 6.39897L18.9135 6.03223L18.9755 5.62668C19.0858 4.90587 19.4037 4.32831 20.0674 3.64375L20.4611 3.23763L19.9053 3.06126C18.4707 2.60598 16.3616 2.33937 15.2493 2.4727ZM9.01036 8.9917L8.90628 9.31738L8.91167 9.77051L8.91707 10.2236L9.04018 10.5918C9.10792 10.7943 9.24014 11.1001 9.33405 11.2715C9.48458 11.5462 9.62398 11.7417 10.2926 12.6157C10.3775 12.7268 10.4471 12.8795 10.4471 12.9552V13.0927L10.2829 13.2583L10.1187 13.4238L9.53867 13.4227C7.85467 13.4195 6.64944 12.9761 5.5211 11.9449L5.15416 11.6096L4.82176 12.2123C4.3321 13.1002 3.73241 13.9607 3.28627 14.4154L2.8926 14.8167L2.58671 14.9699L2.28077 15.123H2.0019H1.72298L1.48944 14.985C1.04375 14.7216 0.748312 14.0843 0.600762 13.0678C0.556502 12.763 0.5073 12.5005 0.491461 12.4846C0.447201 12.4399 0.176083 13.2344 0.0840819 13.6787L0.00196583 14.0752L0.000954849 14.7997L0 15.5243L0.0891932 15.9609C1.16266 21.2142 10.2579 28.0932 17.2156 28.914L17.9447 29H19.0981H20.2516L20.952 28.9142C23.6983 28.5776 27.7465 27.1547 27.7465 26.5259C27.7465 26.2853 27.0555 25.9903 26.1738 25.8544L25.6402 25.7722L24.6854 25.7743C24.1602 25.7754 23.4674 25.7984 23.1458 25.8252L22.5611 25.8741L22.4347 25.8159C22.3651 25.784 22.1826 25.5634 22.029 25.3257L21.7499 24.8936L21.2666 24.4257C20.4772 23.6616 19.2321 22.9182 17.671 22.2789C17.3276 22.1382 16.9913 21.9681 16.9237 21.9007L16.8007 21.7783L16.6272 20.9004C15.554 15.4714 12.8963 10.9764 9.53193 8.89972C9.32366 8.7712 9.14449 8.66602 9.13382 8.66602C9.12314 8.66602 9.06759 8.8126 9.01036 8.9917ZM5.55199 20.2915C6.5785 21.3009 7.55732 22.158 8.50929 22.8809C8.8491 23.139 9.18397 23.4024 9.25351 23.4662L9.37988 23.5823V23.7891V23.9959L9.25351 24.1149C9.18397 24.1803 9.06349 24.2497 8.98565 24.2691L8.84422 24.3046L8.49559 24.0685C7.53154 23.4157 5.71353 21.8413 4.61973 20.7119L3.98785 20.0596V19.8809V19.7022L4.15203 19.5367L4.31621 19.3711H4.46612H4.61597L5.55199 20.2915ZM12.468 25.3179C13.3681 25.7325 14.4306 26.1187 15.2774 26.3389C15.5657 26.4139 15.758 26.5698 15.8075 26.7685L15.8414 26.9053L15.7587 27.0667C15.7132 27.1556 15.6002 27.2598 15.5078 27.2984L15.3396 27.3686L14.6442 27.1641C13.3002 26.7686 11.7032 26.0986 11.444 25.8216L11.2896 25.6564V25.5113V25.3663L11.4537 25.2007C11.6733 24.9793 11.7531 24.9885 12.468 25.3179Z" fill="#D1174F"/>
</svg>
