<svg width="40" height="30" viewBox="0 0 40 30" fill="none" xmlns="http://www.w3.org/2000/svg">
<path fill-rule="evenodd" clip-rule="evenodd" d="M17.8267 0.0843478C15.1291 0.291582 12.3217 0.984968 9.87391 2.0485C9.01695 2.42083 9.04302 2.31616 9.63673 2.99915C9.90334 3.3059 10.1246 3.56449 10.1285 3.57387C10.1323 3.58317 10.511 3.43543 10.9699 3.24547C12.4479 2.63377 14.1081 2.1563 15.7083 1.88285L16.5656 1.73636L16.9956 1.34268C17.4787 0.900386 18.149 0.471455 18.6738 0.268599C18.867 0.193945 19.0584 0.102952 19.0992 0.0664461L19.1733 0L18.9041 0.0111003C18.756 0.0172759 18.2712 0.0501866 17.8267 0.0843478ZM20.9829 1.01905C19.698 1.22206 18.6013 1.68336 17.8982 2.31655L17.4793 2.69373L17.2968 3.08623L17.1144 3.47866V3.83043V4.1822L17.2969 4.57306C17.7009 5.43827 18.6847 6.09836 20.1726 6.50274L20.8201 6.67863H22.1469H23.4738L24.1372 6.49993C24.502 6.40159 25.054 6.19967 25.3638 6.0513L25.927 5.78145L26.3879 5.35392L26.8489 4.92648L27.0242 4.51834L27.1994 4.11029L27.1565 3.69308L27.1135 3.27588L26.9143 2.93552C26.4763 2.18686 25.4306 1.5299 24.1558 1.20236L23.3957 1.00717L22.4201 0.976603C21.8835 0.959874 21.2367 0.978949 20.9829 1.01905ZM27.4114 1.46573L27.9379 1.99339L28.1644 2.47829L28.3908 2.96319L28.8591 3.13423C31.084 3.94683 33.4324 5.45367 35.106 7.1425L36.0457 8.09081L36.6443 8.99158C40.6026 14.9476 38.0095 21.9977 30.4921 25.7184L29.5186 26.2004L29.8522 26.5942C30.0357 26.8107 30.2631 27.0805 30.3573 27.1936L30.5289 27.3993L31.4341 26.9375C36.0465 24.5842 39.1893 20.7268 39.8678 16.5864L40 15.7796L39.9596 14.3976L39.9191 13.0156L39.7172 12.2148C38.6495 7.98066 35.3672 4.41719 30.4819 2.18843C29.512 1.74589 27.2728 0.938846 27.0135 0.938299L26.885 0.938064L27.4114 1.46573ZM22.6347 2.00066L22.8103 2.19757V2.43123V2.66496L22.6187 2.8568L22.4272 3.04871H22.1469H21.8667L21.6751 2.8568L21.4835 2.66496V2.44428C21.4835 1.80554 22.2107 1.52537 22.6347 2.00066ZM6.25343 2.55419C2.88114 4.86809 0.602764 8.34244 0.0924087 11.9489L0 12.602L0.043941 14.0205L0.0878039 15.439L0.243041 16.1104C2.49714 25.8577 15.6597 32.1063 28.1176 29.3432L29.0152 29.1441L29.1896 28.9823C29.2855 28.8933 29.3853 28.7066 29.4113 28.5676L29.4587 28.3148L29.364 28.1376C29.2508 27.9256 7.84803 2.88689 7.46739 2.52105L7.20304 2.26699H6.93752H6.67192L6.25343 2.55419ZM14.9305 3.4108C13.4672 3.73959 11.1032 4.5149 11.1032 4.66593C11.1032 4.68899 15.0254 9.28574 19.8192 14.881L28.5353 25.0541L28.708 25.0406C28.8029 25.0332 29.3032 24.8154 29.8197 24.5567C31.7193 23.6051 32.7369 22.8886 34.0532 21.5755L35.0327 20.5983L35.5173 19.869C38.7295 15.0347 37.106 9.48282 31.4346 5.90707C30.7664 5.48572 29.058 4.61082 28.6835 4.4981L28.5078 4.44525V6.08241C28.5078 6.9828 28.4864 7.8269 28.4602 7.95815L28.4125 8.19689L29.3772 8.20001L30.342 8.20314L30.9749 8.32384C33.2052 8.74894 34.8695 9.88751 35.465 11.3955L35.6417 11.8431L35.6719 13.8626L35.702 15.8821L35.6121 16.3989C35.5627 16.6832 35.4312 17.1112 35.3198 17.35L35.1173 17.7841L34.5239 18.3739L33.9306 18.9638L33.1119 19.3674C29.488 21.1537 24.5372 20.0735 23.1691 17.1978L22.9274 16.6897V14.1793V11.6689L21.7957 11.6253L20.664 11.5817L19.8836 11.3819L19.1031 11.1821L18.3164 10.7931L17.5297 10.404L16.9713 9.8861L16.4128 9.36822L16.1189 8.77293L15.8251 8.17773L15.786 5.70249L15.747 3.22725L14.9305 3.4108ZM20.4437 3.38094C20.6778 3.64149 20.7136 3.81026 20.5948 4.09496L20.4881 4.35066L20.2444 4.45182L20.0006 4.55297L19.7569 4.45182L19.5131 4.35066L19.4064 4.09496C19.2877 3.81026 19.3234 3.64149 19.5575 3.38094L19.7157 3.20505H20.0006H20.2856L20.4437 3.38094ZM24.737 3.375L24.9176 3.54502V3.83707V4.1292L24.6775 4.33159C24.0547 4.85652 23.2688 4.0694 23.7929 3.44559L23.995 3.20505H24.2756H24.5564L24.737 3.375ZM7.16526 4.49137L7.35687 4.68321V4.92922V5.17522L6.19895 6.32029L5.04111 7.46543L4.52264 8.25208C3.54564 9.73429 3.05518 11.0736 2.86717 12.7721L2.81628 13.232L2.63162 13.417L2.44696 13.6019H2.20415C1.87229 13.6019 1.6984 13.4943 1.58422 13.218L1.48759 12.9844L1.5761 12.3183C1.94628 9.53175 3.48733 6.82895 5.86639 4.79374L6.4441 4.29946H6.70892H6.97373L7.16526 4.49137ZM17.1136 7.17228L17.1144 7.77812L17.2968 8.17054L17.4793 8.56304L17.8759 8.92013C18.7188 9.6791 20.1281 10.1929 21.6315 10.2893L22.3811 10.3373L23.1049 10.248L23.8287 10.1587L24.3146 9.76525C24.946 9.25401 25.4765 8.95281 26.224 8.68093L26.8298 8.46056L26.9821 8.20251L27.1344 7.94439L27.1672 7.25546C27.2044 6.47788 27.2087 6.48226 26.7178 6.79768C25.6457 7.48685 24.3645 7.92297 23.0161 8.05797L22.1608 8.14365L21.2812 8.05758C19.9113 7.92367 18.5265 7.44698 17.5231 6.76407C17.1184 6.48867 17.1128 6.49422 17.1136 7.17228ZM8.35198 7.00367L8.52759 7.20058V7.43424V7.66797L8.33598 7.85981L8.14445 8.05172H7.86418H7.58391L7.39238 7.85981L7.20077 7.66797V7.44729C7.20077 6.80855 7.92795 6.52838 8.35198 7.00367ZM10.451 9.25322L10.6661 9.43857V9.72523V10.0118L10.0618 10.5979C9.38814 11.251 8.91892 11.9225 8.71022 12.532L8.57137 12.9375L8.57645 13.6019L8.58152 14.2664L8.748 14.7279C8.83955 14.9817 9.0996 15.4888 9.32586 15.8547L9.73733 16.5199L10.4398 17.2387C10.8261 17.634 11.4288 18.1566 11.779 18.4L12.4158 18.8425L12.492 19.0615L12.5682 19.2804L12.4664 19.5228C12.2378 20.0673 11.8729 20.0586 11.0251 19.4882L10.3617 19.0418L9.58123 18.2567C6.51208 15.169 6.43559 11.9223 9.373 9.42215L9.78908 9.06796H10.0125H10.2359L10.451 9.25322ZM27.7768 9.65331C27.0391 9.80707 26.534 9.98061 25.8982 10.2989L25.3568 10.5699L24.9087 11.0187L24.4606 11.4675L24.3319 11.9109L24.2033 12.3543L24.2766 12.699C24.5505 13.985 26.1204 14.9789 28.3036 15.2484L29.075 15.3437L29.7533 15.2955C31.8651 15.1453 33.5742 14.3163 34.126 13.1746L34.2834 12.8491L34.2817 12.4242L34.2799 11.9994L34.1209 11.6476C34.0334 11.4542 33.7837 11.1282 33.566 10.9232L33.1702 10.5506L32.5366 10.2387C32.188 10.0672 31.622 9.85327 31.2785 9.7633L30.6542 9.59968L29.4834 9.57068L28.3127 9.54168L27.7768 9.65331ZM6.30674 9.88525C6.55766 10.1365 6.54845 10.3487 6.2585 10.9954C6.1266 11.2897 5.95123 11.8118 5.86881 12.1558L5.71896 12.7811L5.71841 13.5865L5.71787 14.3919L5.84485 14.9545C6.63914 18.4751 10.3658 21.6698 15.7973 23.4864C17.601 24.0897 17.7917 24.2378 17.5394 24.8387L17.4438 25.0665L17.2105 25.1633L16.9771 25.2601L16.1669 25.0237C10.091 23.2508 5.65558 19.5708 4.56923 15.4011L4.37536 14.6573L4.37146 13.641L4.36756 12.6248L4.53497 11.9363C4.74094 11.0895 5.11815 10.1647 5.36751 9.89517L5.55435 9.69333H5.83478H6.11521L6.30674 9.88525ZM27.5773 11.2508C28.013 11.6872 27.7394 12.3427 27.119 12.3487L26.8617 12.3512L26.6702 12.1593L26.4786 11.9674V11.7234V11.4792L26.7067 11.2508L26.9349 11.0223H27.142H27.3491L27.5773 11.2508ZM31.8699 11.2508L32.098 11.4792V11.6747C32.098 11.7822 32.0071 11.9784 31.896 12.1106L31.6939 12.3512H31.4242H31.1544L30.9628 12.1593L30.7712 11.9674V11.6972V11.427L31.0114 11.2246C31.1434 11.1133 31.3393 11.0223 31.4467 11.0223H31.6418L31.8699 11.2508ZM29.7371 12.6865L29.9127 12.8475V13.1329V13.4183L29.7371 13.5767C29.477 13.8112 29.3085 13.847 29.0242 13.728L28.7689 13.6212L28.6679 13.377L28.5669 13.1329L28.6678 12.889L28.7687 12.6451L29.009 12.5409C29.2877 12.4201 29.4909 12.4607 29.7371 12.6865ZM12.6286 13.403L12.8202 13.5948V13.8286V14.0622L12.6352 14.2777L12.4502 14.4931H12.1568H11.8634L11.6784 14.2777L11.4934 14.0622V13.8286V13.5948L11.685 13.403L11.8765 13.2111H12.1568H12.4371L12.6286 13.403ZM24.2326 15.7726L24.2716 16.458L24.4304 16.7693C24.5177 16.9405 24.7596 17.2502 24.968 17.4576L25.3469 17.8347L26.0493 18.1737C26.8649 18.5674 27.5425 18.7482 28.5672 18.8452L29.3001 18.9147L30.0659 18.836C32.092 18.6278 33.7068 17.7791 34.1645 16.6819L34.2834 16.3971V15.7384V15.0797L33.9517 15.3076C33.2743 15.7729 32.4283 16.1503 31.4346 16.4302L30.8883 16.5841L29.6569 16.6277L28.4254 16.6714L27.8276 16.5748C26.7508 16.4008 25.4891 15.9037 24.6413 15.3196C24.1831 15.0038 24.1884 14.9979 24.2326 15.7726ZM3.35692 17.0097L3.53252 17.2066V17.4403V17.674L3.34092 17.8658L3.14939 18.0577H2.86912H2.58885L2.39732 17.8658L2.20571 17.674V17.4533C2.20571 16.8146 2.93288 16.5344 3.35692 17.0097ZM16.1485 20.51L16.3636 20.6953V20.9892V21.283L16.1485 21.4684L15.9334 21.6537H15.7001H15.4667L15.2752 21.4617L15.0836 21.2699V20.9892V20.7085L15.2752 20.5166L15.4667 20.3247H15.7001H15.9334L16.1485 20.51ZM7.86418 22.5564C11.2918 25.1432 15.4457 26.7046 19.7909 27.0394L20.7129 27.1104L20.873 27.2548C20.9611 27.3343 21.0645 27.4814 21.1028 27.5818L21.1724 27.7642L21.0511 28.0204C20.9843 28.1613 20.8389 28.3181 20.7279 28.3687L20.526 28.4608L19.5804 28.3764C14.7582 27.9458 9.65288 25.9185 6.54127 23.1985L6.23298 22.929V22.633V22.337L6.44808 22.1516C6.56632 22.0498 6.75777 21.9666 6.87344 21.9668L7.0837 21.9674L7.86418 22.5564ZM20.4226 24.8001C20.5307 24.8969 20.6387 25.0639 20.6628 25.1714L20.7065 25.3668L20.5511 25.6188C20.4656 25.7574 20.3068 25.8931 20.1982 25.9204C19.8853 25.9991 19.6183 25.8914 19.4502 25.6188L19.2948 25.3668L19.3385 25.1714C19.3625 25.0639 19.4705 24.8969 19.5786 24.8001L19.7752 24.6242H20.0006H20.226L20.4226 24.8001Z" fill="#D1174F"/>
</svg>
