<svg width="42" height="29" viewBox="0 0 42 29" fill="none" xmlns="http://www.w3.org/2000/svg">
<path fill-rule="evenodd" clip-rule="evenodd" d="M11.5083 0.223362C5.65957 1.51585 1.11979 6.25854 0.184708 12.053L0 13.1978L0.0786833 15.2149L0.157367 17.2321L0.555795 18.5679C2.08982 23.7117 6.30742 27.6169 11.5083 28.7089L12.8753 28.9961L14.5146 28.998L16.1539 29L17.3247 28.7677C17.9686 28.64 19.0612 28.3266 19.7527 28.0715L21.0098 27.6076L22.2759 28.0656C22.9723 28.3175 24.0613 28.6307 24.6959 28.7618L25.8499 29L27.4892 28.998L29.1285 28.9961L30.4983 28.7133C36.245 27.5277 40.8898 22.7032 41.8173 16.9565L42 15.8236L41.9247 13.7947L41.8493 11.7658L41.5988 10.8702C40.1838 5.81029 36.7068 2.19763 31.6348 0.517027L30.3436 0.089284L27.6095 0.08154L24.8753 0.073796L23.9142 0.33937C23.3856 0.485444 22.5142 0.780476 21.9775 0.995183L21.0019 1.38527L20.0302 0.996701C19.4958 0.783057 18.4877 0.471323 17.7897 0.304143L16.5209 0L14.4703 0.0110846L12.4197 0.0220173L11.5083 0.223362ZM17.3257 3.34405L17.8268 3.52505L16.9253 4.46359C15.3914 6.06038 13.8431 8.75029 13.487 10.4371L13.3828 10.9306L14.9519 10.9271L16.5209 10.9236L17.2699 9.37072L18.0188 7.81782L19.4208 6.41327C20.1918 5.64084 20.9033 5.00871 21.0019 5.00871C21.1005 5.00871 21.812 5.64084 22.583 6.41327L23.985 7.81782L24.7339 9.37072L25.4829 10.9236L27.0399 10.9271L28.5968 10.9306V10.7063C28.5968 9.46502 26.7175 6.17472 24.9812 4.37613L24.1507 3.51594L24.7409 3.34268C25.0655 3.24733 26.0192 3.12995 26.8603 3.08167L28.3896 2.9939L29.4345 3.17581C33.9509 3.96205 37.5416 7.36943 38.6283 11.9003L38.9238 13.1323V14.4989V15.8655L38.6198 17.133C38.0745 19.4065 36.9506 21.2845 35.1219 22.9768L34.0677 23.9524L32.6614 24.6545C31.041 25.4634 29.9286 25.7771 28.2171 25.9076L27.0019 26.0002L25.8626 25.8253C25.2361 25.729 24.6011 25.6127 24.4515 25.5667L24.1796 25.4833L25.1186 24.4798C27.218 22.2364 28.5991 19.349 28.9933 16.3795L29.0917 15.6378H25.5784H22.0652V17.1562V18.6746H23.6627H25.2602L24.8597 19.4718C23.9663 21.2502 21.6801 23.8373 21.0019 23.8373C20.192 23.8373 16.9006 19.8208 16.9006 18.8326V18.6746H18.4196H19.9386V17.1562V15.6378H16.4307H12.9227L13.0315 16.4349C13.44 19.4305 14.7801 22.2304 16.8795 24.4738L17.8129 25.4713L17.091 25.6534C16.6939 25.7534 15.788 25.8694 15.0779 25.911L13.7867 25.9867L12.5609 25.7642C10.1163 25.3205 8.29713 24.3457 6.41557 22.4707L5.12034 21.1801L4.49406 19.9653C4.14955 19.2972 3.71801 18.2723 3.53513 17.6877L3.20232 16.6247L3.11968 15.0157L3.03705 13.4066L3.3012 12.2066C4.68879 5.90338 11.8634 1.36948 17.3257 3.34405Z" fill="#D1174F"/>
</svg>
