<svg width="26" height="26" viewBox="0 0 26 26" fill="none" xmlns="http://www.w3.org/2000/svg">
<path fill-rule="evenodd" clip-rule="evenodd" d="M11.7865 0.119104C7.89858 0.826427 5.15973 4.76534 6.0786 8.32801C6.75852 10.9644 10.8086 18.7792 11.8753 19.5131C12.5305 19.9639 13.4754 19.9639 14.1307 19.5131C15.0088 18.9089 18.7259 11.999 19.6386 9.27407C21.3511 4.16131 17.0611 -0.840535 11.7865 0.119104ZM13.7777 3.92639C16.2282 4.64587 16.5203 7.98613 14.233 9.13351C12.3879 10.059 10.1977 8.68256 10.2091 6.60469C10.2193 4.74719 12.0059 3.40624 13.7777 3.92639ZM8.36506 17.3084C7.42719 17.5332 7.12403 17.6152 6.71772 17.7537C4.84932 18.3909 4.0035 19.4618 4.52786 20.5262C6.08265 23.6823 19.9289 23.6963 21.4706 20.5433C22.1189 19.2176 20.7997 18.0167 18.0146 17.3973C17.2957 17.2374 17.4107 17.172 16.9142 18.0234C16.4723 18.7811 16.4698 18.7171 16.9439 18.7928C18.2494 19.0011 19.9978 19.637 19.9978 19.9034C19.9978 20.0573 19.1536 20.4569 18.324 20.6958C14.6998 21.7389 8.11629 21.4035 6.19817 20.078C5.72708 19.7525 7.19393 19.0948 9.06384 18.7932C9.53832 18.7166 9.53883 18.765 9.05476 17.9584C8.65636 17.2945 8.60902 17.2499 8.36506 17.3084ZM1.96906 18.3565C-0.697205 19.9995 -0.651282 22.2856 2.07981 23.8712C6.62202 26.5084 17.6018 26.7405 23.0492 24.3145C26.6128 22.7275 27.0022 20.0477 23.9252 18.2873C22.778 17.631 22.0884 19.0017 23.2086 19.7115C24.7172 20.6675 24.7968 21.3841 23.4933 22.2749C19.3521 25.1047 6.93608 25.1501 2.62952 22.3512C1.20236 21.4236 1.24879 20.6927 2.79729 19.7115C3.29241 19.3977 3.39596 19.232 3.36089 18.8094C3.30564 18.143 2.65765 17.9322 1.96906 18.3565Z" fill="#D1174F"/>
</svg>
