<svg width="194" height="113" viewBox="0 0 194 113" fill="none" xmlns="http://www.w3.org/2000/svg">
<g style="mix-blend-mode:luminosity" opacity="0.2">
<path fill-rule="evenodd" clip-rule="evenodd" d="M180.146 0.840044C180.146 1.51508 180.292 1.63948 181.09 1.63948H182.034V4.51744V7.3954H182.98H183.924V4.51744V1.63948H184.868C185.666 1.63948 185.813 1.51508 185.813 0.840044C185.813 0.0466871 185.792 0.0406114 182.98 0.0406114C180.167 0.0406114 180.146 0.0466871 180.146 0.840044ZM186.758 3.69786V7.3954H187.545C188.282 7.3954 188.334 7.28763 188.356 5.71658L188.381 4.03778L188.933 5.63664C189.788 8.11296 190.876 8.08898 191.739 5.57492L192.376 3.71801L192.401 5.5567C192.424 7.29818 192.467 7.3954 193.213 7.3954H194V3.69786V0L193.001 0.100409C192.056 0.195062 191.959 0.333523 191.183 2.70081L190.364 5.20143L189.567 2.70081C188.809 0.322012 188.721 0.195701 187.764 0.100409L186.758 0V3.69786ZM96.1536 2.67874C93.4559 5.47963 92.4097 10.3753 93.2347 16.349C93.3995 17.5389 93.3247 17.5766 91.6638 17.1447L90.8767 16.94L91.6201 17.6039L92.3635 18.2677L91.6201 18.2725C91.0247 18.2767 90.9701 18.339 91.3485 18.5874C91.6083 18.7579 92.1953 18.8996 92.6536 18.9025C94.0992 18.9108 93.2238 21.5108 90.7077 24.6789C89.8903 25.7085 90.0955 26.2361 91.6689 27.151C92.9799 27.913 93.2213 28.6165 92.5855 29.8221C92.3248 30.318 92.3753 30.6551 92.8109 31.3199C93.1195 31.7918 93.3331 32.4346 93.2835 32.7483C93.2347 33.062 93.4946 33.5656 93.8612 33.8675C94.354 34.273 94.576 34.9173 94.7131 36.3349C95.1058 40.4055 96.8877 41.1536 101.948 39.3727C106.615 37.7306 109.106 38.0753 108.775 40.5651C108.606 41.8388 108.572 43.3108 108.186 44.4081C105.134 53.0865 94.9581 55.7735 87.2851 49.569C84.6782 47.461 83.1617 45.2921 83.1617 43.6705V42.296L81.4299 41.7848C80.1952 41.4202 79.6984 41.1155 79.6986 40.7228C79.6997 39.9787 77.8529 18.3732 77.6787 17.0916L77.5408 16.075L79.5639 15.855L81.5873 15.635V13.434V11.2327H74.6845H67.7814L67.4592 12.2719C66.6374 14.9244 62.7061 29.4344 62.5169 30.5141C62.2458 32.0592 62.1185 31.906 61.6018 29.4118C61.3703 28.2948 60.4689 25.0069 59.5986 22.105C58.7285 19.203 57.6435 15.5697 57.1875 14.0306L56.3587 11.2327H48.8204H41.2825V13.434V15.635L43.3418 15.8588L45.4012 16.083L45.2299 17.8948C45.1357 18.8913 44.8483 23.52 44.5907 28.1807C44.3334 32.8413 44.0387 37.6955 43.9357 38.9679L43.7487 41.2812L42.4369 41.6252C41.7154 41.8142 40.8773 42.0421 40.574 42.1314C40.1452 42.2577 40.023 42.644 40.023 43.871V45.4484H46.7929H53.5629V43.862C53.5629 42.118 53.7629 42.2644 50.2891 41.4653L49.3771 41.2555L49.5765 37.1964C49.6861 34.9637 49.8709 29.5544 49.9874 25.1755L50.1993 17.2137L54.8832 31.6508L59.567 46.088H61.1219H62.6768L63.157 44.4091C63.4212 43.4859 65.2588 37.0463 67.2407 30.0993L70.8445 17.4683L70.8653 20.9857C70.8766 22.9204 71.1673 28.2446 71.5111 32.8174C71.855 37.3902 72.1371 41.1635 72.1384 41.2025C72.14 41.2414 71.3616 41.5037 70.4091 41.7848L68.6772 42.296V43.8723V45.4484H75.8776H83.078C83.078 45.4484 76.548 35.3574 83.9575 46.8075C91.367 58.2576 104.844 58.6953 112.039 47.7201C116.134 41.4736 114.811 36.7013 106.134 26.4219C97.2931 15.949 95.1823 10.4566 97.3275 3.50663C98.0583 1.13808 98.0264 1.31971 97.7118 1.31971C97.5748 1.31971 96.8735 1.93143 96.1536 2.67874ZM131.402 11.5595C114.025 16.1827 112.527 41.1554 129.362 45.5856C132.471 46.4035 137.767 46.2565 141.573 45.2466C143.304 44.7868 145.04 44.3398 145.429 44.2527C146.12 44.0989 146.138 43.988 146.138 39.9604V35.8261L144.054 35.9204L141.971 36.0151L141.128 38.179C139.763 41.6818 137.511 42.8208 133.758 41.9066C125.02 39.7779 123.752 18.9424 132.163 15.6951C134.572 14.7652 138.938 15.5931 139.386 17.065C139.507 17.4628 139.881 18.5434 140.218 19.4668L140.83 21.1457H143.155H145.48L145.635 20.1064C145.797 19.0211 146.148 12.1927 146.041 12.191C146.008 12.1904 144.523 11.9026 142.742 11.5515C138.634 10.7415 134.466 10.7444 131.402 11.5595ZM8.70555 24.5864C2.16796 43.1128 2.92084 41.3336 1.44122 41.7534C0.206877 42.1036 0.189245 42.1305 0.0954094 43.7785L0 45.4484H6.17325H12.3465L12.2511 43.8016L12.156 42.1547L10.6603 41.7134C9.83787 41.4707 9.16462 41.23 9.16462 41.1788C9.16462 41.1273 9.39041 40.4123 9.66657 39.5895L10.1684 38.0936H15.7973H21.4258L21.8726 39.6125C22.3795 41.3361 22.3515 41.393 20.7365 41.9171C19.5831 42.2913 19.5557 42.3367 19.5557 43.8745V45.4484H27.1128H34.67V43.862V42.2753L33.3318 41.9274C32.5956 41.7362 31.8414 41.529 31.6557 41.4672C31.4702 41.4055 28.9949 34.5774 26.1556 26.2937L20.9935 11.2327L17.2045 11.2358L13.4156 11.2387L8.70555 24.5864ZM165.629 12.112C165.448 12.5958 163.116 19.179 160.448 26.7417C154.871 42.5522 155.401 41.3489 153.818 41.7979C152.617 42.1391 152.591 42.1768 152.498 43.7971L152.402 45.4484H158.576H164.749L164.654 43.7789L164.559 42.1094L163.057 41.6799C162.23 41.4439 161.614 41.1519 161.686 41.0311C161.759 40.9105 161.98 40.2003 162.177 39.4526L162.536 38.0936H168.199H173.863L174.156 38.8741C174.882 40.8152 174.727 41.3527 173.296 41.8439C171.965 42.3015 171.958 42.3118 171.958 43.8761V45.4484H179.516H187.072V43.862V42.2753L185.734 41.9261C184.999 41.7339 184.272 41.5427 184.122 41.5008C183.97 41.4592 182.758 38.265 181.427 34.4031C180.096 30.5412 177.758 23.748 176.231 19.3069L173.453 11.2327H169.706H165.96L165.629 12.112ZM18.1293 26.3921C19.2601 30.421 20.1854 33.7664 20.1854 33.8269C20.1854 33.8873 18.1897 33.9366 15.751 33.9366C12.3364 33.9366 11.3496 33.8445 11.4605 33.5369C11.5398 33.3172 12.5789 29.8723 13.7694 25.8821C14.9604 21.892 15.9658 18.7262 16.0039 18.8471C16.042 18.968 16.9982 22.3633 18.1293 26.3921ZM168.807 19.6456C168.806 19.855 169.669 23.0963 170.724 26.8482C172.981 34.8777 173.314 33.9753 168.134 33.8659L163.907 33.7767L166.122 26.3729C168.025 20.0136 168.816 18.0333 168.807 19.6456Z" fill="#D1174F"/>
<path fill-rule="evenodd" clip-rule="evenodd" d="M180.143 0.840044C180.143 1.51508 180.29 1.63948 181.087 1.63948H182.032V4.51744V7.3954H182.976H183.921V4.51744V1.63948H184.866C185.663 1.63948 185.81 1.51508 185.81 0.840044C185.81 0.0466872 185.789 0.0406114 182.976 0.0406114C180.164 0.0406114 180.143 0.0466872 180.143 0.840044ZM186.755 3.69786V7.3954H187.542C188.279 7.3954 188.331 7.28763 188.354 5.71658L188.379 4.03778L188.93 5.63664C189.785 8.11296 190.874 8.08898 191.737 5.57492L192.373 3.71801L192.398 5.5567C192.422 7.29818 192.465 7.3954 193.21 7.3954H193.997V3.69786V0L192.999 0.100409C192.053 0.195062 191.956 0.333523 191.181 2.7008L190.361 5.20143L189.564 2.7008C188.806 0.322011 188.718 0.195701 187.761 0.100409L186.755 0V3.69786ZM96.1505 2.67874C93.4528 5.47963 92.4075 10.3753 93.2325 16.349C93.3965 17.5389 93.3225 17.5766 91.6608 17.1447L90.8737 16.94L91.6171 17.6039L92.3604 18.2677L91.6171 18.2725C91.0217 18.2767 90.9678 18.339 91.3463 18.5874C91.6061 18.7579 92.1931 18.8996 92.6506 18.9025C94.097 18.9107 93.2207 21.5108 90.7055 24.6788C89.8872 25.7085 90.0924 26.2361 91.6658 27.151C92.9768 27.913 93.2182 28.6165 92.5833 29.8221C92.3218 30.318 92.3722 30.6551 92.8078 31.3199C93.1173 31.7918 93.33 32.4346 93.2813 32.7483C93.2325 33.062 93.4915 33.5656 93.8581 33.8675C94.3509 34.273 94.5729 34.9173 94.71 36.3349C95.1036 40.4055 96.8847 41.1536 101.945 39.3727C108.762 36.9741 110.401 40.8421 105.508 47.7805C100.379 55.0549 91.0187 54.4426 84.3429 46.5858C84.1327 46.3296 84.0145 46.0125 83.7963 45.7318L82.7815 44.649L83.5029 46.0125C89.8561 58.0171 104.703 58.9058 112.036 47.7201C116.131 41.4736 114.808 36.7013 106.131 26.4219C97.29 15.949 95.1793 10.4566 97.3245 3.50663C98.0561 1.13808 98.0241 1.31971 97.7088 1.31971C97.5717 1.31971 96.8712 1.93143 96.1505 2.67874Z" fill="black"/>
<path fill-rule="evenodd" clip-rule="evenodd" d="M0 68.1897V68.9262H1.26187H2.52374V71.872V74.8178H3.39734H4.27095V71.872V68.9262H5.43575H6.60055V68.1897V67.4533H3.30028H0V68.1897ZM8.20022 71.0013C6.53629 75.1805 6.58832 74.8178 7.65218 74.8178C8.48831 74.8178 8.51626 74.7985 8.78456 74.0354L9.05965 73.2529H10.3842H11.709L12.0099 74.0354C12.3052 74.8035 12.3273 74.8178 13.2166 74.8178H14.1227L12.6536 71.1356L11.1846 67.4533L10.397 67.4571L9.60963 67.4612L8.20022 71.0013ZM14.7542 71.1356V74.8178H17.5691H20.3841V74.1734V73.529H18.4427H16.5014V70.4912V67.4533H15.6278H14.7542V71.1356ZM21.1606 71.1356V74.8178H21.9371H22.7137V73.7452C22.7137 72.8504 22.7911 72.6037 23.1806 72.2566L23.6476 71.8405L24.4094 72.823C24.8284 73.3632 25.3271 74.0331 25.5177 74.3115C25.8179 74.7499 25.9916 74.8178 26.8128 74.8178C27.9906 74.8178 28.0337 74.9907 26.2867 72.706L24.8123 70.7778L25.2675 70.2426C25.5179 69.9484 26.1376 69.2535 26.6449 68.6986C27.1521 68.1437 27.567 67.6365 27.567 67.5715C27.567 66.7069 25.6263 67.5884 24.2667 69.0707L22.8107 70.6583L22.7546 69.0558L22.6985 67.4533H21.9296H21.1606V71.1356ZM30.8673 71.1356V74.8178H31.7409H32.6145V71.1356V67.4533H31.7409H30.8673V71.1356ZM38.3418 67.7433C35.0584 69.367 35.8624 74.4014 39.4876 74.9169C41.6621 75.2262 44.1532 73.5351 42.6881 72.7442C42.0892 72.4209 42.0843 72.4218 41.4208 72.9743C39.6315 74.4643 37.2226 72.4356 38.1723 70.2382C38.8246 68.7286 40.7537 68.3321 41.6359 69.5264C42.2125 70.3072 43.3957 69.2929 42.8424 68.492C42.1715 67.521 39.6423 67.1001 38.3418 67.7433ZM44.0684 71.1356V74.8178H44.942H45.8156V73.3449V71.872H47.4657H49.1159V73.3449V74.8178H49.9895H50.8631V71.1356V67.4533H49.9895H49.1159V68.9262V70.3991H47.4657H45.8156V68.9262V67.4533H44.942H44.0684V71.1356ZM54.269 67.7661C54.1932 67.9484 53.5792 69.4647 52.9042 71.1356C52.2294 72.8064 51.6138 74.3235 51.5361 74.5067C51.41 74.8048 51.4934 74.8339 52.3272 74.7829C53.2348 74.7273 53.2666 74.7052 53.5334 73.9433L53.8075 73.1608H55.134H56.4605L56.7347 73.9433C57.001 74.7037 57.0346 74.7274 57.9323 74.7825C58.7492 74.8328 58.8428 74.8009 58.7422 74.5063C58.6797 74.3233 58.0282 72.6821 57.2945 70.8594L55.9604 67.5453L55.1835 67.4899C54.5811 67.4468 54.3757 67.5089 54.269 67.7661ZM58.8226 68.1897V68.9262H60.0844H61.3463V71.872V74.8178H62.2199H63.0935V71.872V68.9262H64.2583H65.4231V68.1897V67.4533H62.1228H58.8226V68.1897ZM68.9175 71.1356V74.8178H69.6941H70.4706V71.1356V67.4533H69.6941H68.9175V71.1356ZM73.7709 67.5043C73.7709 67.5435 74.4566 69.1843 75.2946 71.1507L76.8182 74.7258L77.6031 74.7814L78.3878 74.837L78.9249 73.5386C79.5827 71.9486 79.5656 71.9486 80.2452 73.541L80.7985 74.8372L81.5704 74.7816L82.3423 74.7258L83.8806 71.1503C84.7266 69.1838 85.4189 67.5475 85.4189 67.514C85.4189 67.4807 85.0038 67.4535 84.4968 67.4536L83.5746 67.454L82.7203 69.709C82.2503 70.9492 81.7841 72.1712 81.6844 72.4244C81.5122 72.8614 81.4813 72.8336 81.0705 71.872L80.6378 70.8594L81.1581 69.5706C82.0794 67.2881 82.0816 67.422 81.1249 67.4879C80.3153 67.5437 80.2833 67.5704 80.0063 68.4199C79.6461 69.5236 79.5099 69.5166 79.1096 68.3738C78.7937 67.4717 78.7714 67.4533 78.0036 67.4533C77.1104 67.4533 77.1137 67.3084 77.957 69.4844L78.4945 70.8712L78.1447 71.7398C77.6689 72.9215 77.6833 72.9369 76.5858 70.0758L75.6151 67.5453L74.693 67.4892C74.1859 67.4584 73.7709 67.4652 73.7709 67.5043ZM88.0483 67.7661C87.9725 67.9484 87.3585 69.4647 86.6835 71.1356C86.0087 72.8064 85.3931 74.3235 85.3154 74.5067C85.1892 74.8048 85.2727 74.8339 86.1065 74.7829C87.0141 74.7273 87.0459 74.7052 87.3127 73.9433L87.5868 73.1608H88.9133H90.2398L90.5139 73.9433C90.7803 74.7037 90.8139 74.7274 91.7116 74.7825C92.5285 74.8328 92.622 74.8009 92.5215 74.5063C92.459 74.3233 91.8075 72.6821 91.0738 70.8594L89.7397 67.5453L88.9628 67.4899C88.3604 67.4468 88.155 67.5089 88.0483 67.7661ZM93.3784 71.1356V74.8178H96.1933H99.0083V74.1734V73.529H96.9699H94.9315V70.4912V67.4533H94.1549H93.3784V71.1356ZM99.5907 71.1356V74.8178H100.464H101.338V73.7452C101.338 72.853 101.416 72.6033 101.801 72.2601L102.264 71.8477L103.367 73.3328L104.471 74.8178H105.45H106.43L106.084 74.3172C105.894 74.0418 105.229 73.1647 104.606 72.368C103.227 70.6049 103.204 70.9325 104.832 69.1488C106.447 67.3796 106.428 67.4531 105.269 67.4538C104.351 67.4542 104.34 67.4621 102.891 69.0554L101.435 70.6567L101.379 69.0549L101.323 67.4533H100.457H99.5907V71.1356ZM109.492 71.1356V74.8178H110.365H111.239V71.1356V67.4533H110.365H109.492V71.1356ZM115.316 71.1356V74.8178H116.092H116.869L116.876 72.5624L116.883 70.307L117.798 71.9641C119.076 74.2791 119.362 74.2938 120.601 72.109L121.519 70.4912L121.524 72.6545L121.528 74.8178H122.401H123.275V71.1356V67.4533H122.352H121.429L120.362 69.3754C119.775 70.4328 119.238 71.2405 119.168 71.1705C119.097 71.1008 118.587 70.2358 118.034 69.2484L117.028 67.4533H116.172H115.316V71.1356ZM124.634 71.1356V74.8178H127.352H130.07V74.1734V73.529H128.225H126.381V72.6085V71.6879H127.934H129.487V71.0435V70.3991H127.934H126.381V69.6626V68.9262H128.225H130.07V68.1897V67.4533H127.352H124.634V71.1356ZM131.234 71.1356V74.8178H133.952H136.67V74.1734V73.529H134.729H132.788V72.6085V71.6879H134.438H136.088V71.0435V70.3991H134.438H132.788V69.6626V68.9262H134.729H136.67V68.1897V67.4533H133.952H131.234V71.1356ZM137.059 68.1897V68.9262H138.223H139.388V71.872V74.8178H140.262H141.135V71.872V68.9262H142.397H143.659V68.1897V67.4533H140.359H137.059V68.1897ZM146.959 71.1356V74.8178H147.833H148.707V71.1356V67.4533H147.833H146.959V71.1356ZM153.597 67.8263C151.534 69.019 152.149 70.9896 154.855 71.8602C156.513 72.3938 156.995 72.8351 156.386 73.2637C155.841 73.6478 154.962 73.5876 153.831 73.0881L152.841 72.6506L152.521 73.1643C152.063 73.9 152.109 74.0295 152.986 74.4535C155.479 75.6598 158.413 74.7635 158.413 72.7959C158.413 71.5032 157.759 70.9546 155.474 70.331C154.196 69.9824 153.895 69.5616 154.558 69.0523C155.047 68.6767 155.924 68.7434 156.92 69.2316C157.227 69.3824 157.503 69.4789 157.533 69.4461C157.563 69.4134 157.733 69.1147 157.911 68.7826L158.235 68.1785L157.402 67.82C156.258 67.3277 154.454 67.3307 153.597 67.8263ZM159.384 71.1356V74.8178H160.258H161.131V73.3449V71.872H162.781H164.431V73.3449V74.8178H165.208H165.984V71.1356V67.4533H165.208H164.431V68.9262V70.3991H162.781H161.131V68.9262V67.4533H160.258H159.384V71.1356ZM169.458 67.9596C168.4 70.5598 166.761 74.6823 166.761 74.7425C166.761 75.361 168.517 74.7153 168.81 73.9893L169.143 73.1608H170.445H171.747L171.983 73.907C172.248 74.7466 172.446 74.8674 173.422 74.7841L174.106 74.7258L173.181 72.4244C172.673 71.1586 172.018 69.5223 171.725 68.7881L171.192 67.4533H170.428C169.773 67.4533 169.634 67.526 169.458 67.9596ZM174.72 71.1356V74.8178H175.594H176.468V73.6211V72.4244H177.129C177.737 72.4244 177.849 72.5195 178.528 73.6211L179.266 74.8178H180.197C181.311 74.8178 181.308 74.8447 180.353 73.3576L179.593 72.1738L180.055 71.7673C182.235 69.8515 180.506 67.4533 176.946 67.4533H174.72V71.1356ZM181.903 71.1356V74.8178H184.718H187.533V74.1734V73.529H185.592H183.651V72.6085V71.6879H185.301H186.951V71.0435V70.3991H185.301H183.651V69.6626V68.9262H185.495H187.339V68.1897V67.4533H184.621H181.903V71.1356ZM178.927 69.4076C179.509 70.2503 178.977 70.845 177.578 70.9146L176.468 70.9699V69.948V68.9262H177.531C178.463 68.9262 178.635 68.9855 178.927 69.4076ZM10.787 70.4451C10.9715 70.9767 11.1625 71.5154 11.2118 71.6419C11.2755 71.8054 11.0367 71.872 10.3862 71.872C9.73387 71.872 9.49761 71.8059 9.56381 71.6419C9.61487 71.5154 9.81949 70.9767 10.0185 70.4451C10.2175 69.9136 10.3965 69.4785 10.4161 69.4785C10.4359 69.4785 10.6028 69.9136 10.787 70.4451ZM55.6547 70.7675L56.0783 71.872H55.1495H54.2206L54.6287 70.7673C55.1303 69.4093 55.1338 69.4093 55.6547 70.7675ZM89.434 70.7675L89.8576 71.872H88.9288H87.9999L88.408 70.7673C88.9096 69.4093 88.9131 69.4093 89.434 70.7675ZM170.744 70.3424C171.388 71.8039 171.371 71.872 170.381 71.872H169.495L169.914 70.7673C170.409 69.4629 170.366 69.4846 170.744 70.3424Z" fill="black"/>
</g>
<path d="M7.68566 87.1V94H6.98566V88.49L4.52566 94H4.01566L1.55566 88.51V94H0.855664V87.1H1.59566L4.26566 93.08L6.93566 87.1H7.68566ZM8.95363 91.26C8.95363 90.7 9.06363 90.21 9.28363 89.79C9.5103 89.3633 9.8203 89.0367 10.2136 88.81C10.6136 88.5767 11.0636 88.46 11.5636 88.46C12.0836 88.46 12.5303 88.58 12.9036 88.82C13.2836 89.06 13.557 89.3667 13.7236 89.74V88.54H14.4236V94H13.7236V92.79C13.5503 93.1633 13.2736 93.4733 12.8936 93.72C12.5203 93.96 12.0736 94.08 11.5536 94.08C11.0603 94.08 10.6136 93.9633 10.2136 93.73C9.8203 93.4967 9.5103 93.1667 9.28363 92.74C9.06363 92.3133 8.95363 91.82 8.95363 91.26ZM13.7236 91.27C13.7236 90.83 13.6336 90.4433 13.4536 90.11C13.2736 89.7767 13.027 89.52 12.7136 89.34C12.407 89.16 12.067 89.07 11.6936 89.07C11.307 89.07 10.9603 89.1567 10.6536 89.33C10.347 89.5033 10.1036 89.7567 9.92363 90.09C9.7503 90.4167 9.66363 90.8067 9.66363 91.26C9.66363 91.7067 9.7503 92.1 9.92363 92.44C10.1036 92.7733 10.347 93.03 10.6536 93.21C10.9603 93.3833 11.307 93.47 11.6936 93.47C12.067 93.47 12.407 93.38 12.7136 93.2C13.027 93.02 13.2736 92.7633 13.4536 92.43C13.6336 92.0967 13.7236 91.71 13.7236 91.27ZM15.7017 91.26C15.7017 90.7 15.815 90.21 16.0417 89.79C16.2683 89.3633 16.5783 89.0367 16.9717 88.81C17.3717 88.5767 17.8217 88.46 18.3217 88.46C18.8017 88.46 19.235 88.5767 19.6217 88.81C20.0083 89.0433 20.2917 89.3467 20.4717 89.72V86.6H21.1717V94H20.4717V92.78C20.305 93.16 20.0317 93.4733 19.6517 93.72C19.2717 93.96 18.825 94.08 18.3117 94.08C17.8117 94.08 17.3617 93.9633 16.9617 93.73C16.5683 93.4967 16.2583 93.1667 16.0317 92.74C15.8117 92.3133 15.7017 91.82 15.7017 91.26ZM20.4717 91.27C20.4717 90.83 20.3817 90.4433 20.2017 90.11C20.0217 89.7767 19.775 89.52 19.4617 89.34C19.155 89.16 18.815 89.07 18.4417 89.07C18.055 89.07 17.7083 89.1567 17.4017 89.33C17.095 89.5033 16.8517 89.7567 16.6717 90.09C16.4983 90.4167 16.4117 90.8067 16.4117 91.26C16.4117 91.7067 16.4983 92.1 16.6717 92.44C16.8517 92.7733 17.095 93.03 17.4017 93.21C17.7083 93.3833 18.055 93.47 18.4417 93.47C18.815 93.47 19.155 93.38 19.4617 93.2C19.775 93.02 20.0217 92.7633 20.2017 92.43C20.3817 92.0967 20.4717 91.71 20.4717 91.27ZM27.7097 90.99C27.7097 91.23 27.7031 91.4133 27.6897 91.54H23.1597C23.1797 91.9533 23.2797 92.3067 23.4597 92.6C23.6397 92.8933 23.8764 93.1167 24.1697 93.27C24.4631 93.4167 24.7831 93.49 25.1297 93.49C25.5831 93.49 25.9631 93.38 26.2697 93.16C26.5831 92.94 26.7897 92.6433 26.8897 92.27H27.6297C27.4964 92.8033 27.2097 93.24 26.7697 93.58C26.3364 93.9133 25.7897 94.08 25.1297 94.08C24.6164 94.08 24.1564 93.9667 23.7497 93.74C23.3431 93.5067 23.0231 93.18 22.7897 92.76C22.5631 92.3333 22.4497 91.8367 22.4497 91.27C22.4497 90.7033 22.5631 90.2067 22.7897 89.78C23.0164 89.3533 23.3331 89.0267 23.7397 88.8C24.1464 88.5733 24.6097 88.46 25.1297 88.46C25.6497 88.46 26.1031 88.5733 26.4897 88.8C26.8831 89.0267 27.1831 89.3333 27.3897 89.72C27.6031 90.1 27.7097 90.5233 27.7097 90.99ZM26.9997 90.97C27.0064 90.5633 26.9231 90.2167 26.7497 89.93C26.5831 89.6433 26.3531 89.4267 26.0597 89.28C25.7664 89.1333 25.4464 89.06 25.0997 89.06C24.5797 89.06 24.1364 89.2267 23.7697 89.56C23.4031 89.8933 23.1997 90.3633 23.1597 90.97H26.9997ZM40.2146 87.01L38.2346 94H37.4546L35.6946 88.04L33.8946 94L33.1346 94.01L31.1946 87.01H31.9446L33.5446 93.14L35.3346 87.01H36.1146L37.8546 93.14L39.4646 87.01H40.2146ZM41.6354 87.51C41.4954 87.51 41.3754 87.46 41.2754 87.36C41.1754 87.26 41.1254 87.1367 41.1254 86.99C41.1254 86.8433 41.1754 86.7233 41.2754 86.63C41.3754 86.53 41.4954 86.48 41.6354 86.48C41.7754 86.48 41.8954 86.53 41.9954 86.63C42.0954 86.7233 42.1454 86.8433 42.1454 86.99C42.1454 87.1367 42.0954 87.26 41.9954 87.36C41.8954 87.46 41.7754 87.51 41.6354 87.51ZM41.9854 88.54V94H41.2854V88.54H41.9854ZM44.4805 89.13V92.52C44.4805 92.8533 44.5438 93.0833 44.6705 93.21C44.7972 93.3367 45.0205 93.4 45.3405 93.4H45.9805V94H45.2305C44.7372 94 44.3705 93.8867 44.1305 93.66C43.8905 93.4267 43.7705 93.0467 43.7705 92.52V89.13H43.0105V88.54H43.7705V87.17H44.4805V88.54H45.9805V89.13H44.4805ZM49.735 88.44C50.1483 88.44 50.5183 88.5267 50.845 88.7C51.1783 88.8733 51.4383 89.14 51.625 89.5C51.8183 89.8533 51.915 90.2867 51.915 90.8V94H51.225V90.88C51.225 90.2867 51.075 89.8333 50.775 89.52C50.4816 89.2067 50.0783 89.05 49.565 89.05C49.0383 89.05 48.6183 89.2167 48.305 89.55C47.9916 89.8833 47.835 90.3733 47.835 91.02V94H47.135V86.6H47.835V89.47C48.0083 89.1433 48.2616 88.89 48.595 88.71C48.935 88.53 49.315 88.44 49.735 88.44ZM56.9072 93.43H59.4172V94H56.2072V87.01H56.9072V93.43ZM62.8062 94.08C62.2929 94.08 61.8295 93.9667 61.4162 93.74C61.0095 93.5067 60.6862 93.18 60.4462 92.76C60.2129 92.3333 60.0962 91.8367 60.0962 91.27C60.0962 90.7033 60.2162 90.21 60.4562 89.79C60.6962 89.3633 61.0229 89.0367 61.4362 88.81C61.8495 88.5767 62.3129 88.46 62.8262 88.46C63.3395 88.46 63.8029 88.5767 64.2162 88.81C64.6362 89.0367 64.9629 89.3633 65.1962 89.79C65.4362 90.21 65.5562 90.7033 65.5562 91.27C65.5562 91.83 65.4362 92.3233 65.1962 92.75C64.9562 93.1767 64.6262 93.5067 64.2062 93.74C63.7862 93.9667 63.3195 94.08 62.8062 94.08ZM62.8062 93.47C63.1662 93.47 63.4995 93.39 63.8062 93.23C64.1129 93.0633 64.3595 92.8167 64.5462 92.49C64.7395 92.1567 64.8362 91.75 64.8362 91.27C64.8362 90.79 64.7429 90.3867 64.5562 90.06C64.3695 89.7267 64.1229 89.48 63.8162 89.32C63.5095 89.1533 63.1762 89.07 62.8162 89.07C62.4562 89.07 62.1229 89.1533 61.8162 89.32C61.5095 89.48 61.2629 89.7267 61.0762 90.06C60.8962 90.3867 60.8062 90.79 60.8062 91.27C60.8062 91.75 60.8962 92.1567 61.0762 92.49C61.2629 92.8167 61.5062 93.0633 61.8062 93.23C62.1129 93.39 62.4462 93.47 62.8062 93.47ZM68.7722 93.32L70.6122 88.54H71.3522L69.1622 94H68.3722L66.1822 88.54H66.9322L68.7722 93.32ZM77.241 90.99C77.241 91.23 77.2343 91.4133 77.221 91.54H72.691C72.711 91.9533 72.811 92.3067 72.991 92.6C73.171 92.8933 73.4076 93.1167 73.701 93.27C73.9943 93.4167 74.3143 93.49 74.661 93.49C75.1143 93.49 75.4943 93.38 75.801 93.16C76.1143 92.94 76.321 92.6433 76.421 92.27H77.161C77.0276 92.8033 76.741 93.24 76.301 93.58C75.8676 93.9133 75.321 94.08 74.661 94.08C74.1476 94.08 73.6876 93.9667 73.281 93.74C72.8743 93.5067 72.5543 93.18 72.321 92.76C72.0943 92.3333 71.981 91.8367 71.981 91.27C71.981 90.7033 72.0943 90.2067 72.321 89.78C72.5476 89.3533 72.8643 89.0267 73.271 88.8C73.6776 88.5733 74.141 88.46 74.661 88.46C75.181 88.46 75.6343 88.5733 76.021 88.8C76.4143 89.0267 76.7143 89.3333 76.921 89.72C77.1343 90.1 77.241 90.5233 77.241 90.99ZM76.531 90.97C76.5376 90.5633 76.4543 90.2167 76.281 89.93C76.1143 89.6433 75.8843 89.4267 75.591 89.28C75.2976 89.1333 74.9776 89.06 74.631 89.06C74.111 89.06 73.6676 89.2267 73.301 89.56C72.9343 89.8933 72.731 90.3633 72.691 90.97H76.531ZM81.6158 87.51C81.4758 87.51 81.3558 87.46 81.2558 87.36C81.1558 87.26 81.1058 87.1367 81.1058 86.99C81.1058 86.8433 81.1558 86.7233 81.2558 86.63C81.3558 86.53 81.4758 86.48 81.6158 86.48C81.7558 86.48 81.8758 86.53 81.9758 86.63C82.0758 86.7233 82.1258 86.8433 82.1258 86.99C82.1258 87.1367 82.0758 87.26 81.9758 87.36C81.8758 87.46 81.7558 87.51 81.6158 87.51ZM81.9658 88.54V94H81.2658V88.54H81.9658ZM86.111 88.44C86.7643 88.44 87.2976 88.6433 87.711 89.05C88.1243 89.45 88.331 90.0333 88.331 90.8V94H87.641V90.88C87.641 90.2867 87.491 89.8333 87.191 89.52C86.8976 89.2067 86.4943 89.05 85.981 89.05C85.4543 89.05 85.0343 89.2167 84.721 89.55C84.4076 89.8833 84.251 90.3733 84.251 91.02V94H83.551V88.54H84.251V89.47C84.4243 89.1367 84.6743 88.8833 85.001 88.71C85.3276 88.53 85.6976 88.44 86.111 88.44ZM97.8932 94H97.1932L93.3232 88.12V94H92.6232V87.01H93.3232L97.1932 92.88V87.01H97.8932V94ZM99.1587 91.26C99.1587 90.7 99.2687 90.21 99.4887 89.79C99.7154 89.3633 100.025 89.0367 100.419 88.81C100.819 88.5767 101.269 88.46 101.769 88.46C102.289 88.46 102.735 88.58 103.109 88.82C103.489 89.06 103.762 89.3667 103.929 89.74V88.54H104.629V94H103.929V92.79C103.755 93.1633 103.479 93.4733 103.099 93.72C102.725 93.96 102.279 94.08 101.759 94.08C101.265 94.08 100.819 93.9633 100.419 93.73C100.025 93.4967 99.7154 93.1667 99.4887 92.74C99.2687 92.3133 99.1587 91.82 99.1587 91.26ZM103.929 91.27C103.929 90.83 103.839 90.4433 103.659 90.11C103.479 89.7767 103.232 89.52 102.919 89.34C102.612 89.16 102.272 89.07 101.899 89.07C101.512 89.07 101.165 89.1567 100.859 89.33C100.552 89.5033 100.309 89.7567 100.129 90.09C99.9554 90.4167 99.8687 90.8067 99.8687 91.26C99.8687 91.7067 99.9554 92.1 100.129 92.44C100.309 92.7733 100.552 93.03 100.859 93.21C101.165 93.3833 101.512 93.47 101.899 93.47C102.272 93.47 102.612 93.38 102.919 93.2C103.232 93.02 103.479 92.7633 103.659 92.43C103.839 92.0967 103.929 91.71 103.929 91.27ZM112.727 88.44C113.367 88.44 113.887 88.6433 114.287 89.05C114.693 89.45 114.897 90.0333 114.897 90.8V94H114.207V90.88C114.207 90.2867 114.063 89.8333 113.777 89.52C113.49 89.2067 113.1 89.05 112.607 89.05C112.093 89.05 111.683 89.22 111.377 89.56C111.07 89.9 110.917 90.3933 110.917 91.04V94H110.227V90.88C110.227 90.2867 110.083 89.8333 109.797 89.52C109.51 89.2067 109.117 89.05 108.617 89.05C108.103 89.05 107.693 89.22 107.387 89.56C107.08 89.9 106.927 90.3933 106.927 91.04V94H106.227V88.54H106.927V89.48C107.1 89.14 107.347 88.8833 107.667 88.71C107.987 88.53 108.343 88.44 108.737 88.44C109.21 88.44 109.623 88.5533 109.977 88.78C110.337 89.0067 110.597 89.34 110.757 89.78C110.903 89.3467 111.153 89.0167 111.507 88.79C111.867 88.5567 112.273 88.44 112.727 88.44ZM122.951 88.44C123.591 88.44 124.111 88.6433 124.511 89.05C124.918 89.45 125.121 90.0333 125.121 90.8V94H124.431V90.88C124.431 90.2867 124.288 89.8333 124.001 89.52C123.715 89.2067 123.325 89.05 122.831 89.05C122.318 89.05 121.908 89.22 121.601 89.56C121.295 89.9 121.141 90.3933 121.141 91.04V94H120.451V90.88C120.451 90.2867 120.308 89.8333 120.021 89.52C119.735 89.2067 119.341 89.05 118.841 89.05C118.328 89.05 117.918 89.22 117.611 89.56C117.305 89.9 117.151 90.3933 117.151 91.04V94H116.451V88.54H117.151V89.48C117.325 89.14 117.571 88.8833 117.891 88.71C118.211 88.53 118.568 88.44 118.961 88.44C119.435 88.44 119.848 88.5533 120.201 88.78C120.561 89.0067 120.821 89.34 120.981 89.78C121.128 89.3467 121.378 89.0167 121.731 88.79C122.091 88.5567 122.498 88.44 122.951 88.44ZM126.356 91.26C126.356 90.7 126.466 90.21 126.686 89.79C126.913 89.3633 127.223 89.0367 127.616 88.81C128.016 88.5767 128.466 88.46 128.966 88.46C129.486 88.46 129.933 88.58 130.306 88.82C130.686 89.06 130.959 89.3667 131.126 89.74V88.54H131.826V94H131.126V92.79C130.953 93.1633 130.676 93.4733 130.296 93.72C129.923 93.96 129.476 94.08 128.956 94.08C128.463 94.08 128.016 93.9633 127.616 93.73C127.223 93.4967 126.913 93.1667 126.686 92.74C126.466 92.3133 126.356 91.82 126.356 91.26ZM131.126 91.27C131.126 90.83 131.036 90.4433 130.856 90.11C130.676 89.7767 130.429 89.52 130.116 89.34C129.809 89.16 129.469 89.07 129.096 89.07C128.709 89.07 128.363 89.1567 128.056 89.33C127.749 89.5033 127.506 89.7567 127.326 90.09C127.153 90.4167 127.066 90.8067 127.066 91.26C127.066 91.7067 127.153 92.1 127.326 92.44C127.506 92.7733 127.749 93.03 128.056 93.21C128.363 93.3833 128.709 93.47 129.096 93.47C129.469 93.47 129.809 93.38 130.116 93.2C130.429 93.02 130.676 92.7633 130.856 92.43C131.036 92.0967 131.126 91.71 131.126 91.27ZM139.438 90.39C139.831 90.4633 140.165 90.6633 140.438 90.99C140.711 91.3167 140.848 91.6967 140.848 92.13C140.848 92.4833 140.758 92.8033 140.578 93.09C140.405 93.37 140.148 93.5933 139.808 93.76C139.468 93.92 139.061 94 138.588 94H136.168V87.01H138.518C139.225 87.01 139.761 87.1733 140.128 87.5C140.501 87.8267 140.688 88.25 140.688 88.77C140.688 89.2033 140.571 89.5567 140.338 89.83C140.105 90.0967 139.805 90.2833 139.438 90.39ZM136.868 90.1H138.498C138.971 90.1 139.335 89.99 139.588 89.77C139.848 89.5433 139.978 89.2333 139.978 88.84C139.978 88.4533 139.848 88.15 139.588 87.93C139.335 87.71 138.961 87.6 138.468 87.6H136.868V90.1ZM138.538 93.41C139.045 93.41 139.438 93.29 139.718 93.05C140.005 92.81 140.148 92.48 140.148 92.06C140.148 91.64 139.998 91.3067 139.698 91.06C139.405 90.8067 139.008 90.68 138.508 90.68H136.868V93.41H138.538ZM147.075 90.99C147.075 91.23 147.068 91.4133 147.055 91.54H142.525C142.545 91.9533 142.645 92.3067 142.825 92.6C143.005 92.8933 143.242 93.1167 143.535 93.27C143.828 93.4167 144.148 93.49 144.495 93.49C144.948 93.49 145.328 93.38 145.635 93.16C145.948 92.94 146.155 92.6433 146.255 92.27H146.995C146.862 92.8033 146.575 93.24 146.135 93.58C145.702 93.9133 145.155 94.08 144.495 94.08C143.982 94.08 143.522 93.9667 143.115 93.74C142.708 93.5067 142.388 93.18 142.155 92.76C141.928 92.3333 141.815 91.8367 141.815 91.27C141.815 90.7033 141.928 90.2067 142.155 89.78C142.382 89.3533 142.698 89.0267 143.105 88.8C143.512 88.5733 143.975 88.46 144.495 88.46C145.015 88.46 145.468 88.5733 145.855 88.8C146.248 89.0267 146.548 89.3333 146.755 89.72C146.968 90.1 147.075 90.5233 147.075 90.99ZM146.365 90.97C146.372 90.5633 146.288 90.2167 146.115 89.93C145.948 89.6433 145.718 89.4267 145.425 89.28C145.132 89.1333 144.812 89.06 144.465 89.06C143.945 89.06 143.502 89.2267 143.135 89.56C142.768 89.8933 142.565 90.3633 142.525 90.97H146.365ZM150.916 88.44C151.569 88.44 152.102 88.6433 152.516 89.05C152.929 89.45 153.136 90.0333 153.136 90.8V94H152.446V90.88C152.446 90.2867 152.296 89.8333 151.996 89.52C151.702 89.2067 151.299 89.05 150.786 89.05C150.259 89.05 149.839 89.2167 149.526 89.55C149.212 89.8833 149.056 90.3733 149.056 91.02V94H148.356V88.54H149.056V89.47C149.229 89.1367 149.479 88.8833 149.806 88.71C150.132 88.53 150.502 88.44 150.916 88.44ZM156.974 88.46C157.487 88.46 157.934 88.58 158.314 88.82C158.694 89.06 158.967 89.3633 159.134 89.73V88.54H159.834V94.14C159.834 94.64 159.724 95.0833 159.504 95.47C159.29 95.8567 158.99 96.1533 158.604 96.36C158.217 96.5733 157.777 96.68 157.284 96.68C156.584 96.68 156 96.5133 155.534 96.18C155.074 95.8467 154.787 95.3933 154.674 94.82H155.364C155.484 95.2 155.71 95.5033 156.044 95.73C156.384 95.9567 156.797 96.07 157.284 96.07C157.637 96.07 157.954 95.9933 158.234 95.84C158.514 95.6933 158.734 95.4733 158.894 95.18C159.054 94.8867 159.134 94.54 159.134 94.14V92.79C158.96 93.1633 158.684 93.4733 158.304 93.72C157.93 93.96 157.487 94.08 156.974 94.08C156.474 94.08 156.024 93.9633 155.624 93.73C155.23 93.4967 154.92 93.1667 154.694 92.74C154.474 92.3133 154.364 91.82 154.364 91.26C154.364 90.7 154.474 90.21 154.694 89.79C154.92 89.3633 155.23 89.0367 155.624 88.81C156.024 88.5767 156.474 88.46 156.974 88.46ZM159.134 91.27C159.134 90.83 159.044 90.4433 158.864 90.11C158.684 89.7767 158.437 89.52 158.124 89.34C157.817 89.16 157.477 89.07 157.104 89.07C156.717 89.07 156.37 89.1567 156.064 89.33C155.757 89.5033 155.514 89.7567 155.334 90.09C155.16 90.4167 155.074 90.8067 155.074 91.26C155.074 91.7067 155.16 92.1 155.334 92.44C155.514 92.7733 155.757 93.03 156.064 93.21C156.37 93.3833 156.717 93.47 157.104 93.47C157.477 93.47 157.817 93.38 158.124 93.2C158.437 93.02 158.684 92.7633 158.864 92.43C159.044 92.0967 159.134 91.71 159.134 91.27ZM161.112 91.26C161.112 90.7 161.222 90.21 161.442 89.79C161.669 89.3633 161.979 89.0367 162.372 88.81C162.772 88.5767 163.222 88.46 163.722 88.46C164.242 88.46 164.689 88.58 165.062 88.82C165.442 89.06 165.715 89.3667 165.882 89.74V88.54H166.582V94H165.882V92.79C165.709 93.1633 165.432 93.4733 165.052 93.72C164.679 93.96 164.232 94.08 163.712 94.08C163.219 94.08 162.772 93.9633 162.372 93.73C161.979 93.4967 161.669 93.1667 161.442 92.74C161.222 92.3133 161.112 91.82 161.112 91.26ZM165.882 91.27C165.882 90.83 165.792 90.4433 165.612 90.11C165.432 89.7767 165.185 89.52 164.872 89.34C164.565 89.16 164.225 89.07 163.852 89.07C163.465 89.07 163.119 89.1567 162.812 89.33C162.505 89.5033 162.262 89.7567 162.082 90.09C161.909 90.4167 161.822 90.8067 161.822 91.26C161.822 91.7067 161.909 92.1 162.082 92.44C162.262 92.7733 162.505 93.03 162.812 93.21C163.119 93.3833 163.465 93.47 163.852 93.47C164.225 93.47 164.565 93.38 164.872 93.2C165.185 93.02 165.432 92.7633 165.612 92.43C165.792 92.0967 165.882 91.71 165.882 91.27ZM168.88 86.6V94H168.18V86.6H168.88ZM175.195 88.54V94H174.495V93.04C174.335 93.38 174.088 93.64 173.755 93.82C173.422 94 173.048 94.09 172.635 94.09C171.982 94.09 171.448 93.89 171.035 93.49C170.622 93.0833 170.415 92.4967 170.415 91.73V88.54H171.105V91.65C171.105 92.2433 171.252 92.6967 171.545 93.01C171.845 93.3233 172.252 93.48 172.765 93.48C173.292 93.48 173.712 93.3133 174.025 92.98C174.338 92.6467 174.495 92.1567 174.495 91.51V88.54H175.195ZM177.493 89.51C177.646 89.17 177.88 88.9067 178.193 88.72C178.513 88.5333 178.903 88.44 179.363 88.44V89.17H179.173C178.666 89.17 178.26 89.3067 177.953 89.58C177.646 89.8533 177.493 90.31 177.493 90.95V94H176.793V88.54H177.493V89.51ZM185.146 88.54V94H184.446V93.04C184.286 93.38 184.04 93.64 183.706 93.82C183.373 94 183 94.09 182.586 94.09C181.933 94.09 181.4 93.89 180.986 93.49C180.573 93.0833 180.366 92.4967 180.366 91.73V88.54H181.056V91.65C181.056 92.2433 181.203 92.6967 181.496 93.01C181.796 93.3233 182.203 93.48 182.716 93.48C183.243 93.48 183.663 93.3133 183.976 92.98C184.29 92.6467 184.446 92.1567 184.446 91.51V88.54H185.146ZM53.2162 107.34H50.0362L49.4262 109H48.6862L51.2362 102.1H52.0262L54.5662 109H53.8262L53.2162 107.34ZM53.0062 106.76L51.6262 102.98L50.2462 106.76H53.0062ZM56.3896 101.6V109H55.6896V101.6H56.3896ZM58.6748 101.6V109H57.9748V101.6H58.6748ZM63.7041 104.51C63.8574 104.17 64.0908 103.907 64.4041 103.72C64.7241 103.533 65.1141 103.44 65.5741 103.44V104.17H65.3841C64.8774 104.17 64.4708 104.307 64.1641 104.58C63.8574 104.853 63.7041 105.31 63.7041 105.95V109H63.0041V103.54H63.7041V104.51ZM66.9771 102.51C66.8371 102.51 66.7171 102.46 66.6171 102.36C66.5171 102.26 66.4671 102.137 66.4671 101.99C66.4671 101.843 66.5171 101.723 66.6171 101.63C66.7171 101.53 66.8371 101.48 66.9771 101.48C67.1171 101.48 67.2371 101.53 67.3371 101.63C67.4371 101.723 67.4871 101.843 67.4871 101.99C67.4871 102.137 67.4371 102.26 67.3371 102.36C67.2371 102.46 67.1171 102.51 66.9771 102.51ZM67.3271 103.54V109H66.6271V103.54H67.3271ZM71.2023 103.46C71.7156 103.46 72.1623 103.58 72.5423 103.82C72.9223 104.06 73.1956 104.363 73.3623 104.73V103.54H74.0623V109.14C74.0623 109.64 73.9523 110.083 73.7323 110.47C73.519 110.857 73.219 111.153 72.8323 111.36C72.4456 111.573 72.0056 111.68 71.5123 111.68C70.8123 111.68 70.229 111.513 69.7623 111.18C69.3023 110.847 69.0156 110.393 68.9023 109.82H69.5923C69.7123 110.2 69.939 110.503 70.2723 110.73C70.6123 110.957 71.0256 111.07 71.5123 111.07C71.8656 111.07 72.1823 110.993 72.4623 110.84C72.7423 110.693 72.9623 110.473 73.1223 110.18C73.2823 109.887 73.3623 109.54 73.3623 109.14V107.79C73.189 108.163 72.9123 108.473 72.5323 108.72C72.159 108.96 71.7156 109.08 71.2023 109.08C70.7023 109.08 70.2523 108.963 69.8523 108.73C69.459 108.497 69.149 108.167 68.9223 107.74C68.7023 107.313 68.5923 106.82 68.5923 106.26C68.5923 105.7 68.7023 105.21 68.9223 104.79C69.149 104.363 69.459 104.037 69.8523 103.81C70.2523 103.577 70.7023 103.46 71.2023 103.46ZM73.3623 106.27C73.3623 105.83 73.2723 105.443 73.0923 105.11C72.9123 104.777 72.6656 104.52 72.3523 104.34C72.0456 104.16 71.7056 104.07 71.3323 104.07C70.9456 104.07 70.599 104.157 70.2923 104.33C69.9856 104.503 69.7423 104.757 69.5623 105.09C69.389 105.417 69.3023 105.807 69.3023 106.26C69.3023 106.707 69.389 107.1 69.5623 107.44C69.7423 107.773 69.9856 108.03 70.2923 108.21C70.599 108.383 70.9456 108.47 71.3323 108.47C71.7056 108.47 72.0456 108.38 72.3523 108.2C72.6656 108.02 72.9123 107.763 73.0923 107.43C73.2723 107.097 73.3623 106.71 73.3623 106.27ZM78.2604 103.44C78.6737 103.44 79.0437 103.527 79.3704 103.7C79.7037 103.873 79.9637 104.14 80.1504 104.5C80.3437 104.853 80.4404 105.287 80.4404 105.8V109H79.7504V105.88C79.7504 105.287 79.6004 104.833 79.3004 104.52C79.007 104.207 78.6037 104.05 78.0904 104.05C77.5637 104.05 77.1437 104.217 76.8304 104.55C76.517 104.883 76.3604 105.373 76.3604 106.02V109H75.6604V101.6H76.3604V104.47C76.5337 104.143 76.787 103.89 77.1204 103.71C77.4604 103.53 77.8404 103.44 78.2604 103.44ZM82.8985 104.13V107.52C82.8985 107.853 82.9618 108.083 83.0885 108.21C83.2151 108.337 83.4385 108.4 83.7585 108.4H84.3985V109H83.6485C83.1551 109 82.7885 108.887 82.5485 108.66C82.3085 108.427 82.1885 108.047 82.1885 107.52V104.13H81.4285V103.54H82.1885V102.17H82.8985V103.54H84.3985V104.13H82.8985ZM87.4329 109.08C86.8063 109.08 86.2929 108.937 85.8929 108.65C85.4996 108.357 85.2796 107.96 85.2329 107.46H85.9529C85.9863 107.767 86.1296 108.017 86.3829 108.21C86.6429 108.397 86.9896 108.49 87.4229 108.49C87.8029 108.49 88.0996 108.4 88.3129 108.22C88.5329 108.04 88.6429 107.817 88.6429 107.55C88.6429 107.363 88.5829 107.21 88.4629 107.09C88.3429 106.97 88.1896 106.877 88.0029 106.81C87.8229 106.737 87.5763 106.66 87.2629 106.58C86.8563 106.473 86.5263 106.367 86.2729 106.26C86.0196 106.153 85.8029 105.997 85.6229 105.79C85.4496 105.577 85.3629 105.293 85.3629 104.94C85.3629 104.673 85.4429 104.427 85.6029 104.2C85.7629 103.973 85.9896 103.793 86.2829 103.66C86.5763 103.527 86.9096 103.46 87.2829 103.46C87.8696 103.46 88.3429 103.61 88.7029 103.91C89.0629 104.203 89.2563 104.61 89.2829 105.13H88.5829C88.5629 104.81 88.4363 104.553 88.2029 104.36C87.9763 104.16 87.6629 104.06 87.2629 104.06C86.9096 104.06 86.6229 104.143 86.4029 104.31C86.1829 104.477 86.0729 104.683 86.0729 104.93C86.0729 105.143 86.1363 105.32 86.2629 105.46C86.3963 105.593 86.5596 105.7 86.7529 105.78C86.9463 105.853 87.2063 105.937 87.5329 106.03C87.9263 106.137 88.2396 106.24 88.4729 106.34C88.7063 106.44 88.9063 106.587 89.0729 106.78C89.2396 106.973 89.3263 107.23 89.3329 107.55C89.3329 107.843 89.2529 108.107 89.0929 108.34C88.9329 108.567 88.7096 108.747 88.4229 108.88C88.1363 109.013 87.8063 109.08 87.4329 109.08ZM94.0947 104.51C94.2481 104.17 94.4814 103.907 94.7947 103.72C95.1147 103.533 95.5047 103.44 95.9647 103.44V104.17H95.7747C95.2681 104.17 94.8614 104.307 94.5547 104.58C94.2481 104.853 94.0947 105.31 94.0947 105.95V109H93.3947V103.54H94.0947V104.51ZM101.958 105.99C101.958 106.23 101.951 106.413 101.938 106.54H97.4078C97.4278 106.953 97.5278 107.307 97.7078 107.6C97.8878 107.893 98.1244 108.117 98.4178 108.27C98.7111 108.417 99.0311 108.49 99.3778 108.49C99.8311 108.49 100.211 108.38 100.518 108.16C100.831 107.94 101.038 107.643 101.138 107.27H101.878C101.744 107.803 101.458 108.24 101.018 108.58C100.584 108.913 100.038 109.08 99.3778 109.08C98.8644 109.08 98.4044 108.967 97.9978 108.74C97.5911 108.507 97.2711 108.18 97.0378 107.76C96.8111 107.333 96.6978 106.837 96.6978 106.27C96.6978 105.703 96.8111 105.207 97.0378 104.78C97.2644 104.353 97.5811 104.027 97.9878 103.8C98.3944 103.573 98.8578 103.46 99.3778 103.46C99.8978 103.46 100.351 103.573 100.738 103.8C101.131 104.027 101.431 104.333 101.638 104.72C101.851 105.1 101.958 105.523 101.958 105.99ZM101.248 105.97C101.254 105.563 101.171 105.217 100.998 104.93C100.831 104.643 100.601 104.427 100.308 104.28C100.014 104.133 99.6944 104.06 99.3478 104.06C98.8278 104.06 98.3844 104.227 98.0178 104.56C97.6511 104.893 97.4478 105.363 97.4078 105.97H101.248ZM105.118 109.08C104.492 109.08 103.978 108.937 103.578 108.65C103.185 108.357 102.965 107.96 102.918 107.46H103.638C103.672 107.767 103.815 108.017 104.068 108.21C104.328 108.397 104.675 108.49 105.108 108.49C105.488 108.49 105.785 108.4 105.998 108.22C106.218 108.04 106.328 107.817 106.328 107.55C106.328 107.363 106.268 107.21 106.148 107.09C106.028 106.97 105.875 106.877 105.688 106.81C105.508 106.737 105.262 106.66 104.948 106.58C104.542 106.473 104.212 106.367 103.958 106.26C103.705 106.153 103.488 105.997 103.308 105.79C103.135 105.577 103.048 105.293 103.048 104.94C103.048 104.673 103.128 104.427 103.288 104.2C103.448 103.973 103.675 103.793 103.968 103.66C104.262 103.527 104.595 103.46 104.968 103.46C105.555 103.46 106.028 103.61 106.388 103.91C106.748 104.203 106.942 104.61 106.968 105.13H106.268C106.248 104.81 106.122 104.553 105.888 104.36C105.662 104.16 105.348 104.06 104.948 104.06C104.595 104.06 104.308 104.143 104.088 104.31C103.868 104.477 103.758 104.683 103.758 104.93C103.758 105.143 103.822 105.32 103.948 105.46C104.082 105.593 104.245 105.7 104.438 105.78C104.632 105.853 104.892 105.937 105.218 106.03C105.612 106.137 105.925 106.24 106.158 106.34C106.392 106.44 106.592 106.587 106.758 106.78C106.925 106.973 107.012 107.23 107.018 107.55C107.018 107.843 106.938 108.107 106.778 108.34C106.618 108.567 106.395 108.747 106.108 108.88C105.822 109.013 105.492 109.08 105.118 109.08ZM113.276 105.99C113.276 106.23 113.269 106.413 113.256 106.54H108.726C108.746 106.953 108.846 107.307 109.026 107.6C109.206 107.893 109.443 108.117 109.736 108.27C110.029 108.417 110.349 108.49 110.696 108.49C111.149 108.49 111.529 108.38 111.836 108.16C112.149 107.94 112.356 107.643 112.456 107.27H113.196C113.063 107.803 112.776 108.24 112.336 108.58C111.903 108.913 111.356 109.08 110.696 109.08C110.183 109.08 109.723 108.967 109.316 108.74C108.909 108.507 108.589 108.18 108.356 107.76C108.129 107.333 108.016 106.837 108.016 106.27C108.016 105.703 108.129 105.207 108.356 104.78C108.583 104.353 108.899 104.027 109.306 103.8C109.713 103.573 110.176 103.46 110.696 103.46C111.216 103.46 111.669 103.573 112.056 103.8C112.449 104.027 112.749 104.333 112.956 104.72C113.169 105.1 113.276 105.523 113.276 105.99ZM112.566 105.97C112.573 105.563 112.489 105.217 112.316 104.93C112.149 104.643 111.919 104.427 111.626 104.28C111.333 104.133 111.013 104.06 110.666 104.06C110.146 104.06 109.703 104.227 109.336 104.56C108.969 104.893 108.766 105.363 108.726 105.97H112.566ZM115.257 104.51C115.41 104.17 115.644 103.907 115.957 103.72C116.277 103.533 116.667 103.44 117.127 103.44V104.17H116.937C116.43 104.17 116.024 104.307 115.717 104.58C115.41 104.853 115.257 105.31 115.257 105.95V109H114.557V103.54H115.257V104.51ZM120.12 108.32L121.96 103.54H122.7L120.51 109H119.72L117.53 103.54H118.28L120.12 108.32ZM128.589 105.99C128.589 106.23 128.582 106.413 128.569 106.54H124.039C124.059 106.953 124.159 107.307 124.339 107.6C124.519 107.893 124.755 108.117 125.049 108.27C125.342 108.417 125.662 108.49 126.009 108.49C126.462 108.49 126.842 108.38 127.149 108.16C127.462 107.94 127.669 107.643 127.769 107.27H128.509C128.375 107.803 128.089 108.24 127.649 108.58C127.215 108.913 126.669 109.08 126.009 109.08C125.495 109.08 125.035 108.967 124.629 108.74C124.222 108.507 123.902 108.18 123.669 107.76C123.442 107.333 123.329 106.837 123.329 106.27C123.329 105.703 123.442 105.207 123.669 104.78C123.895 104.353 124.212 104.027 124.619 103.8C125.025 103.573 125.489 103.46 126.009 103.46C126.529 103.46 126.982 103.573 127.369 103.8C127.762 104.027 128.062 104.333 128.269 104.72C128.482 105.1 128.589 105.523 128.589 105.99ZM127.879 105.97C127.885 105.563 127.802 105.217 127.629 104.93C127.462 104.643 127.232 104.427 126.939 104.28C126.645 104.133 126.325 104.06 125.979 104.06C125.459 104.06 125.015 104.227 124.649 104.56C124.282 104.893 124.079 105.363 124.039 105.97H127.879ZM129.549 106.26C129.549 105.7 129.663 105.21 129.889 104.79C130.116 104.363 130.426 104.037 130.819 103.81C131.219 103.577 131.669 103.46 132.169 103.46C132.649 103.46 133.083 103.577 133.469 103.81C133.856 104.043 134.139 104.347 134.319 104.72V101.6H135.019V109H134.319V107.78C134.153 108.16 133.879 108.473 133.499 108.72C133.119 108.96 132.673 109.08 132.159 109.08C131.659 109.08 131.209 108.963 130.809 108.73C130.416 108.497 130.106 108.167 129.879 107.74C129.659 107.313 129.549 106.82 129.549 106.26ZM134.319 106.27C134.319 105.83 134.229 105.443 134.049 105.11C133.869 104.777 133.623 104.52 133.309 104.34C133.003 104.16 132.663 104.07 132.289 104.07C131.903 104.07 131.556 104.157 131.249 104.33C130.943 104.503 130.699 104.757 130.519 105.09C130.346 105.417 130.259 105.807 130.259 106.26C130.259 106.707 130.346 107.1 130.519 107.44C130.699 107.773 130.943 108.03 131.249 108.21C131.556 108.383 131.903 108.47 132.289 108.47C132.663 108.47 133.003 108.38 133.309 108.2C133.623 108.02 133.869 107.763 134.049 107.43C134.229 107.097 134.319 106.71 134.319 106.27ZM136.737 109.05C136.591 109.05 136.467 109 136.367 108.9C136.274 108.8 136.227 108.677 136.227 108.53C136.227 108.383 136.274 108.263 136.367 108.17C136.467 108.07 136.591 108.02 136.737 108.02C136.877 108.02 136.994 108.07 137.087 108.17C137.187 108.263 137.237 108.383 137.237 108.53C137.237 108.677 137.187 108.8 137.087 108.9C136.994 109 136.877 109.05 136.737 109.05Z" fill="#C5C5C5"/>
</svg>
