<svg width="23" height="22" viewBox="0 0 23 22" fill="none" xmlns="http://www.w3.org/2000/svg">
<path fill-rule="evenodd" clip-rule="evenodd" d="M10.3023 0.662146C9.92704 1.01368 7.50828 3.25394 4.92751 5.64054C-0.71767 10.8608 -1.20098 11.8523 1.89916 11.8523H2.94382V16.7075C2.94382 22.5866 2.53076 21.9745 6.49883 21.9745C10.3922 21.9745 10.0538 22.2961 10.0538 18.5947V15.6267H11.5774H13.101V18.5947C13.101 20.6744 13.1618 21.6243 13.3041 21.7686C13.6466 22.1157 19.975 22.0548 20.1082 21.7031C20.1648 21.5538 20.211 19.2763 20.211 16.642V11.8523H21.2851C23.348 11.8523 23.5789 10.6078 21.8192 8.97365L20.7189 7.95183V4.86199C20.7189 2.44005 20.6682 1.72961 20.4846 1.57503C19.9985 1.1662 14.9071 1.40673 14.7161 1.84764C14.5609 2.20603 14.4996 2.17361 13.3365 1.1185C11.8327 -0.245418 11.3494 -0.318161 10.3023 0.662146ZM12.4902 2.49666C12.9657 2.91819 13.7358 3.61233 14.2013 4.03918C15.4544 5.18779 16.1481 5.01108 16.1481 3.54285V2.93106H17.6717H19.1953V5.80472L19.1951 8.67839L20.084 9.48594L20.9728 10.2933L20.0961 10.3009C18.6422 10.3132 18.6874 10.1416 18.6874 15.6388V20.4304H16.656H14.6246V17.4624C14.6246 13.7925 14.8861 14.0826 11.5774 14.0826C8.26871 14.0826 8.53026 13.7925 8.53026 17.4624V20.4304H6.49883H4.46739V15.6533C4.46739 10.2225 4.50633 10.3738 3.08111 10.2765L2.28987 10.2225L6.88802 5.97629C9.41715 3.64081 11.5177 1.73012 11.5559 1.73012C11.5942 1.73012 12.0147 2.07513 12.4902 2.49666Z" fill="white"/>
</svg>
