<svg width="22" height="22" viewBox="0 0 22 22" fill="none" xmlns="http://www.w3.org/2000/svg">
<path fill-rule="evenodd" clip-rule="evenodd" d="M9.62175 0.0852666C0.572943 1.20301 -3.23201 12.3185 3.22444 18.7739C9.69685 25.2452 20.827 21.4116 21.9192 12.3347C22.7739 5.2312 16.7268 -0.792362 9.62175 0.0852666ZM12.3544 1.43402C19.6983 2.5143 23.2093 11.2429 18.5997 16.9602C18.3194 17.3078 18.3477 17.3187 18.1781 16.7971C17.5037 14.7234 15.6959 12.8028 13.7796 12.1241L13.6343 12.0727L13.763 11.9822C17.3659 9.45209 15.4382 3.64826 10.995 3.64826C6.54793 3.64826 4.65054 9.3017 8.20487 11.9618L8.35435 12.0737L8.11905 12.1695C6.11608 12.9845 4.51707 14.6882 3.82941 16.74C3.63655 17.3154 3.66521 17.301 3.39039 16.9602C-1.99615 10.2794 3.8343 0.180693 12.3544 1.43402ZM11.7889 5.04048C14.2862 5.67907 15.1386 8.72258 13.3339 10.5567C11.6565 12.2614 8.8192 11.6859 7.91932 9.45844C6.92876 7.00654 9.22509 4.38485 11.7889 5.04048ZM12.1323 13.0404C14.5913 13.4864 16.601 15.4754 17.1075 17.9645C17.2034 18.4358 17.2095 18.42 16.8186 18.7109C13.2999 21.3288 8.71681 21.3288 5.16852 18.7109L4.81362 18.4491L4.83829 18.2345C5.22049 14.9101 8.71603 12.4209 12.1323 13.0404Z" fill="white"/>
</svg>
