<svg width="26" height="22" viewBox="0 0 26 22" fill="none" xmlns="http://www.w3.org/2000/svg">
<path fill-rule="evenodd" clip-rule="evenodd" d="M7.18525 0.0836086C2.45758 0.605168 -0.232438 5.53495 1.69847 10.1389C1.73386 10.2232 1.6877 10.2305 1.10932 10.2308C0.248028 10.2312 0 10.4066 0 11.015C0 11.7068 0.190642 11.7988 1.62407 11.7993L2.76635 11.7996L7.66734 16.8435C12.0604 21.3646 12.5907 21.8934 12.7842 21.9455C13.2813 22.0794 12.9408 22.3925 18.3327 16.8435L23.2337 11.7996L24.3759 11.7993C25.8094 11.7988 26 11.7068 26 11.015C26 10.4066 25.752 10.2312 24.8907 10.2308C24.3123 10.2305 24.2661 10.2232 24.3015 10.1389C27.3182 2.9462 18.9199 -3.34097 13.4173 1.99074L13 2.39514L12.5827 1.99074C11.123 0.576346 9.12331 -0.130173 7.18525 0.0836086ZM8.43078 1.70614C9.79026 1.87734 10.6789 2.35951 11.9122 3.59518C12.964 4.64891 13.0378 4.64975 14.0636 3.61987C16.0302 1.64546 18.1088 1.15382 20.2837 2.14877C23.1469 3.4586 24.2829 7.39674 22.5472 9.99533L22.3893 10.2316L20.4304 10.218L18.4716 10.2042L17.576 8.7514C16.5907 7.15304 16.5372 7.09283 16.1038 7.09231C15.6165 7.09168 15.6417 7.05805 14.2418 9.57342C13.5448 10.8257 12.9599 11.8506 12.9419 11.851C12.9238 11.8516 12.6067 11.2341 12.2372 10.4789C9.41857 4.71869 9.58255 4.99964 9.03886 4.99964C8.46663 4.99964 8.55042 4.85631 7.25762 8.04567L6.37271 10.2287L4.99129 10.2295L3.60987 10.2304L3.45244 9.9947C1.03188 6.37104 4.15701 1.16795 8.43078 1.70614ZM9.70403 8.93579C12.3488 14.3929 12.3616 14.415 12.8984 14.415C13.3807 14.415 13.3543 14.4505 14.8004 11.8553C15.5219 10.5605 16.129 9.5118 16.1497 9.52493C16.1702 9.53806 16.4736 10.014 16.8237 10.5826C17.6493 11.9238 17.3884 11.7996 19.3811 11.7996H20.9984L16.9992 15.9188L13 20.038L9.00082 15.9188L5.00165 11.7996L6.09345 11.7993C7.5871 11.7988 7.36015 12.0108 8.28 9.75681C8.6492 8.85215 8.98269 8.03541 9.02114 7.94194C9.11849 7.70504 9.08142 7.65106 9.70403 8.93579Z" fill="white"/>
</svg>
