<svg width="24" height="22" viewBox="0 0 24 22" fill="none" xmlns="http://www.w3.org/2000/svg">
<path fill-rule="evenodd" clip-rule="evenodd" d="M10.2046 0.0555549C10.1066 0.0783855 9.90689 0.153002 9.76083 0.221401L9.49528 0.345809L9.23592 0.606273C9.09328 0.749521 8.93072 0.923349 8.87466 0.992583L8.7727 1.11838H8.6093C7.54805 1.11838 6.66038 2.153 6.65705 3.39374L6.65625 3.69698L6.52209 3.77541C6.44831 3.81856 6.25552 3.99401 6.0937 4.16529L5.79942 4.47666L5.66447 4.76213C5.59027 4.91916 5.49867 5.19197 5.46089 5.3684L5.39227 5.68914V6.22278V6.75642L5.46112 7.08124C5.49905 7.2599 5.60381 7.55451 5.694 7.73591L5.85792 8.06574L6.21038 8.39716C6.4042 8.57943 6.58383 8.72857 6.60952 8.72857H6.65625L6.65695 9.065C6.65948 10.3031 7.35558 11.1378 8.54123 11.3246L8.83594 11.371L8.90611 11.4767C9.31973 12.0996 9.98667 12.4409 10.7906 12.4409H11.1553L11.398 12.3495C11.5315 12.2993 11.7223 12.1933 11.822 12.1141L12.0031 11.97L12.1618 12.1078C12.249 12.1837 12.439 12.2896 12.5839 12.3433L12.8473 12.4409H13.2106C14.0075 12.4409 14.6835 12.0947 15.0939 11.4767L15.1641 11.371L15.4588 11.3246C16.6517 11.1367 17.3397 10.3032 17.343 9.0418L17.3438 8.72857H17.3905C17.4162 8.72857 17.5958 8.57943 17.7896 8.39716L18.1421 8.06574L18.306 7.73591C18.3962 7.55451 18.501 7.2599 18.5389 7.08124L18.6077 6.75642V6.22278V5.68914L18.5385 5.36431C18.4104 4.76283 17.9939 4.13169 17.5096 3.8052L17.3444 3.69378L17.3432 3.39216C17.3386 2.15179 16.4512 1.11838 15.3907 1.11838H15.2273L15.1253 0.992583C15.0693 0.923349 14.9067 0.749521 14.7641 0.606273L14.5047 0.345809L14.2432 0.223304C13.546 -0.103192 12.7104 -0.0686675 12.2129 0.307248L12 0.468129L11.7871 0.307248C11.67 0.218756 11.4658 0.114487 11.3333 0.0755084L11.0924 0.00469652L10.7376 0.0093369C10.5425 0.0119355 10.3026 0.0326779 10.2046 0.0555549ZM11.1112 1.04975L11.2491 1.12029L11.3478 1.31179L11.4465 1.5033L11.4914 1.98339L11.5363 2.46348L11.5187 6.60528L11.5011 10.7471L11.4413 10.9399C11.4084 11.0459 11.3236 11.2014 11.2528 11.2853L11.1241 11.4378L10.8205 11.457L10.5168 11.4761L10.2744 11.3729L10.032 11.2697L9.86756 11.0895C9.66478 10.8673 9.66478 10.8597 9.86883 10.6823C10.0525 10.5227 10.0557 10.5219 10.5337 10.5179L10.8721 10.5151L10.9677 10.4206C11.0203 10.3687 11.0814 10.2635 11.1037 10.1869L11.144 10.0476L11.0915 9.89126C11.0627 9.80527 10.983 9.69381 10.9144 9.64351L10.7898 9.55205L10.4656 9.52908L10.1414 9.50611L9.86981 9.5843C9.47869 9.69683 9.16819 9.90815 8.93498 10.2204L8.80852 10.3898L8.56444 10.3332C8.24634 10.2595 8.15934 10.2099 7.95487 9.98583L7.785 9.79971L7.70662 9.53289L7.6283 9.26606L7.6582 8.88059L7.68816 8.49512L7.62033 8.33442L7.5525 8.17377L7.32703 8.02263C7.20305 7.93953 6.98325 7.75493 6.83864 7.61243L6.57567 7.35331L6.48708 7.10124L6.39844 6.84923V6.19958V5.54993L6.53344 5.26065L6.66839 4.97132L6.88659 4.77341C7.00664 4.66455 7.20558 4.50714 7.32867 4.42362L7.5525 4.27179L7.62033 4.11114L7.68816 3.95044L7.6582 3.56497L7.6283 3.17949L7.70662 2.91267L7.785 2.64585L7.94827 2.46692C8.14678 2.24947 8.34802 2.15021 8.72334 2.08478L9.0082 2.03513L9.11334 2.09082C9.17119 2.12144 9.25327 2.20483 9.29578 2.27601L9.37303 2.40553L9.3623 2.69365L9.35156 2.98177L9.50466 3.11736L9.65775 3.25295H9.83817H10.0186L10.1405 3.15805C10.4775 2.89559 10.4204 2.1027 10.0274 1.58873L9.84694 1.35272L10.0093 1.23012C10.3304 0.987664 10.8302 0.905854 11.1112 1.04975ZM13.8465 1.13616C13.9635 1.20409 14.1158 1.33295 14.1848 1.42256L14.3103 1.58543L14.1982 1.70437C14.1364 1.76975 14.0241 1.85509 13.9485 1.89402L13.8111 1.96474L13.5267 1.93611L13.2422 1.90748L13.0916 1.99838L12.9411 2.08933L12.9001 2.24191L12.8591 2.39448L12.8969 2.5285C12.9774 2.81434 13.2049 2.92738 13.7004 2.92784L13.9711 2.92812L14.226 2.83945C14.5488 2.7271 14.867 2.50191 15.0281 2.27184L15.1534 2.09286H15.2705C15.3349 2.09286 15.4742 2.11857 15.5802 2.14998L15.7728 2.2071L15.9915 2.4168L16.2104 2.6265L16.291 2.90297L16.3717 3.17949L16.3418 3.56497L16.3118 3.95044L16.3797 4.11114L16.4475 4.27179L16.6713 4.42362C16.7944 4.50714 16.9934 4.66455 17.1134 4.77341L17.3316 4.97132L17.4666 5.26065L17.6016 5.54993V6.19958V6.84923L17.517 7.08918C17.4132 7.38366 17.1397 7.69878 16.7751 7.94389C16.6237 8.04565 16.4631 8.1844 16.4182 8.25224L16.3366 8.37549L16.3363 8.93488L16.3359 9.49423L16.2377 9.70305C16.0498 10.1026 15.7315 10.3071 15.1828 10.3808L14.9672 10.4098L14.8669 10.3567C14.8117 10.3275 14.7352 10.2435 14.6969 10.1701L14.6271 10.0365L14.6378 9.75015L14.6484 9.46379L14.4953 9.3282L14.3422 9.19261H14.1618H13.9814L13.8595 9.2875C13.5235 9.54917 13.5805 10.3714 13.9683 10.8571L14.1536 11.0891L14.0161 11.2036C13.9406 11.2666 13.7837 11.354 13.6675 11.3979L13.4564 11.4778L13.1654 11.4569L12.8744 11.4361L12.7464 11.2844C12.6761 11.201 12.5916 11.0459 12.5587 10.9399L12.4988 10.7471L12.4813 6.57382L12.4637 2.40051L12.5092 1.95077L12.5547 1.50103L12.6526 1.31105C12.7065 1.20655 12.8084 1.08864 12.8792 1.04896L13.0078 0.976852L13.3207 0.994763L13.6336 1.01268L13.8465 1.13616ZM1.02792 2.7568C0.566531 2.8859 0.233953 3.15968 0.0717656 3.54399L0 3.71401V8.00978V12.3055L0.0734531 12.6632C0.206437 13.3106 0.560625 14.0118 1.03125 14.5594L1.28906 14.8594L3.16406 16.3548L5.03906 17.8503L5.0625 19.8132L5.08594 21.7761L5.21747 21.888L5.349 22H7.18748H9.02602L9.12375 21.9323C9.17747 21.895 9.24642 21.8048 9.27694 21.7319L9.33239 21.5993L9.31734 18.4238L9.30225 15.2483L9.1778 14.7979C9.02592 14.2484 8.76722 13.6912 8.43703 13.2027L8.18873 12.8353L6.36783 11.0548L4.54688 9.27442V7.43206V5.58965L4.47305 5.37517C4.37522 5.09095 4.07602 4.76204 3.7792 4.61243L3.53906 4.49137L3.20503 4.46965L2.87095 4.44798L2.84888 4.11726L2.82675 3.78659L2.72316 3.54998C2.51972 3.08538 2.05205 2.76358 1.51608 2.71945L1.24219 2.69685L1.02792 2.7568ZM22.2532 2.7439C21.819 2.85184 21.4551 3.15374 21.276 3.55457L21.1723 3.78659L21.1507 4.11726L21.129 4.44798L20.795 4.46965L20.4609 4.49137L20.2208 4.61243C19.924 4.76204 19.6248 5.09095 19.527 5.37517L19.4531 5.58965V7.43206V9.27442L17.6322 11.0548L15.8113 12.8353L15.563 13.2027C15.2333 13.6905 14.9744 14.2476 14.8217 14.7979L14.6967 15.2483L14.696 18.5121L14.6953 21.776L14.8268 21.888L14.9584 22H16.8047H18.651L18.7825 21.888L18.9141 21.7761L18.9375 19.8141L18.9609 17.8521L20.8359 16.3556L22.7109 14.859L22.9688 14.5592C23.4392 14.0122 23.7935 13.3108 23.9265 12.6632L24 12.3055V7.99721V3.68882L23.8792 3.44877C23.7385 3.16942 23.5553 3.00265 23.2225 2.85119L22.9841 2.74269L22.7069 2.72135C22.5544 2.70961 22.3503 2.71972 22.2532 2.7439ZM1.73438 3.83522L1.85156 3.95123L1.85653 7.33303L1.86155 10.7148L2.02059 10.994L2.17969 11.2732L3.90703 13.0603C4.85709 14.0433 5.66564 14.8594 5.70384 14.8738C6.15731 15.0461 6.58336 14.5777 6.33403 14.181C6.28589 14.1044 5.51077 13.2818 4.61152 12.3529C2.6197 10.2953 2.67361 10.37 2.90747 9.99029L3.00206 9.83669L3.16913 9.7676L3.33619 9.69845L3.50794 9.75428L3.67969 9.81005L5.46094 11.5531C7.73691 13.7801 7.91709 14.0072 8.20978 15.0163L8.31745 15.3875L8.33264 18.2065L8.34783 21.0255H7.19733H6.04688L6.04617 19.2738L6.04552 17.5221L5.98659 17.406C5.9542 17.3422 5.02716 16.5696 3.92644 15.6891L1.9252 14.0882L1.68984 13.7959C1.40133 13.4377 1.15303 12.9375 1.05417 12.5155L0.979828 12.1982L0.983109 8.07479C0.986672 3.58636 0.97425 3.85007 1.18702 3.74353L1.33594 3.66896L1.47656 3.69411C1.55391 3.70794 1.66992 3.77142 1.73438 3.83522ZM22.7475 3.71309C22.8096 3.73647 22.8953 3.79016 22.938 3.83244L23.0156 3.90923L23.0149 8.07062L23.0142 12.232L22.9426 12.533C22.8454 12.9411 22.5941 13.4433 22.3105 13.7959L22.0755 14.0882L20.074 15.6891C18.9733 16.5696 18.0461 17.3422 18.0136 17.406L17.9545 17.5221L17.9538 19.2738L17.9531 21.0255H16.8047H15.6562V18.3624V15.6994L15.7302 15.3134C15.8255 14.816 16.0597 14.2442 16.3378 13.8302L16.5582 13.5021L18.3815 11.7069L20.2048 9.91186L20.4149 9.80119L20.625 9.69047L20.8001 9.75641L20.9751 9.82235L21.0813 9.97836C21.3221 10.3321 21.2871 10.3924 20.1797 11.5325C19.146 12.5968 19.123 12.6334 19.2895 12.9522C19.3804 13.1261 19.4917 13.1831 19.743 13.1843L19.9453 13.1854L20.8927 12.2215L21.8402 11.2576L21.9893 10.9834L22.1385 10.7092L22.1434 7.33401L22.1484 3.95889L22.2422 3.85564C22.3965 3.6858 22.5556 3.64088 22.7475 3.71309ZM8.86898 5.33369C8.73248 5.38176 8.54264 5.48324 8.44711 5.55921L8.27344 5.69735L8.1142 6.00399L7.95497 6.31067L7.9552 6.62635L7.95548 6.94203L8.06147 7.18528L8.16745 7.42848L8.34947 7.59131L8.53153 7.7541H8.71528H8.89908L9.03773 7.6386C9.25828 7.45489 9.26264 7.08895 9.04659 6.8954L8.95312 6.81164L8.95463 6.64482C8.95687 6.39248 9.13378 6.22278 9.39459 6.22278H9.51412L9.66722 6.08737L9.82031 5.95197V5.74041V5.52881L9.69558 5.40533L9.57084 5.2819L9.34402 5.26408L9.11719 5.24631L8.86898 5.33369ZM14.4609 5.28937C14.4094 5.31183 14.325 5.37656 14.2734 5.43331L14.1797 5.53647V5.74422V5.95197L14.3328 6.08737L14.4859 6.22278H14.6054C14.8662 6.22278 15.0431 6.39248 15.0454 6.64482L15.0469 6.81164L14.9534 6.8954C14.7374 7.08895 14.7417 7.45489 14.9623 7.6386L15.1009 7.7541H15.2847H15.4685L15.6505 7.59131L15.8325 7.42848L15.936 7.19034L16.0395 6.9522V6.6354V6.3186L15.9257 6.0735C15.7669 5.73146 15.599 5.55123 15.308 5.4103L15.0578 5.28914L14.8063 5.26886C14.6679 5.25772 14.5125 5.26696 14.4609 5.28937ZM3.42548 5.56955L3.5625 5.70519L3.56245 7.22848V8.75177L3.3398 8.75516C3.21736 8.75702 3.0592 8.77307 2.98828 8.79085L2.85938 8.82314V7.17725V5.53132L2.94141 5.48403C2.9865 5.458 3.08306 5.4361 3.15595 5.43531L3.28847 5.43392L3.42548 5.56955ZM21.05 5.48195L21.1406 5.52997V7.17452V8.81906L20.9883 8.78542C20.9045 8.7669 20.7463 8.75177 20.6367 8.75177H20.4375V7.22848V5.70519L20.5745 5.56955L20.7115 5.43392H20.8354C20.9035 5.43392 21.0001 5.45554 21.05 5.48195ZM18.018 13.8113C17.8477 13.8971 17.7656 14.0495 17.7656 14.2796V14.4434L17.9026 14.579L18.0397 14.7146H18.2051C18.4447 14.7146 18.5942 14.6312 18.6818 14.4485L18.7587 14.288L18.7302 14.1375C18.6937 13.9448 18.5257 13.7891 18.3231 13.7603L18.1641 13.7377L18.018 13.8113Z" fill="white"/>
</svg>
