<svg width="194" height="56" viewBox="0 0 194 56" fill="none" xmlns="http://www.w3.org/2000/svg">
<path fill-rule="evenodd" clip-rule="evenodd" d="M180.146 0.840044C180.146 1.51508 180.292 1.63948 181.09 1.63948H182.034V4.51744V7.3954H182.98H183.924V4.51744V1.63948H184.868C185.666 1.63948 185.813 1.51508 185.813 0.840044C185.813 0.0466871 185.792 0.0406114 182.98 0.0406114C180.167 0.0406114 180.146 0.0466871 180.146 0.840044ZM186.758 3.69786V7.3954H187.545C188.282 7.3954 188.334 7.28763 188.356 5.71658L188.381 4.03778L188.933 5.63664C189.788 8.11296 190.876 8.08898 191.739 5.57492L192.376 3.71801L192.401 5.5567C192.424 7.29818 192.467 7.3954 193.213 7.3954H194V3.69786V0L193.001 0.100409C192.056 0.195062 191.959 0.333523 191.183 2.70081L190.364 5.20143L189.567 2.70081C188.809 0.322012 188.721 0.195701 187.764 0.100409L186.758 0V3.69786ZM96.1536 2.67874C93.4559 5.47963 92.4097 10.3753 93.2347 16.349C93.3995 17.5389 93.3247 17.5766 91.6638 17.1447L90.8767 16.94L91.6201 17.6039L92.3635 18.2677L91.6201 18.2725C91.0247 18.2767 90.9701 18.339 91.3485 18.5874C91.6083 18.7579 92.1953 18.8996 92.6536 18.9025C94.0992 18.9108 93.2238 21.5108 90.7077 24.6789C89.8903 25.7085 90.0955 26.2361 91.6689 27.151C92.9799 27.913 93.2213 28.6165 92.5855 29.8221C92.3248 30.318 92.3753 30.6551 92.8109 31.3199C93.1195 31.7918 93.3331 32.4346 93.2835 32.7483C93.2347 33.062 93.4946 33.5656 93.8612 33.8675C94.354 34.273 94.576 34.9173 94.7131 36.3349C95.1058 40.4055 96.8877 41.1536 101.948 39.3727C106.615 37.7306 109.106 38.0753 108.775 40.5651C108.606 41.8388 108.572 43.3108 108.186 44.4081C105.134 53.0865 94.9581 55.7735 87.2851 49.569C84.6782 47.461 83.1617 45.2921 83.1617 43.6705V42.296L81.4299 41.7848C80.1952 41.4202 79.6984 41.1155 79.6986 40.7228C79.6997 39.9787 77.8529 18.3732 77.6787 17.0916L77.5408 16.075L79.5639 15.855L81.5873 15.635V13.434V11.2327H74.6845H67.7814L67.4592 12.2719C66.6374 14.9244 62.7061 29.4344 62.5169 30.5141C62.2458 32.0592 62.1185 31.906 61.6018 29.4118C61.3703 28.2948 60.4689 25.0069 59.5986 22.105C58.7285 19.203 57.6435 15.5697 57.1875 14.0306L56.3587 11.2327H48.8204H41.2825V13.434V15.635L43.3418 15.8588L45.4012 16.083L45.2299 17.8948C45.1357 18.8913 44.8483 23.52 44.5907 28.1807C44.3334 32.8413 44.0387 37.6955 43.9357 38.9679L43.7487 41.2812L42.4369 41.6252C41.7154 41.8142 40.8773 42.0421 40.574 42.1314C40.1452 42.2577 40.023 42.644 40.023 43.871V45.4484H46.7929H53.5629V43.862C53.5629 42.118 53.7629 42.2644 50.2891 41.4653L49.3771 41.2555L49.5765 37.1964C49.6861 34.9637 49.8709 29.5544 49.9874 25.1755L50.1993 17.2137L54.8832 31.6508L59.567 46.088H61.1219H62.6768L63.157 44.4091C63.4212 43.4859 65.2588 37.0463 67.2407 30.0993L70.8445 17.4683L70.8653 20.9857C70.8766 22.9204 71.1673 28.2446 71.5111 32.8174C71.855 37.3902 72.1371 41.1635 72.1384 41.2025C72.14 41.2414 71.3616 41.5037 70.4091 41.7848L68.6772 42.296V43.8723V45.4484H75.8776H83.078C83.078 45.4484 76.548 35.3574 83.9575 46.8075C91.367 58.2576 104.844 58.6953 112.039 47.7201C116.134 41.4736 114.811 36.7013 106.134 26.4219C97.2931 15.949 95.1823 10.4566 97.3275 3.50663C98.0583 1.13808 98.0264 1.31971 97.7118 1.31971C97.5748 1.31971 96.8735 1.93143 96.1536 2.67874ZM131.402 11.5595C114.025 16.1827 112.527 41.1554 129.362 45.5856C132.471 46.4035 137.767 46.2565 141.573 45.2466C143.304 44.7868 145.04 44.3398 145.429 44.2527C146.12 44.0989 146.138 43.988 146.138 39.9604V35.8261L144.054 35.9204L141.971 36.0151L141.128 38.179C139.763 41.6818 137.511 42.8208 133.758 41.9066C125.02 39.7779 123.752 18.9424 132.163 15.6951C134.572 14.7652 138.938 15.5931 139.386 17.065C139.507 17.4628 139.881 18.5434 140.218 19.4668L140.83 21.1457H143.155H145.48L145.635 20.1064C145.797 19.0211 146.148 12.1927 146.041 12.191C146.008 12.1904 144.523 11.9026 142.742 11.5515C138.634 10.7415 134.466 10.7444 131.402 11.5595ZM8.70555 24.5864C2.16796 43.1128 2.92084 41.3336 1.44122 41.7534C0.206877 42.1036 0.189245 42.1305 0.0954094 43.7785L0 45.4484H6.17325H12.3465L12.2511 43.8016L12.156 42.1547L10.6603 41.7134C9.83787 41.4707 9.16462 41.23 9.16462 41.1788C9.16462 41.1273 9.39041 40.4123 9.66657 39.5895L10.1684 38.0936H15.7973H21.4258L21.8726 39.6125C22.3795 41.3361 22.3515 41.393 20.7365 41.9171C19.5831 42.2913 19.5557 42.3367 19.5557 43.8745V45.4484H27.1128H34.67V43.862V42.2753L33.3318 41.9274C32.5956 41.7362 31.8414 41.529 31.6557 41.4672C31.4702 41.4055 28.9949 34.5774 26.1556 26.2937L20.9935 11.2327L17.2045 11.2358L13.4156 11.2387L8.70555 24.5864ZM165.629 12.112C165.448 12.5958 163.116 19.179 160.448 26.7417C154.871 42.5522 155.401 41.3489 153.818 41.7979C152.617 42.1391 152.591 42.1768 152.498 43.7971L152.402 45.4484H158.576H164.749L164.654 43.7789L164.559 42.1094L163.057 41.6799C162.23 41.4439 161.614 41.1519 161.686 41.0311C161.759 40.9105 161.98 40.2003 162.177 39.4526L162.536 38.0936H168.199H173.863L174.156 38.8741C174.882 40.8152 174.727 41.3527 173.296 41.8439C171.965 42.3015 171.958 42.3118 171.958 43.8761V45.4484H179.516H187.072V43.862V42.2753L185.734 41.9261C184.999 41.7339 184.272 41.5427 184.122 41.5008C183.97 41.4592 182.758 38.265 181.427 34.4031C180.096 30.5412 177.758 23.748 176.231 19.3069L173.453 11.2327H169.706H165.96L165.629 12.112ZM18.1293 26.3921C19.2601 30.421 20.1854 33.7664 20.1854 33.8269C20.1854 33.8873 18.1897 33.9366 15.751 33.9366C12.3364 33.9366 11.3496 33.8445 11.4605 33.5369C11.5398 33.3172 12.5789 29.8723 13.7694 25.8821C14.9604 21.892 15.9658 18.7262 16.0039 18.8471C16.042 18.968 16.9982 22.3633 18.1293 26.3921ZM168.807 19.6456C168.806 19.855 169.669 23.0963 170.724 26.8482C172.981 34.8777 173.314 33.9753 168.134 33.8659L163.907 33.7767L166.122 26.3729C168.025 20.0136 168.816 18.0333 168.807 19.6456Z" fill="#D1174F"/>
</svg>
