<svg width="163" height="63" viewBox="0 0 163 63" fill="none" xmlns="http://www.w3.org/2000/svg">
<path fill-rule="evenodd" clip-rule="evenodd" d="M151.359 0.705637C151.359 1.27267 151.482 1.37716 152.153 1.37716H152.946V3.79464V6.21213H153.741H154.534V3.79464V1.37716H155.327C155.998 1.37716 156.122 1.27267 156.122 0.705637C156.122 0.0392172 156.103 0.0341136 153.741 0.0341136C151.377 0.0341136 151.359 0.0392172 151.359 0.705637ZM156.915 3.1062V6.21213H157.576C158.195 6.21213 158.239 6.1216 158.258 4.80193L158.279 3.39173L158.742 4.73477C159.461 6.81488 160.375 6.79474 161.1 4.68293L161.636 3.12312L161.656 4.66762C161.676 6.13047 161.712 6.21213 162.339 6.21213H163V3.1062V0L162.161 0.0843437C161.366 0.163852 161.285 0.280159 160.633 2.26867L159.945 4.3692L159.275 2.26867C158.638 0.270489 158.564 0.164389 157.76 0.0843437L156.915 0V3.1062ZM80.7889 2.25014C78.5222 4.60289 77.6432 8.71529 78.3364 13.7332C78.4749 14.7326 78.412 14.7644 77.0165 14.4015L76.3552 14.2296L76.9798 14.7872L77.6044 15.3448L76.9798 15.3489C76.4795 15.3524 76.4336 15.4047 76.7516 15.6134C76.9699 15.7566 77.4631 15.8756 77.8482 15.8781C79.0627 15.885 78.3272 18.0691 76.2132 20.7302C75.5264 21.5951 75.6988 22.0383 77.0208 22.8068C78.1223 23.4469 78.3251 24.0378 77.7909 25.0505C77.5719 25.4671 77.6143 25.7502 77.9803 26.3087C78.2396 26.7051 78.4191 27.2451 78.3774 27.5086C78.3364 27.772 78.5547 28.1951 78.8628 28.4487C79.2768 28.7893 79.4633 29.3305 79.5785 30.5213C79.9085 33.9406 81.4057 34.569 85.6578 33.073C89.5785 31.6937 91.6713 31.9832 91.3936 34.0746C91.2517 35.1446 91.2225 36.3811 90.8983 37.3027C88.3343 44.5926 79.7844 46.8497 73.3375 41.6379C71.1471 39.8672 69.873 38.0453 69.873 36.6832V35.5286L68.4179 35.0992C67.3805 34.7929 66.9631 34.537 66.9633 34.2071C66.9641 33.5821 65.4125 15.4335 65.2661 14.3569L65.1503 13.503L66.8501 13.3182L68.5502 13.1334V11.2845V9.43544H62.7504H56.9503L56.6797 10.3084C55.9891 12.5365 52.686 24.7249 52.5271 25.6318C52.2993 26.9297 52.1924 26.801 51.7583 24.7059C51.5637 23.7676 50.8063 21.0058 50.0751 18.5682C49.3441 16.1305 48.4324 13.0786 48.0493 11.7857L47.3529 9.43544H41.0192H34.6858V11.2845V13.1334L36.4161 13.3214L38.1464 13.5097L38.0024 15.0316C37.9233 15.8687 37.6818 19.7568 37.4654 23.6718C37.2492 27.5867 37.0016 31.6642 36.915 32.733L36.7579 34.6761L35.6557 34.9652C35.0496 35.1239 34.3453 35.3154 34.0906 35.3903C33.7302 35.4964 33.6276 35.8209 33.6276 36.8516V38.1766H39.3157H45.0039V36.8441C45.0039 35.3791 45.1719 35.5021 42.2532 34.8308L41.487 34.6546L41.6545 31.2449C41.7466 29.3695 41.9019 24.8257 41.9997 21.1474L42.1778 14.4595L46.1132 26.5867L50.0486 38.7139H51.355H52.6614L53.0649 37.3036C53.2869 36.5281 54.8309 31.1189 56.496 25.2834L59.524 14.6733L59.5414 17.628C59.551 19.2531 59.7952 23.7255 60.0841 27.5666C60.373 31.4077 60.6101 34.5773 60.6111 34.6101C60.6124 34.6428 59.9585 34.8631 59.1581 35.0992L57.703 35.5286V36.8527V38.1766H63.7528H69.8026C69.8026 38.1766 64.3161 29.7002 70.5416 39.3182C76.7671 48.9363 88.0905 49.304 94.1358 40.0848C97.5767 34.8378 96.4646 30.8291 89.1743 22.1943C81.7462 13.3971 79.9728 8.78351 81.7752 2.94557C82.3892 0.955983 82.3624 1.10855 82.0981 1.10855C81.9829 1.10855 81.3937 1.6224 80.7889 2.25014ZM110.405 9.70998C95.8047 13.5935 94.5463 34.5705 108.691 38.2919C111.303 38.9789 115.752 38.8554 118.95 38.0071C120.405 37.6209 121.863 37.2454 122.19 37.1723C122.771 37.0431 122.786 36.9499 122.786 33.5667V30.0939L121.035 30.1731L119.285 30.2527L118.576 32.0703C117.43 35.0126 115.537 35.9695 112.384 35.2015C105.043 33.4134 103.977 15.9116 111.044 13.1839C113.068 12.4027 116.737 13.0982 117.113 14.3346C117.215 14.6687 117.529 15.5764 117.812 16.3521L118.326 17.7624H120.28H122.233L122.364 16.8893C122.5 15.9777 122.795 10.2418 122.705 10.2405C122.677 10.2399 121.43 9.99814 119.933 9.70323C116.481 9.02282 112.979 9.02526 110.405 9.70998ZM7.31446 20.6525C1.82153 36.2147 2.4541 34.7202 1.21092 35.0728C0.17382 35.367 0.159004 35.3895 0.0801636 36.7739L0 38.1766H5.18681H10.3736L10.2935 36.7933L10.2135 35.4099L8.95686 35.0393C8.26584 34.8354 7.70017 34.6332 7.70017 34.5901C7.70017 34.5469 7.88988 33.9463 8.12191 33.2552L8.54359 31.9986H13.273H18.0021L18.3775 33.2745C18.8034 34.7223 18.7799 34.7701 17.4229 35.2104C16.4538 35.5246 16.4309 35.5628 16.4309 36.8545V38.1766H22.7804H29.1299V36.8441V35.5112L28.0056 35.219C27.387 35.0583 26.7534 34.8843 26.5973 34.8325C26.4415 34.7806 24.3617 29.045 21.9761 22.0867L17.6389 9.43544L14.4553 9.4381L11.2718 9.44054L7.31446 20.6525ZM139.163 10.1741C139.01 10.5805 137.051 16.1103 134.81 22.463C130.124 35.7439 130.569 34.733 129.239 35.1102C128.229 35.3968 128.208 35.4285 128.13 36.7896L128.049 38.1766H133.236H138.423L138.343 36.7742L138.263 35.3718L137.001 35.0111C136.307 34.8129 135.789 34.5676 135.85 34.4661C135.911 34.3648 136.096 33.7682 136.262 33.1402L136.564 31.9986H141.322H146.081L146.327 32.6543C146.937 34.2847 146.806 34.7363 145.604 35.1489C144.486 35.5332 144.48 35.5418 144.48 36.8559V38.1766H150.83H157.179V36.8441V35.5112L156.055 35.2179C155.437 35.0565 154.827 34.8959 154.7 34.8606C154.573 34.8257 153.554 32.1426 152.436 28.8986C151.318 25.6546 149.353 19.9483 148.07 16.2178L145.737 9.43544H142.588H139.44L139.163 10.1741ZM15.2323 22.1694C16.1824 25.5536 16.9599 28.3638 16.9599 28.4146C16.9599 28.4653 15.2831 28.5067 13.2341 28.5067C10.3651 28.5067 9.53603 28.4294 9.62915 28.171C9.69578 27.9864 10.5689 25.0927 11.5692 21.741C12.5698 18.3893 13.4145 15.73 13.4466 15.8316C13.4786 15.9331 14.282 18.7852 15.2323 22.1694ZM141.833 16.5023C141.832 16.6782 142.557 19.4009 143.443 22.5525C145.34 29.2972 145.619 28.5392 141.267 28.4474L137.716 28.3724L139.577 22.1532C141.176 16.8114 141.84 15.1479 141.833 16.5023Z" fill="#D1174F"/>
<path fill-rule="evenodd" clip-rule="evenodd" d="M151.359 0.705637C151.359 1.27267 151.482 1.37716 152.152 1.37716H152.946V3.79464V6.21213H153.74H154.533V3.79464V1.37716H155.328C155.997 1.37716 156.121 1.27267 156.121 0.705637C156.121 0.0392172 156.103 0.0341136 153.74 0.0341136C151.376 0.0341136 151.359 0.0392172 151.359 0.705637ZM156.915 3.1062V6.21213H157.576C158.195 6.21213 158.239 6.1216 158.258 4.80193L158.279 3.39173L158.742 4.73477C159.46 6.81488 160.375 6.79474 161.1 4.68293L161.635 3.12312L161.656 4.66762C161.676 6.13047 161.712 6.21213 162.338 6.21213H162.999V3.1062V0L162.161 0.0843437C161.366 0.163852 161.285 0.280159 160.633 2.26867L159.944 4.3692L159.275 2.26867C158.638 0.270489 158.564 0.164389 157.76 0.0843437L156.915 0V3.1062ZM80.7883 2.25014C78.5216 4.60289 77.6433 8.71529 78.3365 13.7332C78.4743 14.7326 78.4121 14.7644 77.0159 14.4015L76.3546 14.2296L76.9792 14.7872L77.6038 15.3448L76.9792 15.3489C76.4789 15.3524 76.4337 15.4047 76.7517 15.6134C76.97 15.7566 77.4632 15.8756 77.8475 15.8781C79.0628 15.885 78.3266 18.0691 76.2133 20.7302C75.5258 21.5951 75.6982 22.0383 77.0202 22.8068C78.1217 23.4469 78.3245 24.0378 77.791 25.0505C77.5713 25.4671 77.6137 25.7502 77.9797 26.3087C78.2397 26.7051 78.4184 27.2451 78.3775 27.5086C78.3365 27.772 78.5541 28.1951 78.8622 28.4487C79.2762 28.7893 79.4627 29.3305 79.5779 30.5213C79.9086 33.9406 81.4051 34.569 85.6572 33.073C91.3845 31.0582 92.7616 34.3073 88.6509 40.1356C84.341 46.2461 76.4765 45.7317 70.8674 39.132C70.6908 38.9168 70.5915 38.6505 70.4082 38.4147L69.5555 37.5051L70.1617 38.6505C75.4996 48.7343 87.974 49.4808 94.1352 40.0848C97.5761 34.8378 96.4647 30.8291 89.1737 22.1943C81.7456 13.3971 79.9722 8.78351 81.7746 2.94557C82.3893 0.955983 82.3625 1.10855 82.0975 1.10855C81.9823 1.10855 81.3938 1.6224 80.7883 2.25014Z" fill="black"/>
<path fill-rule="evenodd" clip-rule="evenodd" d="M0 57.2794V57.898H1.06023H2.12046V60.3725V62.847H2.85447H3.58847V60.3725V57.898H4.56715H5.54582V57.2794V56.6608H2.77291H0V57.2794ZM6.88987 59.6412C5.49184 63.1517 5.53555 62.847 6.42941 62.847C7.13193 62.847 7.15542 62.8308 7.38084 62.1897L7.61197 61.5324H8.72489H9.83797L10.0908 62.1897C10.3389 62.835 10.3575 62.847 11.1047 62.847H11.8659L10.6317 59.7539L9.3974 56.6608L8.73565 56.664L8.07407 56.6674L6.88987 59.6412ZM12.3965 59.7539V62.847H14.7617H17.1268V62.3057V61.7644H15.4957H13.8646V59.2126V56.6608H13.1306H12.3965V59.7539ZM17.7793 59.7539V62.847H18.4317H19.0842V61.946C19.0842 61.1944 19.1492 60.9871 19.4764 60.6956L19.8689 60.3461L20.5089 61.1713C20.8609 61.6251 21.28 62.1879 21.4402 62.4217C21.6923 62.79 21.8383 62.847 22.5283 62.847C23.5179 62.847 23.5541 62.9922 22.0862 61.0731L20.8474 59.4534L21.2299 59.0038C21.4403 58.7567 21.961 58.173 22.3872 57.7069C22.8134 57.2407 23.162 56.8147 23.162 56.7601C23.162 56.0338 21.5313 56.7743 20.3891 58.0194L19.1657 59.353L19.1186 58.0069L19.0714 56.6608H18.4254H17.7793V59.7539ZM25.9349 59.7539V62.847H26.6689H27.4029V59.7539V56.6608H26.6689H25.9349V59.7539ZM32.215 56.9044C29.4563 58.2683 30.1318 62.4972 33.1777 62.9302C35.0048 63.19 37.0978 61.7695 35.8668 61.1051C35.3636 60.8336 35.3595 60.8343 34.802 61.2984C33.2986 62.5501 31.2747 60.8459 32.0726 59.0001C32.6207 57.7321 34.2416 57.399 34.9827 58.4022C35.4672 59.0581 36.4613 58.2061 35.9965 57.5334C35.4328 56.7177 33.3077 56.3642 32.215 56.9044ZM37.0265 59.7539V62.847H37.7605H38.4945V61.6098V60.3725H39.881H41.2675V61.6098V62.847H42.0015H42.7355V59.7539V56.6608H42.0015H41.2675V57.898V59.1353H39.881H38.4945V57.898V56.6608H37.7605H37.0265V59.7539ZM45.5971 56.9235C45.5335 57.0767 45.0176 58.3504 44.4504 59.7539C43.8835 61.1574 43.3662 62.4318 43.301 62.5856C43.195 62.836 43.2651 62.8605 43.9657 62.8176C44.7282 62.7709 44.755 62.7524 44.9791 62.1124L45.2094 61.4551H46.3239H47.4385L47.6688 62.1124C47.8926 62.7511 47.9208 62.7711 48.6751 62.8173C49.3614 62.8595 49.44 62.8328 49.3556 62.5853C49.303 62.4316 48.7556 61.053 48.1392 59.5219L47.0183 56.7381L46.3655 56.6916C45.8594 56.6554 45.6868 56.7075 45.5971 56.9235ZM49.4231 57.2794V57.898H50.4833H51.5435V60.3725V62.847H52.2776H53.0116V60.3725V57.898H53.9902H54.9689V57.2794V56.6608H52.196H49.4231V57.2794ZM57.9049 59.7539V62.847H58.5574H59.2098V59.7539V56.6608H58.5574H57.9049V59.7539ZM61.9827 56.7036C61.9827 56.7366 62.5589 58.1149 63.263 59.7666L64.5431 62.7697L65.2026 62.8164L65.8619 62.8631L66.3132 61.7725C66.8658 60.4369 66.8515 60.4369 67.4225 61.7745L67.8874 62.8633L68.536 62.8166L69.1845 62.7697L70.477 59.7663C71.1878 58.1144 71.7695 56.74 71.7695 56.7118C71.7695 56.6838 71.4208 56.6609 70.9947 56.6611L70.2199 56.6614L69.5021 58.5556C69.1072 59.5974 68.7155 60.6238 68.6317 60.8365C68.487 61.2036 68.4611 61.1803 68.1159 60.3725L67.7524 59.5219L68.1895 58.4393C68.9636 56.5221 68.9654 56.6345 68.1616 56.6899C67.4814 56.7367 67.4545 56.7591 67.2218 57.4727C66.9192 58.3999 66.8047 58.394 66.4683 57.4341C66.203 56.6763 66.1842 56.6608 65.5391 56.6608C64.7886 56.6608 64.7914 56.5391 65.4999 58.367L65.9516 59.5318L65.6577 60.2615C65.2579 61.2541 65.27 61.2671 64.3479 58.8637L63.5323 56.7381L62.7575 56.6909C62.3315 56.6651 61.9827 56.6708 61.9827 56.7036ZM73.9787 56.9235C73.9151 57.0767 73.3991 58.3504 72.832 59.7539C72.265 61.1574 71.7478 62.4318 71.6826 62.5856C71.5765 62.836 71.6467 62.8605 72.3472 62.8176C73.1098 62.7709 73.1365 62.7524 73.3607 62.1124L73.591 61.4551H74.7055H75.8201L76.0504 62.1124C76.2742 62.7511 76.3024 62.7711 77.0566 62.8173C77.743 62.8595 77.8216 62.8328 77.7371 62.5853C77.6846 62.4316 77.1372 61.053 76.5208 59.5219L75.3999 56.7381L74.7471 56.6916C74.241 56.6554 74.0684 56.7075 73.9787 56.9235ZM78.4571 59.7539V62.847H80.8222H83.1874V62.3057V61.7644H81.4747H79.762V59.2126V56.6608H79.1096H78.4571V59.7539ZM83.6767 59.7539V62.847H84.4107H85.1447V61.946C85.1447 61.1965 85.2101 60.9868 85.5337 60.6985L85.9226 60.3521L86.8499 61.5996L87.777 62.847H88.6001H89.4232L89.1325 62.4265C88.9726 62.1951 88.4138 61.4584 87.8904 60.7892C86.7323 59.3082 86.7129 59.5833 88.0807 58.085C89.4372 56.5989 89.4214 56.6606 88.4477 56.6612C87.6767 56.6616 87.6669 56.6682 86.4496 58.0066L85.2263 59.3516L85.1791 58.0061L85.132 56.6608H84.4044H83.6767V59.7539ZM91.9954 59.7539V62.847H92.7295H93.4635V59.7539V56.6608H92.7295H91.9954V59.7539ZM96.8888 59.7539V62.847H97.5413H98.1937L98.1996 60.9525L98.2056 59.058L98.9744 60.4499C100.049 62.3945 100.289 62.4069 101.33 60.5716L102.101 59.2126L102.105 61.0298L102.108 62.847H102.842H103.576V59.7539V56.6608H102.801H102.025L101.129 58.2754C100.636 59.1636 100.184 59.8421 100.125 59.7833C100.066 59.7247 99.6379 58.9981 99.173 58.1687L98.3278 56.6608H97.6083H96.8888V59.7539ZM104.718 59.7539V62.847H107.002H109.285V62.3057V61.7644H107.736H106.186V60.9911V60.2179H107.491H108.796V59.6766V59.1353H107.491H106.186V58.5167V57.898H107.736H109.285V57.2794V56.6608H107.002H104.718V59.7539ZM110.264 59.7539V62.847H112.548H114.831V62.3057V61.7644H113.2H111.569V60.9911V60.2179H112.955H114.342V59.6766V59.1353H112.955H111.569V58.5167V57.898H113.2H114.831V57.2794V56.6608H112.548H110.264V59.7539ZM115.157 57.2794V57.898H116.136H117.115V60.3725V62.847H117.849H118.583V60.3725V57.898H119.643H120.703V57.2794V56.6608H117.93H115.157V57.2794ZM123.476 59.7539V62.847H124.21H124.944V59.7539V56.6608H124.21H123.476V59.7539ZM129.053 56.9741C127.32 57.976 127.836 59.6313 130.11 60.3626C131.503 60.8108 131.908 61.1815 131.397 61.5416C130.938 61.8642 130.2 61.8136 129.25 61.394L128.418 61.0266L128.149 61.4581C127.764 62.0761 127.803 62.1848 128.539 62.541C130.634 63.5543 133.1 62.8014 133.1 61.1486C133.1 60.0628 132.55 59.6019 130.63 59.0781C129.556 58.7853 129.303 58.4318 129.86 58.004C130.271 57.6885 131.009 57.7445 131.845 58.1546C132.103 58.2813 132.335 58.3623 132.36 58.3348C132.385 58.3073 132.528 58.0564 132.678 57.7774L132.95 57.27L132.25 56.9689C131.289 56.5553 129.773 56.5578 129.053 56.9741ZM133.915 59.7539V62.847H134.649H135.383V61.6098V60.3725H136.77H138.156V61.6098V62.847H138.809H139.461V59.7539V56.6608H138.809H138.156V57.898V59.1353H136.77H135.383V57.898V56.6608H134.649H133.915V59.7539ZM142.379 57.0861C141.491 59.2703 140.114 62.7332 140.114 62.7838C140.114 63.3033 141.589 62.7609 141.835 62.1511L142.115 61.4551H143.209H144.303L144.501 62.0819C144.724 62.7872 144.89 62.8886 145.71 62.8187L146.285 62.7697L145.508 60.8365C145.081 59.7732 144.53 58.3988 144.284 57.782L143.837 56.6608H143.194C142.644 56.6608 142.527 56.7219 142.379 57.0861ZM146.801 59.7539V62.847H147.535H148.269V61.8418V60.8365H148.825C149.336 60.8365 149.429 60.9165 150 61.8418L150.621 62.847H151.402C152.338 62.847 152.336 62.8696 151.534 61.6204L150.895 60.626L151.284 60.2845C153.115 58.6753 151.663 56.6608 148.671 56.6608H146.801V59.7539ZM152.836 59.7539V62.847H155.202H157.567V62.3057V61.7644H155.936H154.304V60.9911V60.2179H155.691H157.077V59.6766V59.1353H155.691H154.304V58.5167V57.898H155.854H157.404V57.2794V56.6608H155.12H152.836V59.7539ZM150.335 58.3025C150.825 59.0103 150.377 59.5099 149.202 59.5683L148.269 59.6147V58.7564V57.898H149.163C149.946 57.898 150.09 57.9478 150.335 58.3025ZM9.06335 59.1739C9.2183 59.6204 9.3788 60.073 9.42023 60.1792C9.47373 60.3165 9.27311 60.3725 8.72652 60.3725C8.17846 60.3725 7.97995 60.317 8.03557 60.1792C8.07847 60.073 8.25039 59.6204 8.41758 59.1739C8.58477 58.7275 8.73516 58.362 8.75164 58.362C8.76828 58.362 8.90855 58.7275 9.06335 59.1739ZM46.7614 59.4447L47.1173 60.3725H46.337H45.5565L45.8994 59.4446C46.3209 58.3039 46.3238 58.3039 46.7614 59.4447ZM75.143 59.4447L75.4989 60.3725H74.7186H73.9381L74.2809 59.4446C74.7024 58.3039 74.7054 58.3039 75.143 59.4447ZM143.46 59.0876C144.001 60.3153 143.987 60.3725 143.156 60.3725H142.41L142.763 59.4446C143.178 58.3489 143.142 58.3671 143.46 59.0876Z" fill="black"/>
</svg>
