<svg width="188" height="8" viewBox="0 0 188 8" fill="none" xmlns="http://www.w3.org/2000/svg">
<path fill-rule="evenodd" clip-rule="evenodd" d="M0 1.18973V1.92619H1.26187H2.52374V4.87201V7.81784H3.39734H4.27095V4.87201V1.92619H5.43575H6.60055V1.18973V0.453272H3.30028H0V1.18973ZM8.20022 4.00134C6.53629 8.18054 6.58832 7.81784 7.65218 7.81784C8.48831 7.81784 8.51626 7.79851 8.78456 7.03535L9.05965 6.25287H10.3842H11.709L12.0099 7.03535C12.3052 7.80348 12.3273 7.81784 13.2166 7.81784H14.1227L12.6536 4.13556L11.1846 0.453272L10.397 0.457137L9.60963 0.461188L8.20022 4.00134ZM14.7542 4.13556V7.81784H17.5691H20.3841V7.17344V6.52904H18.4427H16.5014V3.49116V0.453272H15.6278H14.7542V4.13556ZM21.1606 4.13556V7.81784H21.9371H22.7137V6.74519C22.7137 5.8504 22.7911 5.60368 23.1806 5.25662L23.6476 4.84053L24.4094 5.82296C24.8284 6.36315 25.3271 7.03314 25.5177 7.31152C25.8179 7.7499 25.9916 7.81784 26.8128 7.81784C27.9906 7.81784 28.0337 7.99072 26.2867 5.70605L24.8123 3.77782L25.2675 3.2426C25.5179 2.94839 26.1376 2.25354 26.6449 1.69862C27.1521 1.1437 27.567 0.636465 27.567 0.571473C27.567 -0.293128 25.6263 0.588412 24.2667 2.07072L22.8107 3.65833L22.7546 2.0558L22.6985 0.453272H21.9296H21.1606V4.13556ZM30.8673 4.13556V7.81784H31.7409H32.6145V4.13556V0.453272H31.7409H30.8673V4.13556ZM38.3418 0.743254C35.0584 2.36696 35.8624 7.40137 39.4876 7.91689C41.6621 8.2262 44.1532 6.53512 42.6881 5.74416C42.0892 5.42086 42.0843 5.42178 41.4208 5.9743C39.6315 7.46434 37.2226 5.43559 38.1723 3.23818C38.8246 1.72863 40.7537 1.33205 41.6359 2.5264C42.2125 3.30723 43.3957 2.29294 42.8424 1.49204C42.1715 0.521025 39.6423 0.100143 38.3418 0.743254ZM44.0684 4.13556V7.81784H44.942H45.8156V6.34493V4.87201H47.4657H49.1159V6.34493V7.81784H49.9895H50.8631V4.13556V0.453272H49.9895H49.1159V1.92619V3.3991H47.4657H45.8156V1.92619V0.453272H44.942H44.0684V4.13556ZM54.269 0.766083C54.1932 0.948356 53.5792 2.46472 52.9042 4.13556C52.2294 5.80639 51.6138 7.32349 51.5361 7.50669C51.41 7.80477 51.4934 7.83386 52.3272 7.78286C53.2348 7.72725 53.2666 7.70516 53.5334 6.9433L53.8075 6.16081H55.134H56.4605L56.7347 6.9433C57.001 7.70369 57.0346 7.72744 57.9323 7.78249C58.7492 7.83275 58.8428 7.8009 58.7422 7.50632C58.6797 7.32331 58.0282 5.68211 57.2945 3.85938L55.9604 0.545329L55.1835 0.489911C54.5811 0.446829 54.3757 0.508875 54.269 0.766083ZM58.8226 1.18973V1.92619H60.0844H61.3463V4.87201V7.81784H62.2199H63.0935V4.87201V1.92619H64.2583H65.4231V1.18973V0.453272H62.1228H58.8226V1.18973ZM68.9175 4.13556V7.81784H69.6941H70.4706V4.13556V0.453272H69.6941H68.9175V4.13556ZM73.7709 0.504273C73.7709 0.543489 74.4566 2.18431 75.2946 4.15065L76.8182 7.72578L77.6031 7.78138L78.3878 7.83699L78.9249 6.53861C79.5827 4.9486 79.5656 4.9486 80.2452 6.54101L80.7985 7.83717L81.5704 7.78157L82.3423 7.72578L83.8806 4.15028C84.7266 2.18376 85.4189 0.547536 85.4189 0.514027C85.4189 0.480702 85.0038 0.453458 84.4968 0.453642L83.5746 0.454008L82.7203 2.70904C82.2503 3.94923 81.7841 5.1712 81.6844 5.42435C81.5122 5.86144 81.4813 5.83364 81.0705 4.87201L80.6378 3.85938L81.1581 2.57058C82.0794 0.288121 82.0816 0.42197 81.1249 0.487883C80.3153 0.543669 80.2833 0.570368 80.0063 1.41987C79.6461 2.52364 79.5099 2.51664 79.1096 1.37384C78.7937 0.471683 78.7714 0.453272 78.0036 0.453272C77.1104 0.453272 77.1137 0.308376 77.957 2.48442L78.4945 3.87117L78.1447 4.73982C77.6689 5.92147 77.6833 5.93693 76.5858 3.07579L75.6151 0.545329L74.693 0.489175C74.1859 0.458428 73.7709 0.46524 73.7709 0.504273ZM88.0483 0.766083C87.9725 0.948356 87.3585 2.46472 86.6835 4.13556C86.0087 5.80639 85.3931 7.32349 85.3154 7.50669C85.1892 7.80477 85.2727 7.83386 86.1065 7.78286C87.0141 7.72725 87.0459 7.70516 87.3127 6.9433L87.5868 6.16081H88.9133H90.2398L90.5139 6.9433C90.7803 7.70369 90.8139 7.72744 91.7116 7.78249C92.5285 7.83275 92.622 7.8009 92.5215 7.50632C92.459 7.32331 91.8075 5.68211 91.0738 3.85938L89.7397 0.545329L88.9628 0.489911C88.3604 0.446829 88.155 0.508875 88.0483 0.766083ZM93.3784 4.13556V7.81784H96.1933H99.0083V7.17344V6.52904H96.9699H94.9315V3.49116V0.453272H94.1549H93.3784V4.13556ZM99.5907 4.13556V7.81784H100.464H101.338V6.74519C101.338 5.85297 101.416 5.60331 101.801 5.26013L102.264 4.84771L103.367 6.33277L104.471 7.81784H105.45H106.43L106.084 7.31723C105.894 7.0418 105.229 6.16468 104.606 5.36802C103.227 3.60494 103.204 3.93248 104.832 2.14878C106.447 0.379629 106.428 0.453086 105.269 0.453822C104.351 0.45419 104.34 0.462108 102.891 2.05543L101.435 3.65667L101.379 2.05488L101.323 0.453272H100.457H99.5907V4.13556ZM109.492 4.13556V7.81784H110.365H111.239V4.13556V0.453272H110.365H109.492V4.13556ZM115.316 4.13556V7.81784H116.092H116.869L116.876 5.56244L116.883 3.30704L117.798 4.96407C119.076 7.27912 119.362 7.29385 120.601 5.10896L121.519 3.49116L121.524 5.6545L121.528 7.81784H122.401H123.275V4.13556V0.453272H122.352H121.429L120.362 2.37542C119.775 3.43279 119.238 4.2405 119.168 4.17054C119.097 4.10076 118.587 3.23579 118.034 2.24838L117.028 0.453272H116.172H115.316V4.13556ZM124.634 4.13556V7.81784H127.352H130.07V7.17344V6.52904H128.225H126.381V5.60847V4.6879H127.934H129.487V4.0435V3.3991H127.934H126.381V2.66264V1.92619H128.225H130.07V1.18973V0.453272H127.352H124.634V4.13556ZM131.234 4.13556V7.81784H133.952H136.67V7.17344V6.52904H134.729H132.788V5.60847V4.6879H134.438H136.088V4.0435V3.3991H134.438H132.788V2.66264V1.92619H134.729H136.67V1.18973V0.453272H133.952H131.234V4.13556ZM137.059 1.18973V1.92619H138.223H139.388V4.87201V7.81784H140.262H141.135V4.87201V1.92619H142.397H143.659V1.18973V0.453272H140.359H137.059V1.18973ZM146.959 4.13556V7.81784H147.833H148.707V4.13556V0.453272H147.833H146.959V4.13556ZM153.597 0.826287C151.534 2.01898 152.149 3.98955 154.855 4.86023C156.513 5.39379 156.995 5.83511 156.386 6.26373C155.841 6.64779 154.962 6.58759 153.831 6.08809L152.841 5.65063L152.521 6.16431C152.063 6.90003 152.109 7.02946 152.986 7.45348C155.479 8.65979 158.413 7.76353 158.413 5.7959C158.413 4.50323 157.759 3.95457 155.474 3.33098C154.196 2.98245 153.895 2.56156 154.558 2.0523C155.047 1.67671 155.924 1.74336 156.92 2.23163C157.227 2.38242 157.503 2.4789 157.533 2.44612C157.563 2.41335 157.733 2.11472 157.911 1.78258L158.235 1.1785L157.402 0.820028C156.258 0.327707 154.454 0.330652 153.597 0.826287ZM159.384 4.13556V7.81784H160.258H161.131V6.34493V4.87201H162.781H164.431V6.34493V7.81784H165.208H165.984V4.13556V0.453272H165.208H164.431V1.92619V3.3991H162.781H161.131V1.92619V0.453272H160.258H159.384V4.13556ZM169.458 0.959586C168.4 3.55983 166.761 7.68233 166.761 7.74254C166.761 8.36098 168.517 7.71529 168.81 6.98933L169.143 6.16081H170.445H171.747L171.983 6.90703C172.248 7.74659 172.446 7.86736 173.422 7.78414L174.106 7.72578L173.181 5.42435C172.673 4.15857 172.018 2.52235 171.725 1.7881L171.192 0.453272H170.428C169.773 0.453272 169.634 0.525997 169.458 0.959586ZM174.72 4.13556V7.81784H175.594H176.468V6.6211V5.42435H177.129C177.737 5.42435 177.849 5.51954 178.528 6.6211L179.266 7.81784H180.197C181.311 7.81784 181.308 7.84472 180.353 6.35763L179.593 5.17378L180.055 4.76725C182.235 2.85154 180.506 0.453272 176.946 0.453272H174.72V4.13556ZM181.903 4.13556V7.81784H184.718H187.533V7.17344V6.52904H185.592H183.651V5.60847V4.6879H185.301H186.951V4.0435V3.3991H185.301H183.651V2.66264V1.92619H185.495H187.339V1.18973V0.453272H184.621H181.903V4.13556ZM178.927 2.40764C179.509 3.25033 178.977 3.84502 177.578 3.91462L176.468 3.96985V2.94802V1.92619H177.531C178.463 1.92619 178.635 1.98547 178.927 2.40764ZM10.787 3.44513C10.9715 3.97667 11.1625 4.51538 11.2118 4.64187C11.2755 4.80536 11.0367 4.87201 10.3862 4.87201C9.73387 4.87201 9.49761 4.80592 9.56381 4.64187C9.61487 4.51538 9.81949 3.97667 10.0185 3.44513C10.2175 2.91359 10.3965 2.47853 10.4161 2.47853C10.4359 2.47853 10.6028 2.91359 10.787 3.44513ZM55.6547 3.76751L56.0783 4.87201H55.1495H54.2206L54.6287 3.76733C55.1303 2.4093 55.1338 2.4093 55.6547 3.76751ZM89.434 3.76751L89.8576 4.87201H88.9288H87.9999L88.408 3.76733C88.9096 2.4093 88.9131 2.4093 89.434 3.76751ZM170.744 3.34239C171.388 4.80389 171.371 4.87201 170.381 4.87201H169.495L169.914 3.76733C170.409 2.46288 170.366 2.4846 170.744 3.34239Z" fill="black"/>
</svg>
